<?xml version="1.0" encoding="UTF-8"?>
<!DOCTYPE svg PUBLIC "-//W3C//DTD SVG 1.1//EN" "http://www.w3.org/Graphics/SVG/1.1/DTD/svg11.dtd">
<!-- Creator: CorelDRAW 2021 (64 Bit) -->
<svg xmlns="http://www.w3.org/2000/svg" xml:space="preserve" width="73.2822mm" height="73.2822mm" version="1.1" style="shape-rendering:geometricPrecision; text-rendering:geometricPrecision; image-rendering:optimizeQuality; fill-rule:evenodd; clip-rule:evenodd"
viewBox="0 0 4817.99 4817.99"
 xmlns:xlink="http://www.w3.org/1999/xlink"
 xmlns:xodm="http://www.corel.com/coreldraw/odm/2003">
 <defs>
  <style type="text/css">
   <![CDATA[
    .fil0 {fill:black}
   ]]>
  </style>
 </defs>
 <g id="Camada_x0020_1">
  <metadata id="CorelCorpID_0Corel-Layer"/>
  <path class="fil0" d="M1392.7 1420.93c-3.94,-20.38 17.4,-202.7 22.68,-231.39 37.4,-203.03 143.08,-355.65 262.32,-499.9 46.56,-56.32 221.12,-180.7 295.64,-212.51 194.59,-83.06 216.8,-72.52 410.31,-98.47 118.16,-15.84 309.69,38.4 420.59,82.43 132.3,52.54 205.82,116.01 307.82,200.33 29.66,24.51 33.37,38.89 56.96,65.38 124.19,139.43 168.02,236.09 222.03,417.86 19.74,66.45 22.68,153.24 32,222.72 15.85,118.16 -38.4,309.69 -82.43,420.59 -61.18,154.08 -151.5,263.05 -265.7,364.78 -139.43,124.19 -236.1,168.01 -417.87,222.02 -131.88,39.19 -310.94,37.4 -451.22,11.56 -203.03,-37.4 -355.65,-143.07 -499.9,-262.32l-117.09 -136.98c-102.25,-139.34 -179.83,-332.02 -186.57,-509.77 -1.58,-41.44 -5.43,-34.96 -9.57,-56.31zm956.1 -1420.93l122.31 0c557.98,24.85 1073.08,387.55 1258.9,946.83 108.44,326.41 95.01,659.66 -25.02,960.83 -47.18,118.38 -131.4,268.1 -207.3,357.31 -48.09,56.53 -83.95,94.41 -135.79,146.51l-153.05 129.25c25.77,12.36 56.88,23 88.28,34.05 38.67,13.61 49.51,22.49 85.07,37.25 62.14,25.81 110.52,50.51 165.53,79.14 27.42,14.27 47.84,27.44 78.07,44.27 27.53,15.31 49.8,28.74 76.26,46.07 663.35,434.46 1115.92,1146.89 1115.92,2036.47l-376.41 0c0,-387.61 -140.39,-858.4 -366.95,-1157.49 -44.42,-58.64 -119.1,-161.18 -171.59,-214.22l-193.09 -183.33c-107.73,-102.94 -326.89,-230.6 -466.54,-295.68 -115.86,-53.98 -244.76,-95.12 -380.76,-127.39 -94.59,-22.44 -345.79,-54.92 -453.66,-54.92l-236.94 17.57c-79.01,11.67 -149.02,21.29 -216.72,37.35 -285.59,67.76 -642.87,227.74 -847.3,423.07 -206.86,197.64 -173.61,145.32 -364.68,397.54 -226.57,299.09 -366.95,769.88 -366.95,1157.49l-376.41 0c0,-885.38 456.87,-1613.35 1121.61,-2040.19l154.89 -89.78c150.34,-76.3 235.79,-100.82 332.63,-147.28 -16.59,-22.64 -56.75,-45.44 -82.27,-68.29 -90.41,-80.93 -125.41,-108.14 -210.84,-212.61 -77.52,-94.81 -157.37,-236.74 -205.74,-358.87 -123.79,-312.54 -122.79,-651.59 -19.97,-961.21 87.85,-264.53 271.33,-503.53 474.43,-654.79 246.02,-183.21 517.51,-273.11 784.06,-284.96z"/>
 </g>
</svg>
