<?xml version="1.0" encoding="UTF-8"?>
<!DOCTYPE svg PUBLIC "-//W3C//DTD SVG 1.1//EN" "http://www.w3.org/Graphics/SVG/1.1/DTD/svg11.dtd">
<!-- Creator: CorelDRAW 2021 (64 Bit) -->
<svg xmlns="http://www.w3.org/2000/svg" xml:space="preserve" width="41.3066mm" height="35.0733mm" version="1.1" style="shape-rendering:geometricPrecision; text-rendering:geometricPrecision; image-rendering:optimizeQuality; fill-rule:evenodd; clip-rule:evenodd"
viewBox="0 0 4525.53 3842.62"
 xmlns:xlink="http://www.w3.org/1999/xlink"
 xmlns:xodm="http://www.corel.com/coreldraw/odm/2003">
 <defs>
  <style type="text/css">
   <![CDATA[
    .fil0 {fill:white}
   ]]>
  </style>
 </defs>
 <g id="Camada_x0020_1">
  <metadata id="CorelCorpID_0Corel-Layer"/>
  <g id="_2629926277008">
   <path class="fil0" d="M1210.93 2334.59l0 1396.55c0,45.6 60.48,106.08 106.08,106.08l1891.52 0c45.6,0 106.06,-60.48 106.06,-106.08l0 -1396.55c0,-297.41 -303.63,-601.05 -601.04,-601.05l-901.57 0c-162.64,0 -329.52,103.82 -413.38,187.68 -83.86,83.87 -187.68,250.74 -187.68,413.38z"/>
   <path class="fil0" d="M1476.11 752.42c0,249.04 68.11,424.48 236.4,594.46 216.62,218.8 586.92,294.72 862.71,159.94 174.98,-85.51 305.96,-188.56 397.8,-380.03 123.36,-257.16 96.5,-558.78 -63.64,-791.15 -12.06,-17.49 -24.43,-33.16 -38.98,-49.4 -77.13,-86.08 -148.57,-154.47 -259.71,-208.77 -211.64,-103.4 -476.43,-102.22 -689.83,-2.85 -58.5,27.24 -172.38,108.63 -217.5,153.74l-117.73 156.26c-18.66,28.78 -18.25,32.43 -33.04,64.19 -39.18,84.16 -76.46,185.16 -76.46,303.6z"/>
   <path class="fil0" d="M-0 2696.98l0 777.83c0,161.98 138.54,314.06 305.77,357.15 79.06,20.38 545.92,5.25 666.52,5.25 -7.78,-33.39 -17.68,-55.29 -17.68,-97.23l0 -1396.55c0,-82.83 27.04,-219.82 53.04,-274.01 -338.98,0 -486.02,-27.87 -707.73,105.45 -145.07,87.23 -299.91,291.13 -299.91,522.11z"/>
   <path class="fil0" d="M3570.93 2343.44l0 1396.55c0,41.94 -9.9,63.84 -17.68,97.23 94.51,0 612.74,6.51 659.45,-3.47 166.9,-35.65 312.84,-195.71 312.84,-358.93l0 -777.83c0,-225.74 -151.72,-432.45 -294.33,-518.84 -226.46,-137.18 -370.13,-108.72 -713.31,-108.72 26,54.19 53.04,191.18 53.04,274.01z"/>
   <path class="fil0" d="M3641.64 1910.33c623.93,0 825.85,-858.02 244.67,-1128.56 -472.54,-219.98 -1008.3,270.79 -783.86,775.01 80.39,180.6 278.2,353.55 539.19,353.55z"/>
   <path class="fil0" d="M291.68 1309.28c0,641.26 859.91,831.51 1128.57,253.51 46.66,-100.41 68.64,-244.65 38.47,-368.72 -125.95,-518.11 -765.15,-617.19 -1052.21,-220.75 -55.27,76.34 -114.83,204.89 -114.83,335.96z"/>
  </g>
 </g>
</svg>
