<?xml version="1.0" encoding="UTF-8"?>
<!DOCTYPE svg PUBLIC "-//W3C//DTD SVG 1.1//EN" "http://www.w3.org/Graphics/SVG/1.1/DTD/svg11.dtd">
<!-- Creator: CorelDRAW 2021 (64 Bit) -->
<svg xmlns="http://www.w3.org/2000/svg" xml:space="preserve" width="12.8976mm" height="9.6228mm" version="1.1" style="shape-rendering:geometricPrecision; text-rendering:geometricPrecision; image-rendering:optimizeQuality; fill-rule:evenodd; clip-rule:evenodd"
viewBox="0 0 150 111.91"
 xmlns:xlink="http://www.w3.org/1999/xlink"
 xmlns:xodm="http://www.corel.com/coreldraw/odm/2003">
 <defs>
  <style type="text/css">
   <![CDATA[
    .fil0 {fill:black}
   ]]>
  </style>
 </defs>
 <g id="Camada_x0020_1">
  <metadata id="CorelCorpID_0Corel-Layer"/>
  <path class="fil0" d="M55.66 67.97c-2.83,0 -5.62,-3.71 -7.25,-5.35l-19.04 -19.05c-5.48,-5.51 -15.5,-6.7 -22.81,-0.98 -4.61,3.61 -6.56,8.3 -6.56,14.53 0,7.82 6.25,12.84 10.33,16.92l27.39 27.39c5.61,5.61 9.08,10.47 18.53,10.47 6.85,0 10.64,-4.04 14.87,-8.28 9.07,-9.07 73.38,-72.76 75.96,-76.39 1.78,-2.51 2.75,-5.52 2.93,-8.6l0 -2.12c-0.49,-8.32 -6.65,-16.52 -18.16,-16.52 -5.23,0 -9.56,2.94 -12.23,5.64l-54.05 54.05c-1.59,1.59 -2.96,2.96 -4.54,4.54 -1.31,1.31 -3,3.74 -5.35,3.74z"/>
 </g>
</svg>
