<?xml version="1.0" encoding="UTF-8"?>
<!DOCTYPE svg PUBLIC "-//W3C//DTD SVG 1.1//EN" "http://www.w3.org/Graphics/SVG/1.1/DTD/svg11.dtd">
<!-- Creator: CorelDRAW 2021 (64 Bit) -->
<svg xmlns="http://www.w3.org/2000/svg" xml:space="preserve" width="16.857mm" height="16.8872mm" version="1.1" style="shape-rendering:geometricPrecision; text-rendering:geometricPrecision; image-rendering:optimizeQuality; fill-rule:evenodd; clip-rule:evenodd"
viewBox="0 0 2.87 2.88"
 xmlns:xlink="http://www.w3.org/1999/xlink"
 xmlns:xodm="http://www.corel.com/coreldraw/odm/2003">
 <defs>
  <style type="text/css">
   <![CDATA[
    .fil0 {fill:white}
   ]]>
  </style>
 </defs>
 <g id="Layer_x0020_1">
  <metadata id="CorelCorpID_0Corel-Layer"/>
  <path class="fil0" d="M0.9 1.82c0.05,0.02 0.08,0.06 0.12,0.1 0.03,0.04 0.1,0.46 -0.07,0.47 -0.28,0.03 -0.07,-0.41 -0.05,-0.57zm0.29 -0.79l0.28 -0.06 -0.04 -0.08c-0.07,0.01 -0.19,0.09 -0.24,0.13zm0.98 -0.16c0.31,-0.11 0.46,0.37 0.16,0.47 -0.32,0.11 -0.49,-0.36 -0.16,-0.47zm-1.26 0.24c-0.15,-0.13 0.06,-0.22 0.14,-0.26 0.47,-0.27 0.36,-0.31 0.69,0.01 0.24,0.23 0.23,0.28 0.23,0.62 -0,0.16 0.06,0.18 0.21,0.37 0.05,0.06 0.07,0.14 -0.01,0.18 -0.1,0.05 -0.15,-0.04 -0.19,-0.08 -0.32,-0.34 -0.2,-0.19 -0.3,-0.54l-0.44 0.07c0.02,0.08 0.12,0.2 0.16,0.28 0.05,0.1 0.02,0.25 0.02,0.37 -0,0.11 0.02,0.3 -0.07,0.34 -0.05,0.02 -0.12,0.02 -0.16,-0.02 -0.04,-0.04 -0.03,-0.1 -0.04,-0.16 -0.01,-0.48 0.04,-0.32 -0.23,-0.61 -0.2,-0.21 -0.17,-0.37 0.04,-0.53l-0.04 -0.04zm-0.15 -0.42c0.02,-0.08 0,-0.22 0.05,-0.27 0.05,0.02 0.14,0.15 0.19,0.2 0.08,-0.02 0.12,-0.08 0.2,-0.09 0,0.06 0.02,0.12 -0.02,0.15 -0.03,0.03 -0.04,0.01 -0.05,0.01 -0.12,-0.05 0.03,-0.03 -0.04,-0.03l-0.12 0.06c-0.05,-0.03 -0.08,-0.08 -0.11,-0.13 -0,0 -0.01,0.01 -0.01,0.01 -0.03,0.05 -0.01,-0.01 -0.03,0.08 -0,0.03 -0.01,0.05 -0.01,0.09l-0.15 0.02 0.09 0.12c-0.02,0.05 -0.05,0.08 -0.08,0.13 0,0 0.01,0 0.01,0l0.04 0.01c0.03,0.01 0.04,0.02 0.05,0.08l-0.22 -0c-0.02,-0.07 0.08,-0.16 0.1,-0.22 -0.03,-0.04 -0.05,-0.06 -0.07,-0.09 -0.04,-0.05 -0.05,-0.04 -0.05,-0.1l0.2 -0.02zm-0.76 0.88c0.07,0.75 0.73,1.38 1.56,1.3 0.74,-0.07 1.36,-0.73 1.3,-1.56 -0.06,-0.76 -0.73,-1.38 -1.57,-1.3 -0.74,0.07 -1.36,0.74 -1.29,1.56z"/>
 </g>
</svg>
