<?xml version="1.0" encoding="UTF-8"?>
<!DOCTYPE svg PUBLIC "-//W3C//DTD SVG 1.1//EN" "http://www.w3.org/Graphics/SVG/1.1/DTD/svg11.dtd">
<!-- Creator: CorelDRAW 2021 (64 Bit) -->
<svg xmlns="http://www.w3.org/2000/svg" xml:space="preserve" width="68.3657mm" height="13.716mm" version="1.1" style="shape-rendering:geometricPrecision; text-rendering:geometricPrecision; image-rendering:optimizeQuality; fill-rule:evenodd; clip-rule:evenodd"
viewBox="0 0 50.88 10.21"
 xmlns:xlink="http://www.w3.org/1999/xlink"
 xmlns:xodm="http://www.corel.com/coreldraw/odm/2003">
 <defs>
  <style type="text/css">
   <![CDATA[
    .fil0 {fill:white;fill-rule:nonzero}
   ]]>
  </style>
 </defs>
 <g id="Layer_x0020_1">
  <metadata id="CorelCorpID_0Corel-Layer"/>
  <path class="fil0" d="M4.15 5.1l0 1.06 -4.15 0 0 -6.06 4.15 0 0 1.06 -2.79 0 0 1.4 2.38 0 0 1.06 -2.38 0 0 1.49 2.79 0zm0.78 0.81l0.24 -1.04c0.63,0.22 1.22,0.33 1.75,0.33 0.74,0 1.1,-0.23 1.1,-0.69 0,-0.25 -0.1,-0.44 -0.29,-0.56 -0.18,-0.12 -0.52,-0.25 -1.01,-0.4 -0.59,-0.18 -1.04,-0.41 -1.34,-0.68 -0.3,-0.27 -0.46,-0.64 -0.46,-1.12 0,-0.56 0.2,-0.99 0.6,-1.29 0.41,-0.31 0.97,-0.46 1.69,-0.46 0.68,0 1.28,0.1 1.79,0.31l-0.27 1.03c-0.5,-0.18 -0.97,-0.27 -1.44,-0.27 -0.67,0 -1,0.21 -1,0.63 0,0.22 0.08,0.38 0.23,0.49 0.15,0.11 0.43,0.23 0.85,0.36 0.32,0.1 0.59,0.2 0.8,0.29 0.21,0.09 0.42,0.2 0.62,0.36 0.2,0.15 0.35,0.33 0.45,0.54 0.1,0.21 0.14,0.46 0.14,0.74 0,0.56 -0.22,1 -0.66,1.31 -0.44,0.31 -1.02,0.47 -1.75,0.47 -0.8,0 -1.48,-0.12 -2.06,-0.36zm5.44 0.25l0.01 -6.07 2.03 0c0.83,0 1.48,0.18 1.96,0.55 0.48,0.36 0.71,0.88 0.71,1.54 0,0.67 -0.24,1.18 -0.71,1.53 -0.48,0.36 -1.14,0.54 -1.97,0.54l-0.67 0 0 1.91 -1.36 0zm2.99 -3.2c0.22,-0.16 0.33,-0.42 0.33,-0.79 0,-0.37 -0.11,-0.63 -0.33,-0.79 -0.22,-0.16 -0.54,-0.23 -0.97,-0.23l-0.64 0 0 2.04 0.64 0c0.43,0 0.76,-0.08 0.97,-0.23zm4.74 -1.54c-0.22,0.43 -0.51,1.21 -0.89,2.36l1.78 0c-0.38,-1.17 -0.68,-1.95 -0.89,-2.36zm1.63 4.75l-0.4 -1.32 -2.46 0c-0.14,0.42 -0.27,0.87 -0.4,1.33l-1.4 0c0.76,-2.53 1.53,-4.55 2.31,-6.06l1.42 0c0.8,1.54 1.57,3.55 2.32,6.05l-1.4 0zm3.83 1.97l0.15 -0.61c0.15,0.03 0.3,0.05 0.45,0.05 0.32,0 0.48,-0.09 0.48,-0.27 0,-0.18 -0.18,-0.27 -0.54,-0.29l-0.14 -0.35 0.16 -0.42c-0.78,-0.13 -1.38,-0.46 -1.8,-1 -0.42,-0.54 -0.63,-1.22 -0.63,-2.05 0,-0.96 0.28,-1.73 0.83,-2.31 0.55,-0.58 1.34,-0.87 2.37,-0.87 0.54,0 1.08,0.1 1.61,0.31l-0.3 1.05c-0.55,-0.18 -0.98,-0.27 -1.28,-0.27 -1.19,0 -1.79,0.69 -1.79,2.08 0,1.34 0.59,2.01 1.78,2.01 0.44,0 0.91,-0.11 1.4,-0.34l0.27 1.07c-0.5,0.24 -1.06,0.36 -1.68,0.36l-0.12 0.28c0.27,0.02 0.49,0.1 0.66,0.23 0.16,0.12 0.25,0.29 0.25,0.52 0,0.3 -0.13,0.53 -0.4,0.68 -0.27,0.15 -0.61,0.23 -1.01,0.23 -0.25,0 -0.48,-0.03 -0.69,-0.08zm9.72 -5l-0.01 0.02c0,0.94 -0.27,1.7 -0.8,2.27 -0.53,0.57 -1.27,0.86 -2.21,0.86 -0.94,0 -1.68,-0.29 -2.21,-0.86 -0.53,-0.57 -0.8,-1.33 -0.8,-2.28 0,-0.95 0.27,-1.71 0.8,-2.28 0.53,-0.57 1.27,-0.86 2.22,-0.86 0.94,0 1.68,0.29 2.21,0.86 0.53,0.57 0.8,1.33 0.8,2.27zm-4.22 -1.48c-0.27,0.36 -0.41,0.86 -0.41,1.5 0,0.64 0.14,1.14 0.41,1.5 0.27,0.36 0.67,0.55 1.2,0.55 0.53,0 0.93,-0.18 1.2,-0.55 0.27,-0.36 0.41,-0.86 0.41,-1.5 0,-0.64 -0.14,-1.14 -0.41,-1.5 -0.27,-0.36 -0.67,-0.55 -1.2,-0.55 -0.53,0 -0.93,0.18 -1.2,0.55z"/>
  <path class="fil0" d="M5.66 9.92l0 -1.57 0.92 1.19 0.92 -1.19 0 1.57 -0.27 0 0 -0.81 -0.65 0.84 -0.65 -0.84 0 0.81 -0.27 0zm3.35 -1.57c0.24,0 0.44,0.08 0.61,0.23 0.17,0.16 0.25,0.34 0.25,0.57 0,0.22 -0.08,0.41 -0.25,0.57 -0.17,0.16 -0.37,0.23 -0.61,0.23 -0.24,0 -0.44,-0.08 -0.61,-0.23 -0.17,-0.16 -0.25,-0.34 -0.25,-0.57 0,-0.22 0.08,-0.41 0.25,-0.57 0.17,-0.16 0.37,-0.23 0.61,-0.23zm0.42 0.4c-0.11,-0.11 -0.25,-0.16 -0.42,-0.16 -0.17,0 -0.31,0.05 -0.42,0.16 -0.11,0.11 -0.17,0.24 -0.17,0.4 0,0.16 0.06,0.29 0.17,0.4 0.11,0.11 0.25,0.16 0.42,0.16 0.17,0 0.31,-0.05 0.42,-0.16 0.11,-0.11 0.17,-0.24 0.17,-0.4 0,-0.16 -0.06,-0.29 -0.17,-0.4zm1.28 -0.37l0.48 0.98 0.48 -0.98 0.29 0 -0.77 1.57 -0.77 -1.57 0.29 0zm2.2 0l0 1.54 -0.27 0 0 -1.54 0.27 0zm0.8 1.54l0 -1.57 0.92 1.19 0.92 -1.19 0 1.57 -0.27 0 0 -0.81 -0.65 0.84 -0.65 -0.84 0 0.81 -0.27 0zm2.81 -0.89l0.57 0 0 0.24 -0.57 0 0 0.4 0.71 0 0 0.24 -0.97 0 0 -1.54 0.97 0 0 0.24 -0.71 0 0 0.41zm1.37 0.89l0 -1.55 1.18 1.02 0 -1 0.27 0 0 1.57 -1.18 -1.02 0 0.99 -0.27 0zm2.05 -1.54l1.18 0 0 0.24 -0.46 0 0 1.29 -0.27 0 0 -1.29 -0.46 0 0 -0.24zm2.46 -0.03c0.24,0 0.44,0.08 0.61,0.23 0.17,0.16 0.25,0.34 0.25,0.57 0,0.22 -0.08,0.41 -0.25,0.57 -0.17,0.16 -0.37,0.23 -0.61,0.23 -0.24,0 -0.44,-0.08 -0.61,-0.23 -0.17,-0.16 -0.25,-0.34 -0.25,-0.57 0,-0.22 0.08,-0.41 0.25,-0.57 0.17,-0.16 0.37,-0.23 0.61,-0.23zm0.42 0.4c-0.11,-0.11 -0.25,-0.16 -0.42,-0.16 -0.17,0 -0.31,0.05 -0.42,0.16 -0.11,0.11 -0.17,0.24 -0.17,0.4 0,0.16 0.06,0.29 0.17,0.4 0.11,0.11 0.25,0.16 0.42,0.16 0.17,0 0.31,-0.05 0.42,-0.16 0.11,-0.11 0.17,-0.24 0.17,-0.4 0,-0.16 -0.06,-0.29 -0.17,-0.4zm1.37 0.92l0 0.24 -0.27 0 0 -0.24 0.27 0zm0 0.24l-0.13 0.28 -0.14 0 0.13 -0.28 0.14 0zm1.56 -0.38c0.01,0.04 0.04,0.08 0.09,0.12 0.05,0.04 0.11,0.05 0.18,0.05 0.07,0 0.14,-0.02 0.19,-0.07 0.05,-0.04 0.08,-0.09 0.08,-0.15 0,-0.07 -0.03,-0.13 -0.08,-0.16 -0.03,-0.02 -0.1,-0.04 -0.19,-0.06 -0.16,-0.03 -0.27,-0.07 -0.33,-0.12 -0.1,-0.07 -0.15,-0.19 -0.15,-0.34 0,-0.13 0.05,-0.24 0.15,-0.33 0.1,-0.09 0.22,-0.14 0.36,-0.14 0.1,0 0.18,0.02 0.27,0.07 0.08,0.05 0.14,0.11 0.19,0.18l-0.24 0.11c-0.02,-0.04 -0.05,-0.07 -0.09,-0.09 -0.04,-0.02 -0.08,-0.03 -0.13,-0.03 -0.07,0 -0.12,0.02 -0.17,0.06 -0.05,0.04 -0.07,0.09 -0.07,0.16 0,0.07 0.03,0.13 0.09,0.16 0.03,0.02 0.1,0.04 0.19,0.06 0.16,0.03 0.27,0.07 0.33,0.12 0.1,0.07 0.15,0.19 0.15,0.34 0,0.13 -0.05,0.23 -0.16,0.33 -0.11,0.09 -0.23,0.14 -0.37,0.14 -0.12,0 -0.23,-0.03 -0.33,-0.1 -0.1,-0.07 -0.17,-0.16 -0.19,-0.26l0.26 -0.05zm2.26 -0.13l-0.21 -0.44 -0.21 0.44 0.41 0zm-0.52 0.23l-0.13 0.28 -0.29 0 0.73 -1.57 0.73 1.57 -0.29 0 -0.13 -0.28 -0.62 0zm2.94 -1.25l0 0.98c0,0.16 -0.06,0.3 -0.19,0.42 -0.13,0.12 -0.28,0.17 -0.46,0.17 -0.18,0 -0.33,-0.06 -0.46,-0.17 -0.13,-0.12 -0.19,-0.25 -0.19,-0.42l0 -0.98 0.27 0 0 0.98c0,0.1 0.04,0.18 0.11,0.25 0.08,0.07 0.17,0.1 0.27,0.1 0.1,0 0.2,-0.03 0.27,-0.1 0.08,-0.07 0.11,-0.15 0.11,-0.25l0 -0.98 0.27 0zm-0.8 -0.12l0.19 -0.31 0.28 0 -0.24 0.31 -0.23 0zm1.97 0.12c0.23,0 0.43,0.08 0.6,0.23 0.17,0.15 0.25,0.33 0.25,0.54 0,0.21 -0.08,0.39 -0.25,0.54 -0.17,0.15 -0.36,0.23 -0.6,0.23l-0.45 0 0 -1.54 0.45 0zm-0.19 0.24l0 1.05 0.19 0c0.16,0 0.3,-0.05 0.41,-0.15 0.11,-0.1 0.17,-0.23 0.17,-0.37 0,-0.14 -0.06,-0.27 -0.17,-0.37 -0.11,-0.1 -0.25,-0.15 -0.41,-0.15l-0.19 0zm1.96 0.4l0.57 0 0 0.24 -0.57 0 0 0.4 0.71 0 0 0.24 -0.97 0 0 -1.54 0.97 0 0 0.24 -0.71 0 0 0.41zm2.27 0l0.57 0 0 0.24 -0.57 0 0 0.4 0.71 0 0 0.24 -0.97 0 0 -1.54 0.97 0 0 0.24 -0.71 0 0 0.41zm3.2 -0.31c-0.06,-0.04 -0.11,-0.07 -0.17,-0.09 -0.06,-0.02 -0.13,-0.03 -0.2,-0.03 -0.17,0 -0.31,0.05 -0.42,0.16 -0.12,0.11 -0.17,0.24 -0.17,0.4 0,0.16 0.06,0.29 0.17,0.4 0.12,0.11 0.26,0.16 0.42,0.16 0.07,0 0.14,-0.01 0.2,-0.03 0.06,-0.02 0.12,-0.05 0.17,-0.09l0.17 0.19c-0.08,0.06 -0.16,0.1 -0.25,0.13 -0.09,0.03 -0.19,0.05 -0.3,0.05 -0.24,0 -0.45,-0.08 -0.61,-0.23 -0.17,-0.16 -0.25,-0.34 -0.25,-0.57 0,-0.22 0.08,-0.41 0.25,-0.57 0.17,-0.16 0.37,-0.23 0.61,-0.23 0.1,0 0.2,0.02 0.3,0.05 0.09,0.03 0.17,0.07 0.25,0.13l-0.17 0.19zm2.13 -0.34l0 0.98c0,0.16 -0.06,0.3 -0.19,0.42 -0.13,0.12 -0.28,0.17 -0.46,0.17 -0.18,0 -0.33,-0.06 -0.46,-0.17 -0.13,-0.12 -0.19,-0.25 -0.19,-0.42l0 -0.98 0.27 0 0 0.98c0,0.1 0.04,0.18 0.11,0.25 0.08,0.07 0.17,0.1 0.27,0.1 0.1,0 0.2,-0.03 0.27,-0.1 0.08,-0.07 0.11,-0.15 0.11,-0.25l0 -0.98 0.27 0zm1.06 0l0 1.54 -0.27 0 0 -1.54 0.27 0zm1.25 0c0.23,0 0.43,0.08 0.6,0.23 0.17,0.15 0.25,0.33 0.25,0.54 0,0.21 -0.08,0.39 -0.25,0.54 -0.17,0.15 -0.36,0.23 -0.6,0.23l-0.45 0 0 -1.54 0.45 0zm-0.19 0.24l0 1.05 0.19 0c0.16,0 0.3,-0.05 0.41,-0.15 0.11,-0.1 0.17,-0.23 0.17,-0.37 0,-0.14 -0.06,-0.27 -0.17,-0.37 -0.11,-0.1 -0.25,-0.15 -0.41,-0.15l-0.19 0zm2.46 0.78l-0.21 -0.44 -0.21 0.44 0.41 0zm-0.52 0.23l-0.13 0.28 -0.29 0 0.73 -1.57 0.73 1.57 -0.29 0 -0.13 -0.28 -0.62 0zm2.1 -1.25c0.23,0 0.43,0.08 0.6,0.23 0.17,0.15 0.25,0.33 0.25,0.54 0,0.21 -0.08,0.39 -0.25,0.54 -0.17,0.15 -0.36,0.23 -0.6,0.23l-0.45 0 0 -1.54 0.45 0zm-0.19 0.24l0 1.05 0.19 0c0.16,0 0.3,-0.05 0.41,-0.15 0.11,-0.1 0.17,-0.23 0.17,-0.37 0,-0.14 -0.06,-0.27 -0.17,-0.37 -0.11,-0.1 -0.25,-0.15 -0.41,-0.15l-0.19 0zm2.51 -0.28c0.24,0 0.44,0.08 0.61,0.23 0.17,0.16 0.25,0.34 0.25,0.57 0,0.22 -0.08,0.41 -0.25,0.57 -0.17,0.16 -0.37,0.23 -0.61,0.23 -0.24,0 -0.44,-0.08 -0.61,-0.23 -0.17,-0.16 -0.25,-0.34 -0.25,-0.57 0,-0.22 0.08,-0.41 0.25,-0.57 0.17,-0.16 0.37,-0.23 0.61,-0.23zm0.42 0.4c-0.11,-0.11 -0.25,-0.16 -0.42,-0.16 -0.17,0 -0.31,0.05 -0.42,0.16 -0.11,0.11 -0.17,0.24 -0.17,0.4 0,0.16 0.06,0.29 0.17,0.4 0.11,0.11 0.25,0.16 0.42,0.16 0.17,0 0.31,-0.05 0.42,-0.16 0.11,-0.11 0.17,-0.24 0.17,-0.4 0,-0.16 -0.06,-0.29 -0.17,-0.4z"/>
  <g id="_1367707257408">
   <polygon class="fil0" points="36.46,0.07 36.46,5.53 39.37,5.53 39.37,6.18 35.93,6.18 35.93,0.07 "/>
   <path class="fil0" d="M45.05 0l0 3.99c0,0.62 -0.21,1.15 -0.62,1.59 -0.41,0.44 -0.9,0.66 -1.48,0.66 -0.58,0 -1.07,-0.22 -1.48,-0.66 -0.41,-0.44 -0.61,-0.97 -0.61,-1.59l0 -3.99 0.59 0 0 3.99c0,0.44 0.15,0.82 0.44,1.14 0.29,0.31 0.65,0.47 1.06,0.47 0.41,0 0.76,-0.16 1.05,-0.47 0.29,-0.32 0.44,-0.7 0.44,-1.14l0 -3.99 0.6 0z"/>
   <polygon class="fil0" points="46.87,0.07 50.88,0.07 47.62,5.53 50.79,5.53 50.79,6.18 46.61,6.18 49.86,0.71 46.87,0.71 "/>
  </g>
 </g>
</svg>
