<?xml version="1.0" encoding="UTF-8"?>
<!DOCTYPE svg PUBLIC "-//W3C//DTD SVG 1.1//EN" "http://www.w3.org/Graphics/SVG/1.1/DTD/svg11.dtd">
<!-- Creator: CorelDRAW 2021 (64 Bit) -->
<svg xmlns="http://www.w3.org/2000/svg" xml:space="preserve" width="68.3657mm" height="48.2013mm" version="1.1" style="shape-rendering:geometricPrecision; text-rendering:geometricPrecision; image-rendering:optimizeQuality; fill-rule:evenodd; clip-rule:evenodd"
viewBox="0 0 50.88 35.87"
 xmlns:xlink="http://www.w3.org/1999/xlink"
 xmlns:xodm="http://www.corel.com/coreldraw/odm/2003">
 <defs>
  <style type="text/css">
   <![CDATA[
    .fil0 {fill:white}
    .fil1 {fill:white;fill-rule:nonzero}
   ]]>
  </style>
 </defs>
 <g id="Layer_x0020_1">
  <metadata id="CorelCorpID_0Corel-Layer"/>
  <g id="_1366917240688">
   <path class="fil0" d="M22.96 5.18c-0.25,-0.04 -0.28,0.43 0.08,0.51 2.01,0.39 6.62,-1.97 7.46,-3.52 0.69,-1.37 0.19,-2.34 -1.81,-2.14 -2.79,0.35 -5.15,1.84 -7.09,4.44 -0.92,1.2 -0.77,2.27 0.63,3.06 1.42,0.8 2.15,0.81 3.61,1.56 0.62,0.36 0.15,1 -0.89,1.62 -3.58,1.96 -6.61,6.55 -4.62,9.23 0.44,0.59 1.04,1.29 2.08,1.43 0.97,0.13 2.37,-0.13 3.28,-1.15 0.83,-1.18 0.22,-2.06 -0.76,-2.22 -0.75,-0.11 -0.88,0.84 -0.43,0.7 0.73,-0.3 0.95,0.16 0.7,0.72 -0.7,1.33 -2,1.64 -3.32,1.01 -1.12,-0.6 -1.24,-2.13 -0.57,-3.95 0.71,-1.92 1.65,-3.07 5.48,-5.86 1.3,-0.9 1.13,-1.86 -1.89,-2.83 -2.73,-0.88 -3.2,-1.63 -2.15,-3.16 1.99,-2.47 4.1,-3.74 6.35,-3.99 1.19,-0.09 1.19,1.02 -0.31,2.06 -2.51,1.84 -4.45,2.66 -5.81,2.47z"/>
   <path class="fil0" d="M31.05 2.37c2.8,1.77 4.65,4.89 4.65,8.45 0,5.12 -3.85,9.34 -8.82,9.93 -0.26,0.28 -0.59,0.5 -0.98,0.67l-0 0.01c5.77,-0.11 10.41,-4.82 10.41,-10.61 0,-3.79 -1.98,-7.11 -4.97,-8.99 -0.07,0.17 -0.17,0.35 -0.3,0.54z"/>
   <path class="fil0" d="M25.57 0.21c-5.8,0.07 -10.49,4.79 -10.49,10.61 0,3.35 1.55,6.34 3.98,8.28 -0.1,-0.3 -0.15,-0.62 -0.16,-0.95 -1.97,-1.83 -3.2,-4.43 -3.2,-7.33 0,-5.01 3.68,-9.15 8.48,-9.89 0.38,-0.31 0.86,-0.54 1.39,-0.73z"/>
  </g>
  <path class="fil1" d="M4.15 30.76l0 1.06 -4.15 0 0 -6.06 4.15 0 0 1.06 -2.79 0 0 1.4 2.38 0 0 1.06 -2.38 0 0 1.49 2.79 0zm0.78 0.81l0.24 -1.04c0.63,0.22 1.22,0.33 1.75,0.33 0.74,0 1.1,-0.23 1.1,-0.69 0,-0.25 -0.1,-0.44 -0.29,-0.56 -0.18,-0.12 -0.52,-0.25 -1.01,-0.4 -0.59,-0.18 -1.04,-0.41 -1.34,-0.68 -0.3,-0.27 -0.46,-0.64 -0.46,-1.12 0,-0.56 0.2,-0.99 0.6,-1.29 0.41,-0.31 0.97,-0.46 1.69,-0.46 0.68,0 1.28,0.1 1.79,0.31l-0.27 1.03c-0.5,-0.18 -0.97,-0.27 -1.44,-0.27 -0.67,0 -1,0.21 -1,0.63 0,0.22 0.08,0.38 0.23,0.49 0.15,0.11 0.43,0.23 0.85,0.36 0.32,0.1 0.59,0.2 0.8,0.29 0.21,0.09 0.42,0.2 0.62,0.36 0.2,0.15 0.35,0.33 0.45,0.54 0.1,0.21 0.14,0.46 0.14,0.74 0,0.56 -0.22,1 -0.66,1.31 -0.44,0.31 -1.02,0.47 -1.75,0.47 -0.8,0 -1.48,-0.12 -2.06,-0.36zm5.44 0.25l0.01 -6.07 2.03 0c0.83,0 1.48,0.18 1.96,0.55 0.48,0.36 0.71,0.88 0.71,1.54 0,0.67 -0.24,1.18 -0.71,1.53 -0.48,0.36 -1.14,0.54 -1.97,0.54l-0.67 0 0 1.91 -1.36 0zm2.99 -3.2c0.22,-0.16 0.33,-0.42 0.33,-0.79 0,-0.37 -0.11,-0.63 -0.33,-0.79 -0.22,-0.16 -0.54,-0.23 -0.97,-0.23l-0.64 0 0 2.04 0.64 0c0.43,0 0.76,-0.08 0.97,-0.23zm4.74 -1.54c-0.22,0.43 -0.51,1.21 -0.89,2.36l1.78 0c-0.38,-1.17 -0.68,-1.95 -0.89,-2.36zm1.63 4.75l-0.4 -1.32 -2.46 0c-0.14,0.42 -0.27,0.87 -0.4,1.33l-1.4 0c0.76,-2.53 1.53,-4.55 2.31,-6.06l1.42 0c0.8,1.54 1.57,3.55 2.32,6.05l-1.4 0zm3.83 1.97l0.15 -0.61c0.15,0.03 0.3,0.05 0.45,0.05 0.32,0 0.48,-0.09 0.48,-0.27 0,-0.18 -0.18,-0.27 -0.54,-0.29l-0.14 -0.35 0.16 -0.42c-0.78,-0.13 -1.38,-0.46 -1.8,-1 -0.42,-0.54 -0.63,-1.22 -0.63,-2.05 0,-0.96 0.28,-1.73 0.83,-2.31 0.55,-0.58 1.34,-0.87 2.37,-0.87 0.54,0 1.08,0.1 1.61,0.31l-0.3 1.05c-0.55,-0.18 -0.98,-0.27 -1.28,-0.27 -1.19,0 -1.79,0.69 -1.79,2.08 0,1.34 0.59,2.01 1.78,2.01 0.44,0 0.91,-0.11 1.4,-0.34l0.27 1.07c-0.5,0.24 -1.06,0.36 -1.68,0.36l-0.12 0.28c0.27,0.02 0.49,0.1 0.66,0.23 0.16,0.12 0.25,0.29 0.25,0.52 0,0.3 -0.13,0.53 -0.4,0.68 -0.27,0.15 -0.61,0.23 -1.01,0.23 -0.25,0 -0.48,-0.03 -0.69,-0.08zm9.72 -5l-0.01 0.02c0,0.94 -0.27,1.7 -0.8,2.27 -0.53,0.57 -1.27,0.86 -2.21,0.86 -0.94,0 -1.68,-0.29 -2.21,-0.86 -0.53,-0.57 -0.8,-1.33 -0.8,-2.28 0,-0.95 0.27,-1.71 0.8,-2.28 0.53,-0.57 1.27,-0.86 2.22,-0.86 0.94,0 1.68,0.29 2.21,0.86 0.53,0.57 0.8,1.33 0.8,2.27zm-4.22 -1.48c-0.27,0.36 -0.41,0.86 -0.41,1.5 0,0.64 0.14,1.14 0.41,1.5 0.27,0.36 0.67,0.55 1.2,0.55 0.53,0 0.93,-0.18 1.2,-0.55 0.27,-0.36 0.41,-0.86 0.41,-1.5 0,-0.64 -0.14,-1.14 -0.41,-1.5 -0.27,-0.36 -0.67,-0.55 -1.2,-0.55 -0.53,0 -0.93,0.18 -1.2,0.55z"/>
  <path class="fil1" d="M5.66 35.59l0 -1.57 0.92 1.19 0.92 -1.19 0 1.57 -0.27 0 0 -0.81 -0.65 0.84 -0.65 -0.84 0 0.81 -0.27 0zm3.35 -1.57c0.24,0 0.44,0.08 0.61,0.23 0.17,0.16 0.25,0.34 0.25,0.57 0,0.22 -0.08,0.41 -0.25,0.57 -0.17,0.16 -0.37,0.23 -0.61,0.23 -0.24,0 -0.44,-0.08 -0.61,-0.23 -0.17,-0.16 -0.25,-0.34 -0.25,-0.57 0,-0.22 0.08,-0.41 0.25,-0.57 0.17,-0.16 0.37,-0.23 0.61,-0.23zm0.42 0.4c-0.11,-0.11 -0.25,-0.16 -0.42,-0.16 -0.17,0 -0.31,0.05 -0.42,0.16 -0.11,0.11 -0.17,0.24 -0.17,0.4 0,0.16 0.06,0.29 0.17,0.4 0.11,0.11 0.25,0.16 0.42,0.16 0.17,0 0.31,-0.05 0.42,-0.16 0.11,-0.11 0.17,-0.24 0.17,-0.4 0,-0.16 -0.06,-0.29 -0.17,-0.4zm1.28 -0.37l0.48 0.98 0.48 -0.98 0.29 0 -0.77 1.57 -0.77 -1.57 0.29 0zm2.2 0l0 1.54 -0.27 0 0 -1.54 0.27 0zm0.8 1.54l0 -1.57 0.92 1.19 0.92 -1.19 0 1.57 -0.27 0 0 -0.81 -0.65 0.84 -0.65 -0.84 0 0.81 -0.27 0zm2.81 -0.89l0.57 0 0 0.24 -0.57 0 0 0.4 0.71 0 0 0.24 -0.97 0 0 -1.54 0.97 0 0 0.24 -0.71 0 0 0.41zm1.37 0.89l0 -1.55 1.18 1.02 0 -1 0.27 0 0 1.57 -1.18 -1.02 0 0.99 -0.27 0zm2.05 -1.54l1.18 0 0 0.24 -0.46 0 0 1.29 -0.27 0 0 -1.29 -0.46 0 0 -0.24zm2.46 -0.03c0.24,0 0.44,0.08 0.61,0.23 0.17,0.16 0.25,0.34 0.25,0.57 0,0.22 -0.08,0.41 -0.25,0.57 -0.17,0.16 -0.37,0.23 -0.61,0.23 -0.24,0 -0.44,-0.08 -0.61,-0.23 -0.17,-0.16 -0.25,-0.34 -0.25,-0.57 0,-0.22 0.08,-0.41 0.25,-0.57 0.17,-0.16 0.37,-0.23 0.61,-0.23zm0.42 0.4c-0.11,-0.11 -0.25,-0.16 -0.42,-0.16 -0.17,0 -0.31,0.05 -0.42,0.16 -0.11,0.11 -0.17,0.24 -0.17,0.4 0,0.16 0.06,0.29 0.17,0.4 0.11,0.11 0.25,0.16 0.42,0.16 0.17,0 0.31,-0.05 0.42,-0.16 0.11,-0.11 0.17,-0.24 0.17,-0.4 0,-0.16 -0.06,-0.29 -0.17,-0.4zm1.37 0.92l0 0.24 -0.27 0 0 -0.24 0.27 0zm0 0.24l-0.13 0.28 -0.14 0 0.13 -0.28 0.14 0zm1.56 -0.38c0.01,0.04 0.04,0.08 0.09,0.12 0.05,0.04 0.11,0.05 0.18,0.05 0.07,0 0.14,-0.02 0.19,-0.07 0.05,-0.04 0.08,-0.09 0.08,-0.15 0,-0.07 -0.03,-0.13 -0.08,-0.16 -0.03,-0.02 -0.1,-0.04 -0.19,-0.06 -0.16,-0.03 -0.27,-0.07 -0.33,-0.12 -0.1,-0.07 -0.15,-0.19 -0.15,-0.34 0,-0.13 0.05,-0.24 0.15,-0.33 0.1,-0.09 0.22,-0.14 0.36,-0.14 0.1,0 0.18,0.02 0.27,0.07 0.08,0.05 0.14,0.11 0.19,0.18l-0.24 0.11c-0.02,-0.04 -0.05,-0.07 -0.09,-0.09 -0.04,-0.02 -0.08,-0.03 -0.13,-0.03 -0.07,0 -0.12,0.02 -0.17,0.06 -0.05,0.04 -0.07,0.09 -0.07,0.16 0,0.07 0.03,0.13 0.09,0.16 0.03,0.02 0.1,0.04 0.19,0.06 0.16,0.03 0.27,0.07 0.33,0.12 0.1,0.07 0.15,0.19 0.15,0.34 0,0.13 -0.05,0.23 -0.16,0.33 -0.11,0.09 -0.23,0.14 -0.37,0.14 -0.12,0 -0.23,-0.03 -0.33,-0.1 -0.1,-0.07 -0.17,-0.16 -0.19,-0.26l0.26 -0.05zm2.26 -0.13l-0.21 -0.44 -0.21 0.44 0.41 0zm-0.52 0.23l-0.13 0.28 -0.29 0 0.73 -1.57 0.73 1.57 -0.29 0 -0.13 -0.28 -0.62 0zm2.94 -1.25l0 0.98c0,0.16 -0.06,0.3 -0.19,0.42 -0.13,0.12 -0.28,0.17 -0.46,0.17 -0.18,0 -0.33,-0.06 -0.46,-0.17 -0.13,-0.12 -0.19,-0.25 -0.19,-0.42l0 -0.98 0.27 0 0 0.98c0,0.1 0.04,0.18 0.11,0.25 0.08,0.07 0.17,0.1 0.27,0.1 0.1,0 0.2,-0.03 0.27,-0.1 0.08,-0.07 0.11,-0.15 0.11,-0.25l0 -0.98 0.27 0zm-0.8 -0.12l0.19 -0.31 0.28 0 -0.24 0.31 -0.23 0zm1.97 0.12c0.23,0 0.43,0.08 0.6,0.23 0.17,0.15 0.25,0.33 0.25,0.54 0,0.21 -0.08,0.39 -0.25,0.54 -0.17,0.15 -0.36,0.23 -0.6,0.23l-0.45 0 0 -1.54 0.45 0zm-0.19 0.24l0 1.05 0.19 0c0.16,0 0.3,-0.05 0.41,-0.15 0.11,-0.1 0.17,-0.23 0.17,-0.37 0,-0.14 -0.06,-0.27 -0.17,-0.37 -0.11,-0.1 -0.25,-0.15 -0.41,-0.15l-0.19 0zm1.96 0.4l0.57 0 0 0.24 -0.57 0 0 0.4 0.71 0 0 0.24 -0.97 0 0 -1.54 0.97 0 0 0.24 -0.71 0 0 0.41zm2.27 0l0.57 0 0 0.24 -0.57 0 0 0.4 0.71 0 0 0.24 -0.97 0 0 -1.54 0.97 0 0 0.24 -0.71 0 0 0.41zm3.2 -0.31c-0.06,-0.04 -0.11,-0.07 -0.17,-0.09 -0.06,-0.02 -0.13,-0.03 -0.2,-0.03 -0.17,0 -0.31,0.05 -0.42,0.16 -0.12,0.11 -0.17,0.24 -0.17,0.4 0,0.16 0.06,0.29 0.17,0.4 0.12,0.11 0.26,0.16 0.42,0.16 0.07,0 0.14,-0.01 0.2,-0.03 0.06,-0.02 0.12,-0.05 0.17,-0.09l0.17 0.19c-0.08,0.06 -0.16,0.1 -0.25,0.13 -0.09,0.03 -0.19,0.05 -0.3,0.05 -0.24,0 -0.45,-0.08 -0.61,-0.23 -0.17,-0.16 -0.25,-0.34 -0.25,-0.57 0,-0.22 0.08,-0.41 0.25,-0.57 0.17,-0.16 0.37,-0.23 0.61,-0.23 0.1,0 0.2,0.02 0.3,0.05 0.09,0.03 0.17,0.07 0.25,0.13l-0.17 0.19zm2.13 -0.34l0 0.98c0,0.16 -0.06,0.3 -0.19,0.42 -0.13,0.12 -0.28,0.17 -0.46,0.17 -0.18,0 -0.33,-0.06 -0.46,-0.17 -0.13,-0.12 -0.19,-0.25 -0.19,-0.42l0 -0.98 0.27 0 0 0.98c0,0.1 0.04,0.18 0.11,0.25 0.08,0.07 0.17,0.1 0.27,0.1 0.1,0 0.2,-0.03 0.27,-0.1 0.08,-0.07 0.11,-0.15 0.11,-0.25l0 -0.98 0.27 0zm1.06 0l0 1.54 -0.27 0 0 -1.54 0.27 0zm1.25 0c0.23,0 0.43,0.08 0.6,0.23 0.17,0.15 0.25,0.33 0.25,0.54 0,0.21 -0.08,0.39 -0.25,0.54 -0.17,0.15 -0.36,0.23 -0.6,0.23l-0.45 0 0 -1.54 0.45 0zm-0.19 0.24l0 1.05 0.19 0c0.16,0 0.3,-0.05 0.41,-0.15 0.11,-0.1 0.17,-0.23 0.17,-0.37 0,-0.14 -0.06,-0.27 -0.17,-0.37 -0.11,-0.1 -0.25,-0.15 -0.41,-0.15l-0.19 0zm2.46 0.78l-0.21 -0.44 -0.21 0.44 0.41 0zm-0.52 0.23l-0.13 0.28 -0.29 0 0.73 -1.57 0.73 1.57 -0.29 0 -0.13 -0.28 -0.62 0zm2.1 -1.25c0.23,0 0.43,0.08 0.6,0.23 0.17,0.15 0.25,0.33 0.25,0.54 0,0.21 -0.08,0.39 -0.25,0.54 -0.17,0.15 -0.36,0.23 -0.6,0.23l-0.45 0 0 -1.54 0.45 0zm-0.19 0.24l0 1.05 0.19 0c0.16,0 0.3,-0.05 0.41,-0.15 0.11,-0.1 0.17,-0.23 0.17,-0.37 0,-0.14 -0.06,-0.27 -0.17,-0.37 -0.11,-0.1 -0.25,-0.15 -0.41,-0.15l-0.19 0zm2.51 -0.28c0.24,0 0.44,0.08 0.61,0.23 0.17,0.16 0.25,0.34 0.25,0.57 0,0.22 -0.08,0.41 -0.25,0.57 -0.17,0.16 -0.37,0.23 -0.61,0.23 -0.24,0 -0.44,-0.08 -0.61,-0.23 -0.17,-0.16 -0.25,-0.34 -0.25,-0.57 0,-0.22 0.08,-0.41 0.25,-0.57 0.17,-0.16 0.37,-0.23 0.61,-0.23zm0.42 0.4c-0.11,-0.11 -0.25,-0.16 -0.42,-0.16 -0.17,0 -0.31,0.05 -0.42,0.16 -0.11,0.11 -0.17,0.24 -0.17,0.4 0,0.16 0.06,0.29 0.17,0.4 0.11,0.11 0.25,0.16 0.42,0.16 0.17,0 0.31,-0.05 0.42,-0.16 0.11,-0.11 0.17,-0.24 0.17,-0.4 0,-0.16 -0.06,-0.29 -0.17,-0.4z"/>
  <g id="_1366917240064">
   <polygon class="fil1" points="36.46,25.73 36.46,31.2 39.37,31.2 39.37,31.84 35.93,31.84 35.93,25.73 "/>
   <path class="fil1" d="M45.05 25.66l0 3.99c0,0.62 -0.21,1.15 -0.62,1.59 -0.41,0.44 -0.9,0.66 -1.48,0.66 -0.58,0 -1.07,-0.22 -1.48,-0.66 -0.41,-0.44 -0.61,-0.97 -0.61,-1.59l0 -3.99 0.59 0 0 3.99c0,0.44 0.15,0.82 0.44,1.14 0.29,0.31 0.65,0.47 1.06,0.47 0.41,0 0.76,-0.16 1.05,-0.47 0.29,-0.32 0.44,-0.7 0.44,-1.14l0 -3.99 0.6 0z"/>
   <polygon class="fil1" points="46.87,25.73 50.88,25.73 47.62,31.2 50.79,31.2 50.79,31.84 46.61,31.84 49.86,26.38 46.87,26.38 "/>
  </g>
 </g>
</svg>
