<?xml version="1.0" encoding="UTF-8"?>
<!DOCTYPE svg PUBLIC "-//W3C//DTD SVG 1.1//EN" "http://www.w3.org/Graphics/SVG/1.1/DTD/svg11.dtd">
<!-- Creator: CorelDRAW 2021 (64 Bit) -->
<svg xmlns="http://www.w3.org/2000/svg" xml:space="preserve" width="68.7187mm" height="84.1335mm" version="1.1" style="shape-rendering:geometricPrecision; text-rendering:geometricPrecision; image-rendering:optimizeQuality; fill-rule:evenodd; clip-rule:evenodd"
viewBox="0 0 4129.94 5056.35"
 xmlns:xlink="http://www.w3.org/1999/xlink"
 xmlns:xodm="http://www.corel.com/coreldraw/odm/2003">
 <defs>
  <style type="text/css">
   <![CDATA[
    .fil0 {fill:black}
   ]]>
  </style>
 </defs>
 <g id="Camada_x0020_1">
  <metadata id="CorelCorpID_0Corel-Layer"/>
  <g id="_2629896669760">
   <path class="fil0" d="M225.32 1602.97l0 2560.45c0,483.55 409.38,892.94 892.93,892.94l1893.44 0c483.55,0 892.94,-409.39 892.94,-892.94l0 -2560.45c0,-278.58 -465.28,-331.44 -462.87,32.01l0.34 2453.21c1.56,300.56 -165.16,505.56 -473.43,505.56l-1807.38 0c-161.58,0 -264.45,-53.93 -347.16,-136.95 -87.59,-87.93 -127.16,-196.06 -126.27,-368.61l0.22 -2442.33c2.72,-386.12 -462.75,-314.49 -462.75,-42.89z"/>
   <path class="fil0" d="M1613.12 462.6l903.69 0 0 225.92 -903.69 0 0 -225.92zm-473.36 -204.4l0 430.33 -914.44 0c-303.15,0 -294.11,462.6 -10.76,462.6l3700.82 0c283.34,0 292.39,-462.6 -10.75,-462.6l-914.45 0 0 -430.33c0,-147.98 -99.08,-258.2 -247.43,-258.2l-1355.54 0c-148.36,0 -247.44,110.22 -247.44,258.2z"/>
   <path class="fil0" d="M2290.89 2065.57l0 1613.73c0,303.15 462.6,294.1 462.6,10.76l0 -1635.24c0,-283.34 -462.6,-292.39 -462.6,10.76z"/>
   <path class="fil0" d="M1376.45 2054.81l0 1635.24c0,285.12 462.6,290.28 462.6,-10.76l0 -1613.73c0,-303.15 -462.6,-294.1 -462.6,-10.76z"/>
  </g>
 </g>
</svg>
