<?xml version="1.0" encoding="UTF-8"?>
<!DOCTYPE svg PUBLIC "-//W3C//DTD SVG 1.1//EN" "http://www.w3.org/Graphics/SVG/1.1/DTD/svg11.dtd">
<!-- Creator: CorelDRAW 2021 (64 Bit) -->
<svg xmlns="http://www.w3.org/2000/svg" xml:space="preserve" width="79.6609mm" height="15.9796mm" version="1.1" style="shape-rendering:geometricPrecision; text-rendering:geometricPrecision; image-rendering:optimizeQuality; fill-rule:evenodd; clip-rule:evenodd"
viewBox="0 0 44.9 9.01"
 xmlns:xlink="http://www.w3.org/1999/xlink"
 xmlns:xodm="http://www.corel.com/coreldraw/odm/2003">
 <defs>
  <style type="text/css">
   <![CDATA[
    .fil0 {fill:white}
    .fil1 {fill:white;fill-rule:nonzero}
   ]]>
  </style>
 </defs>
 <g id="Layer_x0020_1">
  <metadata id="CorelCorpID_0Corel-Layer"/>
  <g id="_1367625192592">
   <path class="fil0" d="M19.88 3.87c0.02,0.21 0.16,0.34 0.32,0.41 0.57,0.24 1.26,0.31 1.89,0.26 0.4,-0.03 0.85,-0.12 1.18,-0.28 0.16,-0.07 0.29,-0.2 0.29,-0.43 0.01,-0.23 -0.07,-0.41 -0.18,-0.55 -0.19,-0.25 -0.59,-0.51 -0.89,-0.57 -0.08,-0.02 -0.15,0.14 -0.48,0.24 -0.2,0.06 -0.44,0.05 -0.64,-0.01 -0.38,-0.12 -0.33,-0.26 -0.48,-0.22 -0.48,0.15 -1.08,0.52 -1.03,1.15zm0.13 -2.79c-0.26,0.05 -0.49,0.31 -0.42,0.63 0.05,0.26 0.31,0.48 0.63,0.42 0.26,-0.05 0.48,-0.31 0.42,-0.63 -0.05,-0.26 -0.31,-0.49 -0.63,-0.42zm3.2 0c-0.71,0.17 -0.46,1.18 0.22,1.05 0.25,-0.05 0.49,-0.31 0.41,-0.64 -0.06,-0.25 -0.31,-0.48 -0.63,-0.41zm-3.46 2.23c0.03,-0.04 0.06,-0.1 0.09,-0.15 0.21,-0.3 0.61,-0.57 0.96,-0.66 -0.02,-0.05 -0.06,-0.1 -0.08,-0.15 -0.06,-0.12 -0.04,-0.21 -0.16,-0.12 -0.08,0.06 -0.15,0.1 -0.25,0.12 -0.15,0.04 -0.31,0.03 -0.45,-0.02 -0.29,-0.1 -0.17,-0.18 -0.34,-0.12 -0.14,0.05 -0.22,0.1 -0.32,0.18 -0.21,0.16 -0.36,0.47 -0.21,0.68 0.09,0.12 0.55,0.24 0.77,0.25zm4.76 -0.43c-0,-0.26 -0.16,-0.41 -0.3,-0.51 -0.07,-0.06 -0.17,-0.1 -0.27,-0.14 -0.06,-0.02 -0.1,-0.05 -0.15,-0.02 -0.23,0.18 -0.52,0.22 -0.8,0.09 -0.16,-0.08 -0.2,-0.18 -0.25,-0.07 -0.07,0.17 -0.1,0.21 -0.13,0.27 0.23,0.06 0.59,0.26 0.75,0.42 0.04,0.04 0.07,0.07 0.11,0.11 0.04,0.04 0.07,0.09 0.1,0.13 0.03,0.05 0.06,0.1 0.09,0.14 0.15,-0 0.39,-0.07 0.52,-0.12 0.17,-0.06 0.3,-0.11 0.3,-0.32zm-3.65 -0.92c0.03,0.45 0.43,0.83 0.92,0.79 0.45,-0.03 0.83,-0.43 0.8,-0.92 -0.03,-0.46 -0.43,-0.83 -0.93,-0.8 -0.45,0.03 -0.83,0.43 -0.79,0.93z"/>
   <path class="fil0" d="M41.64 2.8c0.41,-0.09 0.65,0.68 -0.06,0.69 -0.85,0.01 -0.24,-0.63 0.06,-0.69zm-3.52 0c0.33,-0.07 0.93,0.64 0.33,0.69 -0.26,0.02 -0.5,0.01 -0.58,-0.2 -0.11,-0.26 0.03,-0.44 0.26,-0.49zm0.42 -0.53c0.04,-0.21 0.25,-0.68 0.37,-0.77 0.25,-0.16 0.68,-0.11 1.03,-0.11 0.35,0 0.78,-0.05 1.02,0.12 0.11,0.08 0.32,0.57 0.37,0.76l-2.79 -0zm-1.4 -0.27l0 0.09c0.15,0.27 -0.09,0.35 0.4,0.34 -0.26,0.42 -0.22,0.27 -0.23,0.91 -0,0.2 0,0.32 0.1,0.47 0.28,0.47 -0.29,1.06 0.65,1.06 0.51,0 0.48,-0.23 0.47,-0.7l2.8 -0c-0.01,0.45 -0.04,0.7 0.45,0.7 0.48,0 0.6,-0.05 0.6,-0.54 -0,-0.24 -0.03,-0.34 0.07,-0.5 0.13,-0.21 0.14,-0.77 0.09,-1.02 -0.05,-0.21 -0.13,-0.26 -0.21,-0.38 0.49,0.01 0.25,-0.07 0.4,-0.34l0 -0.09c-0.11,-0.11 -0.13,-0.08 -0.32,-0.08 -0.54,0 -0.44,0.07 -0.57,-0.28 -0.39,-0.99 -0.85,-0.94 -1.91,-0.94 -0.55,0 -1.01,-0.06 -1.4,0.23 -0.36,0.28 -0.39,0.47 -0.55,0.87 -0.04,0.09 -0.01,0.08 -0.09,0.12 -0.21,0.05 -0.57,-0.09 -0.74,0.08z"/>
   <path class="fil0" d="M2.46 5.59c0.1,-0.04 0.01,0 0.1,-0.05l0.45 -0.3c0.63,-0.42 0.38,-0.41 1.01,0.01l0.39 0.26c0.01,0.01 0.05,0.04 0.06,0.04 0.07,0.04 -0.02,0 0.08,0.04l-0.2 -1.3 -0.14 -0.02c-0.3,-0.01 -0.58,-0.24 -0.72,-0.23 -0.24,0.01 -0.36,0.28 -0.87,0.21l-0.17 1.34zm0.01 -3.52c0.12,1.33 2.19,1.21 2.09,-0.19 -0.04,-0.55 -0.54,-1.02 -1.16,-0.96 -0.55,0.06 -0.98,0.54 -0.93,1.15zm-0.35 0.02c-0.06,-0.82 0.53,-1.45 1.26,-1.52 0.81,-0.08 1.48,0.55 1.53,1.28 0.06,0.8 -0.55,1.44 -1.26,1.5 -0.8,0.07 -1.48,-0.54 -1.53,-1.26zm2.16 -2.09l-0.16 0 -0.15 0.09c-0.14,0.07 -0.32,0.17 -0.46,0.16l-0.59 -0.24 -0.16 0c-0.26,0.19 -0.2,0.1 -0.37,0.6 -0.09,0.27 -0.19,0.26 -0.58,0.39 -0.33,0.11 -0.27,0.3 -0.12,0.61 0.18,0.36 0.19,0.35 0.02,0.7 -0.12,0.25 -0.25,0.48 0.09,0.61 0.25,0.1 0.52,0.15 0.61,0.36 0.09,0.21 0.15,0.59 0.34,0.64 0.2,0.05 0.51,-0.23 0.73,-0.26 0.14,-0.02 0.53,0.27 0.69,0.27 0.28,0 0.33,-0.32 0.42,-0.56 0.24,-0.58 1.08,-0.11 0.75,-1.03 -0.13,-0.39 -0.19,-0.34 -0,-0.71 0.14,-0.28 0.25,-0.48 -0.09,-0.62 -0.25,-0.1 -0.51,-0.14 -0.61,-0.36 -0.19,-0.41 -0.09,-0.46 -0.35,-0.64z"/>
  </g>
  <path class="fil1" d="M17.37 7.07l-0.3 0 -0.05 0.17 -0.23 0 0.33 -0.89 0.2 0 0.33 0.89 -0.23 0 -0.05 -0.17zm-0.24 -0.17l0.19 0 -0.1 -0.31 -0.1 0.31z"/>
  <path id="_1" class="fil1" d="M18.1 7.16c-0.04,0.06 -0.1,0.08 -0.18,0.08 -0.07,0 -0.13,-0.02 -0.17,-0.06 -0.04,-0.04 -0.06,-0.1 -0.06,-0.18l0 -0.43 0.21 0 0 0.43c0,0.06 0.03,0.09 0.08,0.09 0.05,0 0.08,-0.02 0.1,-0.05l0 -0.47 0.21 0 0 0.66 -0.19 0 -0.01 -0.07z"/>
  <polygon id="_2" class="fil1" points="18.63,7.24 18.43,7.24 18.43,6.29 18.63,6.29 "/>
  <path id="_3" class="fil1" d="M19.13 7.24c-0.01,-0.01 -0.01,-0.03 -0.02,-0.06 -0.04,0.05 -0.09,0.07 -0.16,0.07 -0.06,0 -0.12,-0.02 -0.16,-0.06 -0.04,-0.04 -0.07,-0.09 -0.07,-0.14 0,-0.07 0.03,-0.13 0.08,-0.16 0.05,-0.04 0.13,-0.06 0.23,-0.06l0.06 0 0 -0.04c0,-0.06 -0.03,-0.09 -0.08,-0.09 -0.05,0 -0.07,0.02 -0.07,0.07l-0.21 0c0,-0.06 0.03,-0.12 0.08,-0.16 0.05,-0.04 0.12,-0.06 0.21,-0.06 0.08,0 0.15,0.02 0.2,0.06 0.05,0.04 0.07,0.1 0.08,0.17l0 0.29c0,0.06 0.01,0.11 0.03,0.14l0 0.01 -0.21 0zm-0.13 -0.13c0.03,0 0.05,-0.01 0.06,-0.02 0.02,-0.01 0.03,-0.02 0.04,-0.04l0 -0.11 -0.06 0c-0.07,0 -0.11,0.03 -0.11,0.1 0,0.02 0.01,0.03 0.02,0.05 0.01,0.01 0.03,0.02 0.05,0.02z"/>
  <path id="_4" class="fil1" d="M19.78 7.05c0,-0.02 -0.01,-0.03 -0.03,-0.04 -0.02,-0.01 -0.05,-0.02 -0.11,-0.03 -0.05,-0.01 -0.09,-0.03 -0.13,-0.05 -0.03,-0.02 -0.06,-0.04 -0.08,-0.07 -0.02,-0.03 -0.03,-0.06 -0.03,-0.09 0,-0.06 0.03,-0.11 0.08,-0.15 0.05,-0.04 0.12,-0.06 0.2,-0.06 0.09,0 0.16,0.02 0.21,0.06 0.05,0.04 0.08,0.09 0.08,0.16l-0.21 0c0,-0.05 -0.03,-0.08 -0.08,-0.08 -0.02,0 -0.04,0.01 -0.05,0.02 -0.01,0.01 -0.02,0.03 -0.02,0.05 0,0.02 0.01,0.03 0.03,0.04 0.02,0.01 0.05,0.02 0.09,0.03 0.04,0.01 0.07,0.02 0.1,0.03 0.1,0.03 0.15,0.1 0.15,0.19 0,0.06 -0.03,0.11 -0.08,0.15 -0.05,0.04 -0.12,0.06 -0.21,0.06 -0.06,0 -0.11,-0.01 -0.15,-0.03 -0.04,-0.02 -0.08,-0.05 -0.1,-0.08 -0.03,-0.04 -0.04,-0.07 -0.04,-0.11l0.19 0c0,0.03 0.01,0.05 0.03,0.07 0.02,0.01 0.04,0.02 0.08,0.02 0.03,0 0.05,-0.01 0.06,-0.02 0.01,-0.01 0.02,-0.03 0.02,-0.04z"/>
  <path id="_5" class="fil1" d="M20.6 7.24l-0.21 0 0 -0.66 0.21 0 0 0.66zm-0.22 -0.84c0,-0.03 0.01,-0.05 0.03,-0.07 0.02,-0.02 0.05,-0.03 0.08,-0.03 0.03,0 0.06,0.01 0.08,0.03 0.02,0.02 0.03,0.04 0.03,0.07 0,0.03 -0.01,0.05 -0.03,0.07 -0.02,0.02 -0.05,0.03 -0.08,0.03 -0.03,0 -0.06,-0.01 -0.08,-0.03 -0.02,-0.02 -0.03,-0.04 -0.03,-0.07z"/>
  <path id="_6" class="fil1" d="M20.92 6.57l0.01 0.08c0.05,-0.06 0.11,-0.09 0.19,-0.09 0.07,0 0.12,0.02 0.16,0.06 0.03,0.04 0.05,0.1 0.05,0.19l0 0.43 -0.21 0 0 -0.42c0,-0.03 -0.01,-0.06 -0.02,-0.07 -0.01,-0.02 -0.04,-0.02 -0.07,-0.02 -0.04,0 -0.07,0.02 -0.09,0.05l0 0.47 -0.21 0 0 -0.66 0.19 0z"/>
  <path id="_7" class="fil1" d="M21.42 6.9c0,-0.11 0.02,-0.19 0.07,-0.25 0.05,-0.06 0.11,-0.09 0.19,-0.09 0.06,0 0.11,0.02 0.15,0.07l0 -0.34 0.21 0 0 0.94 -0.19 0 -0.01 -0.07c-0.04,0.06 -0.1,0.08 -0.16,0.08 -0.08,0 -0.14,-0.03 -0.19,-0.09 -0.05,-0.06 -0.07,-0.15 -0.07,-0.26zm0.21 0.01c0,0.12 0.03,0.18 0.1,0.18 0.05,0 0.08,-0.02 0.1,-0.06l0 -0.25c-0.02,-0.04 -0.05,-0.06 -0.1,-0.06 -0.06,0 -0.1,0.05 -0.1,0.15l-0 0.04z"/>
  <path id="_8" class="fil1" d="M22.37 7.24l-0.21 0 0 -0.66 0.21 0 0 0.66zm-0.22 -0.84c0,-0.03 0.01,-0.05 0.03,-0.07 0.02,-0.02 0.05,-0.03 0.08,-0.03 0.03,0 0.06,0.01 0.08,0.03 0.02,0.02 0.03,0.04 0.03,0.07 0,0.03 -0.01,0.05 -0.03,0.07 -0.02,0.02 -0.05,0.03 -0.08,0.03 -0.03,0 -0.06,-0.01 -0.08,-0.03 -0.02,-0.02 -0.03,-0.04 -0.03,-0.07z"/>
  <polygon id="_9" class="fil1" points="22.76,6.99 22.87,6.57 23.08,6.57 22.87,7.24 22.66,7.24 22.44,6.57 22.66,6.57 "/>
  <path id="_10" class="fil1" d="M23.36 7.24l-0.21 0 0 -0.66 0.21 0 0 0.66zm-0.22 -0.84c0,-0.03 0.01,-0.05 0.03,-0.07 0.02,-0.02 0.05,-0.03 0.08,-0.03 0.03,0 0.06,0.01 0.08,0.03 0.02,0.02 0.03,0.04 0.03,0.07 0,0.03 -0.01,0.05 -0.03,0.07 -0.02,0.02 -0.05,0.03 -0.08,0.03 -0.03,0 -0.06,-0.01 -0.08,-0.03 -0.02,-0.02 -0.03,-0.04 -0.03,-0.07z"/>
  <path id="_11" class="fil1" d="M23.47 6.9c0,-0.11 0.02,-0.19 0.07,-0.25 0.05,-0.06 0.11,-0.09 0.19,-0.09 0.06,0 0.11,0.02 0.15,0.07l0 -0.34 0.21 0 0 0.94 -0.19 0 -0.01 -0.07c-0.04,0.06 -0.1,0.08 -0.16,0.08 -0.08,0 -0.14,-0.03 -0.19,-0.09 -0.05,-0.06 -0.07,-0.15 -0.07,-0.26zm0.21 0.01c0,0.12 0.03,0.18 0.1,0.18 0.05,0 0.08,-0.02 0.1,-0.06l0 -0.25c-0.02,-0.04 -0.05,-0.06 -0.1,-0.06 -0.06,0 -0.1,0.05 -0.1,0.15l-0 0.04z"/>
  <path id="_12" class="fil1" d="M24.6 7.16c-0.04,0.06 -0.1,0.08 -0.18,0.08 -0.07,0 -0.13,-0.02 -0.17,-0.06 -0.04,-0.04 -0.06,-0.1 -0.06,-0.18l0 -0.43 0.21 0 0 0.43c0,0.06 0.03,0.09 0.08,0.09 0.05,0 0.08,-0.02 0.1,-0.05l0 -0.47 0.21 0 0 0.66 -0.19 0 -0.01 -0.07z"/>
  <path id="_13" class="fil1" d="M25.28 7.24c-0.01,-0.01 -0.01,-0.03 -0.02,-0.06 -0.04,0.05 -0.09,0.07 -0.16,0.07 -0.06,0 -0.12,-0.02 -0.16,-0.06 -0.04,-0.04 -0.07,-0.09 -0.07,-0.14 0,-0.07 0.03,-0.13 0.08,-0.16 0.05,-0.04 0.13,-0.06 0.23,-0.06l0.06 0 0 -0.04c0,-0.06 -0.03,-0.09 -0.08,-0.09 -0.05,0 -0.07,0.02 -0.07,0.07l-0.21 0c0,-0.06 0.03,-0.12 0.08,-0.16 0.05,-0.04 0.12,-0.06 0.21,-0.06 0.08,0 0.15,0.02 0.2,0.06 0.05,0.04 0.07,0.1 0.08,0.17l0 0.29c0,0.06 0.01,0.11 0.03,0.14l0 0.01 -0.21 0zm-0.13 -0.13c0.03,0 0.05,-0.01 0.06,-0.02 0.02,-0.01 0.03,-0.02 0.04,-0.04l0 -0.11 -0.06 0c-0.07,0 -0.11,0.03 -0.11,0.1 0,0.02 0.01,0.03 0.02,0.05 0.01,0.01 0.03,0.02 0.05,0.02z"/>
  <path id="_14" class="fil1" d="M25.8 7.24l-0.21 0 0 -0.66 0.21 0 0 0.66zm-0.22 -0.84c0,-0.03 0.01,-0.05 0.03,-0.07 0.02,-0.02 0.05,-0.03 0.08,-0.03 0.03,0 0.06,0.01 0.08,0.03 0.02,0.02 0.03,0.04 0.03,0.07 0,0.03 -0.01,0.05 -0.03,0.07 -0.02,0.02 -0.05,0.03 -0.08,0.03 -0.03,0 -0.06,-0.01 -0.08,-0.03 -0.02,-0.02 -0.03,-0.04 -0.03,-0.07z"/>
  <path id="_15" class="fil1" d="M26.27 7.05c0,-0.02 -0.01,-0.03 -0.03,-0.04 -0.02,-0.01 -0.05,-0.02 -0.11,-0.03 -0.05,-0.01 -0.09,-0.03 -0.13,-0.05 -0.03,-0.02 -0.06,-0.04 -0.08,-0.07 -0.02,-0.03 -0.03,-0.06 -0.03,-0.09 0,-0.06 0.03,-0.11 0.08,-0.15 0.05,-0.04 0.12,-0.06 0.2,-0.06 0.09,0 0.16,0.02 0.21,0.06 0.05,0.04 0.08,0.09 0.08,0.16l-0.21 0c0,-0.05 -0.03,-0.08 -0.08,-0.08 -0.02,0 -0.04,0.01 -0.05,0.02 -0.01,0.01 -0.02,0.03 -0.02,0.05 0,0.02 0.01,0.03 0.03,0.04 0.02,0.01 0.05,0.02 0.09,0.03 0.04,0.01 0.07,0.02 0.1,0.03 0.1,0.03 0.15,0.1 0.15,0.19 0,0.06 -0.03,0.11 -0.08,0.15 -0.05,0.04 -0.12,0.06 -0.21,0.06 -0.06,0 -0.11,-0.01 -0.15,-0.03 -0.04,-0.02 -0.08,-0.05 -0.1,-0.08 -0.03,-0.04 -0.04,-0.07 -0.04,-0.11l0.19 0c0,0.03 0.01,0.05 0.03,0.07 0.02,0.01 0.04,0.02 0.08,0.02 0.03,0 0.05,-0.01 0.06,-0.02 0.01,-0.01 0.02,-0.03 0.02,-0.04z"/>
  <path id="_16" class="fil1" d="M27.2 7.25c-0.1,0 -0.18,-0.03 -0.25,-0.09 -0.06,-0.06 -0.09,-0.14 -0.09,-0.24l0 -0.02c0,-0.07 0.01,-0.13 0.04,-0.18 0.03,-0.05 0.06,-0.09 0.11,-0.12 0.05,-0.03 0.11,-0.04 0.17,-0.04 0.09,0 0.17,0.03 0.22,0.09 0.05,0.06 0.08,0.14 0.08,0.24l0 0.08 -0.41 0c0.01,0.04 0.02,0.07 0.05,0.09 0.02,0.02 0.06,0.03 0.1,0.03 0.07,0 0.12,-0.02 0.15,-0.07l0.09 0.11c-0.03,0.04 -0.06,0.06 -0.11,0.08 -0.05,0.02 -0.1,0.03 -0.15,0.03zm-0.02 -0.53c-0.06,0 -0.1,0.04 -0.11,0.12l0.21 0 0 -0.02c0,-0.03 -0.01,-0.06 -0.03,-0.08 -0.02,-0.02 -0.04,-0.03 -0.08,-0.03z"/>
  <path id="_17" class="fil1" d="M18.51 8.42c0,0.1 -0.02,0.19 -0.07,0.25 -0.05,0.06 -0.11,0.09 -0.19,0.09 -0.06,0 -0.11,-0.02 -0.15,-0.07l0 0.31 -0.21 0 0 -0.92 0.19 0 0.01 0.06c0.04,-0.05 0.09,-0.07 0.16,-0.07 0.08,0 0.15,0.03 0.19,0.09 0.05,0.06 0.07,0.14 0.07,0.25l0 0.01zm-0.21 -0.01c0,-0.12 -0.03,-0.18 -0.1,-0.18 -0.05,0 -0.08,0.02 -0.1,0.05l0 0.26c0.02,0.04 0.05,0.06 0.1,0.06 0.07,0 0.1,-0.06 0.1,-0.17l0 -0.02z"/>
  <path id="_18" class="fil1" d="M18.93 8.76c-0.1,0 -0.18,-0.03 -0.25,-0.09 -0.06,-0.06 -0.09,-0.14 -0.09,-0.24l0 -0.02c0,-0.07 0.01,-0.13 0.04,-0.18 0.03,-0.05 0.06,-0.09 0.11,-0.12 0.05,-0.03 0.11,-0.04 0.17,-0.04 0.09,0 0.17,0.03 0.22,0.09 0.05,0.06 0.08,0.14 0.08,0.24l0 0.08 -0.41 0c0.01,0.04 0.02,0.07 0.05,0.09 0.02,0.02 0.06,0.03 0.1,0.03 0.07,0 0.12,-0.02 0.15,-0.07l0.09 0.11c-0.03,0.04 -0.06,0.06 -0.11,0.08 -0.05,0.02 -0.1,0.03 -0.15,0.03zm-0.02 -0.53c-0.06,0 -0.1,0.04 -0.11,0.12l0.21 0 0 -0.02c0,-0.03 -0.01,-0.06 -0.03,-0.08 -0.02,-0.02 -0.04,-0.03 -0.08,-0.03z"/>
  <path id="_19" class="fil1" d="M19.69 8.27l-0.07 -0c-0.06,0 -0.11,0.02 -0.13,0.06l0 0.42 -0.21 0 0 -0.66 0.19 0 0.01 0.09c0.03,-0.07 0.08,-0.1 0.15,-0.1 0.02,0 0.04,0 0.06,0.01l-0 0.19z"/>
  <path id="_20" class="fil1" d="M20.12 8.56c0,-0.02 -0.01,-0.03 -0.03,-0.04 -0.02,-0.01 -0.05,-0.02 -0.11,-0.03 -0.05,-0.01 -0.09,-0.03 -0.13,-0.05 -0.03,-0.02 -0.06,-0.04 -0.08,-0.07 -0.02,-0.03 -0.03,-0.06 -0.03,-0.09 0,-0.06 0.03,-0.11 0.08,-0.15 0.05,-0.04 0.12,-0.06 0.2,-0.06 0.09,0 0.16,0.02 0.21,0.06 0.05,0.04 0.08,0.09 0.08,0.16l-0.21 0c0,-0.05 -0.03,-0.08 -0.08,-0.08 -0.02,0 -0.04,0.01 -0.05,0.02 -0.01,0.01 -0.02,0.03 -0.02,0.05 0,0.02 0.01,0.03 0.03,0.04 0.02,0.01 0.05,0.02 0.09,0.03 0.04,0.01 0.07,0.02 0.1,0.03 0.1,0.03 0.15,0.1 0.15,0.19 0,0.06 -0.03,0.11 -0.08,0.15 -0.05,0.04 -0.12,0.06 -0.21,0.06 -0.06,0 -0.11,-0.01 -0.15,-0.03 -0.04,-0.02 -0.08,-0.05 -0.1,-0.08 -0.03,-0.04 -0.04,-0.07 -0.04,-0.11l0.19 0c0,0.03 0.01,0.05 0.03,0.07 0.02,0.01 0.04,0.02 0.08,0.02 0.03,0 0.05,-0.01 0.06,-0.02 0.01,-0.01 0.02,-0.03 0.02,-0.04z"/>
  <path id="_21" class="fil1" d="M20.39 8.41c0,-0.07 0.01,-0.13 0.04,-0.18 0.03,-0.05 0.06,-0.09 0.11,-0.12 0.05,-0.03 0.11,-0.04 0.17,-0.04 0.1,0 0.18,0.03 0.24,0.09 0.06,0.06 0.09,0.15 0.09,0.25l0 0.01c0,0.1 -0.03,0.19 -0.09,0.25 -0.06,0.06 -0.14,0.09 -0.23,0.09 -0.09,0 -0.17,-0.03 -0.23,-0.09 -0.06,-0.06 -0.09,-0.13 -0.09,-0.23l-0 -0.04zm0.21 0.01c0,0.06 0.01,0.11 0.03,0.14 0.02,0.03 0.05,0.04 0.09,0.04 0.07,0 0.11,-0.06 0.11,-0.17l0 -0.02c0,-0.12 -0.04,-0.18 -0.11,-0.18 -0.07,0 -0.11,0.05 -0.11,0.15l-0 0.04z"/>
  <path id="_22" class="fil1" d="M21.31 8.08l0.01 0.08c0.05,-0.06 0.11,-0.09 0.19,-0.09 0.07,0 0.12,0.02 0.16,0.06 0.03,0.04 0.05,0.1 0.05,0.19l0 0.43 -0.21 0 0 -0.42c0,-0.03 -0.01,-0.06 -0.02,-0.07 -0.01,-0.02 -0.04,-0.02 -0.07,-0.02 -0.04,0 -0.07,0.02 -0.09,0.05l0 0.47 -0.21 0 0 -0.66 0.19 0z"/>
  <path id="_23" class="fil1" d="M22.2 8.75c-0.01,-0.01 -0.01,-0.03 -0.02,-0.06 -0.04,0.05 -0.09,0.07 -0.16,0.07 -0.06,0 -0.12,-0.02 -0.16,-0.06 -0.04,-0.04 -0.07,-0.09 -0.07,-0.14 0,-0.07 0.03,-0.13 0.08,-0.16 0.05,-0.04 0.13,-0.06 0.23,-0.06l0.06 0 0 -0.04c0,-0.06 -0.03,-0.09 -0.08,-0.09 -0.05,0 -0.07,0.02 -0.07,0.07l-0.21 0c0,-0.06 0.03,-0.12 0.08,-0.16 0.05,-0.04 0.12,-0.06 0.21,-0.06 0.08,0 0.15,0.02 0.2,0.06 0.05,0.04 0.07,0.1 0.08,0.17l0 0.29c0,0.06 0.01,0.11 0.03,0.14l0 0.01 -0.21 0zm-0.13 -0.13c0.03,0 0.05,-0.01 0.06,-0.02 0.02,-0.01 0.03,-0.02 0.04,-0.04l0 -0.11 -0.06 0c-0.07,0 -0.11,0.03 -0.11,0.1 0,0.02 0.01,0.03 0.02,0.05 0.01,0.01 0.03,0.02 0.05,0.02z"/>
  <polygon id="_24" class="fil1" points="22.71,8.75 22.51,8.75 22.51,7.8 22.71,7.8 "/>
  <path id="_25" class="fil1" d="M23.06 8.75l-0.21 0 0 -0.66 0.21 0 0 0.66zm-0.22 -0.84c0,-0.03 0.01,-0.05 0.03,-0.07 0.02,-0.02 0.05,-0.03 0.08,-0.03 0.03,0 0.06,0.01 0.08,0.03 0.02,0.02 0.03,0.04 0.03,0.07 0,0.03 -0.01,0.05 -0.03,0.07 -0.02,0.02 -0.05,0.03 -0.08,0.03 -0.03,0 -0.06,-0.01 -0.08,-0.03 -0.02,-0.02 -0.03,-0.04 -0.03,-0.07z"/>
  <polygon id="_26" class="fil1" points="23.43,8.59 23.74,8.59 23.74,8.75 23.17,8.75 23.17,8.63 23.47,8.24 23.18,8.24 23.18,8.08 23.73,8.08 23.73,8.19 "/>
  <path id="_27" class="fil1" d="M24.21 8.75c-0.01,-0.01 -0.01,-0.03 -0.02,-0.06 -0.04,0.05 -0.09,0.07 -0.16,0.07 -0.06,0 -0.12,-0.02 -0.16,-0.06 -0.04,-0.04 -0.07,-0.09 -0.07,-0.14 0,-0.07 0.03,-0.13 0.08,-0.16 0.05,-0.04 0.13,-0.06 0.23,-0.06l0.06 0 0 -0.04c0,-0.06 -0.03,-0.09 -0.08,-0.09 -0.05,0 -0.07,0.02 -0.07,0.07l-0.21 0c0,-0.06 0.03,-0.12 0.08,-0.16 0.05,-0.04 0.12,-0.06 0.21,-0.06 0.08,0 0.15,0.02 0.2,0.06 0.05,0.04 0.07,0.1 0.08,0.17l0 0.29c0,0.06 0.01,0.11 0.03,0.14l0 0.01 -0.21 0zm-0.13 -0.13c0.03,0 0.05,-0.01 0.06,-0.02 0.02,-0.01 0.03,-0.02 0.04,-0.04l0 -0.11 -0.06 0c-0.07,0 -0.11,0.03 -0.11,0.1 0,0.02 0.01,0.03 0.02,0.05 0.01,0.01 0.03,0.02 0.05,0.02z"/>
  <path id="_28" class="fil1" d="M24.48 8.41c0,-0.11 0.02,-0.19 0.07,-0.25 0.05,-0.06 0.11,-0.09 0.19,-0.09 0.06,0 0.11,0.02 0.15,0.07l0 -0.34 0.21 0 0 0.94 -0.19 0 -0.01 -0.07c-0.04,0.06 -0.1,0.08 -0.16,0.08 -0.08,0 -0.14,-0.03 -0.19,-0.09 -0.05,-0.06 -0.07,-0.15 -0.07,-0.26zm0.21 0.01c0,0.12 0.03,0.18 0.1,0.18 0.05,0 0.08,-0.02 0.1,-0.06l0 -0.25c-0.02,-0.04 -0.05,-0.06 -0.1,-0.06 -0.06,0 -0.1,0.05 -0.1,0.15l-0 0.04z"/>
  <path id="_29" class="fil1" d="M25.59 8.75c-0.01,-0.01 -0.01,-0.03 -0.02,-0.06 -0.04,0.05 -0.09,0.07 -0.16,0.07 -0.06,0 -0.12,-0.02 -0.16,-0.06 -0.04,-0.04 -0.07,-0.09 -0.07,-0.14 0,-0.07 0.03,-0.13 0.08,-0.16 0.05,-0.04 0.13,-0.06 0.23,-0.06l0.06 0 0 -0.04c0,-0.06 -0.03,-0.09 -0.08,-0.09 -0.05,0 -0.07,0.02 -0.07,0.07l-0.21 0c0,-0.06 0.03,-0.12 0.08,-0.16 0.05,-0.04 0.12,-0.06 0.21,-0.06 0.08,0 0.15,0.02 0.2,0.06 0.05,0.04 0.07,0.1 0.08,0.17l0 0.29c0,0.06 0.01,0.11 0.03,0.14l0 0.01 -0.21 0zm-0.13 -0.13c0.03,0 0.05,-0.01 0.06,-0.02 0.02,-0.01 0.03,-0.02 0.04,-0.04l0 -0.11 -0.06 0c-0.07,0 -0.11,0.03 -0.11,0.1 0,0.02 0.01,0.03 0.02,0.05 0.01,0.01 0.03,0.02 0.05,0.02z"/>
  <path id="_30" class="fil1" d="M26.23 8.56c0,-0.02 -0.01,-0.03 -0.03,-0.04 -0.02,-0.01 -0.05,-0.02 -0.11,-0.03 -0.05,-0.01 -0.09,-0.03 -0.13,-0.05 -0.03,-0.02 -0.06,-0.04 -0.08,-0.07 -0.02,-0.03 -0.03,-0.06 -0.03,-0.09 0,-0.06 0.03,-0.11 0.08,-0.15 0.05,-0.04 0.12,-0.06 0.2,-0.06 0.09,0 0.16,0.02 0.21,0.06 0.05,0.04 0.08,0.09 0.08,0.16l-0.21 0c0,-0.05 -0.03,-0.08 -0.08,-0.08 -0.02,0 -0.04,0.01 -0.05,0.02 -0.01,0.01 -0.02,0.03 -0.02,0.05 0,0.02 0.01,0.03 0.03,0.04 0.02,0.01 0.05,0.02 0.09,0.03 0.04,0.01 0.07,0.02 0.1,0.03 0.1,0.03 0.15,0.1 0.15,0.19 0,0.06 -0.03,0.11 -0.08,0.15 -0.05,0.04 -0.12,0.06 -0.21,0.06 -0.06,0 -0.11,-0.01 -0.15,-0.03 -0.04,-0.02 -0.08,-0.05 -0.1,-0.08 -0.03,-0.04 -0.04,-0.07 -0.04,-0.11l0.19 0c0,0.03 0.01,0.05 0.03,0.07 0.02,0.01 0.04,0.02 0.08,0.02 0.03,0 0.05,-0.01 0.06,-0.02 0.01,-0.01 0.02,-0.03 0.02,-0.04z"/>
  <path class="fil1" d="M0.73 6.94l0 0.3 -0.22 0 0 -0.89 0.36 0c0.07,0 0.13,0.01 0.18,0.04 0.05,0.03 0.09,0.06 0.12,0.11 0.03,0.05 0.04,0.1 0.04,0.16 0,0.09 -0.03,0.16 -0.09,0.21 -0.06,0.05 -0.15,0.08 -0.26,0.08l-0.14 0zm0 -0.17l0.14 0c0.04,0 0.07,-0.01 0.1,-0.03 0.02,-0.02 0.03,-0.05 0.03,-0.09 0,-0.04 -0.01,-0.08 -0.03,-0.1 -0.02,-0.03 -0.05,-0.04 -0.09,-0.04l-0.14 0 0 0.26z"/>
  <path id="_1_0" class="fil1" d="M1.73 6.76l-0.07 -0c-0.06,0 -0.11,0.02 -0.13,0.06l0 0.42 -0.21 0 0 -0.66 0.19 0 0.01 0.09c0.03,-0.07 0.08,-0.1 0.15,-0.1 0.02,0 0.04,0 0.06,0.01l-0 0.19z"/>
  <path id="_2_1" class="fil1" d="M1.75 6.9c0,-0.07 0.01,-0.13 0.04,-0.18 0.03,-0.05 0.06,-0.09 0.11,-0.12 0.05,-0.03 0.11,-0.04 0.17,-0.04 0.1,0 0.18,0.03 0.24,0.09 0.06,0.06 0.09,0.15 0.09,0.25l0 0.01c0,0.1 -0.03,0.19 -0.09,0.25 -0.06,0.06 -0.14,0.09 -0.23,0.09 -0.09,0 -0.17,-0.03 -0.23,-0.09 -0.06,-0.06 -0.09,-0.13 -0.09,-0.23l-0 -0.04zm0.21 0.01c0,0.06 0.01,0.11 0.03,0.14 0.02,0.03 0.05,0.04 0.09,0.04 0.07,0 0.11,-0.06 0.11,-0.17l0 -0.02c0,-0.12 -0.04,-0.18 -0.11,-0.18 -0.07,0 -0.11,0.05 -0.11,0.15l-0 0.04z"/>
  <path id="_3_2" class="fil1" d="M2.53 7.24l0 -0.52 -0.1 0 0 -0.14 0.1 0 0 -0.02c0,-0.09 0.03,-0.16 0.09,-0.2 0.05,-0.04 0.13,-0.07 0.23,-0.07 0.06,0 0.13,0.01 0.22,0.04l-0.03 0.16 -0.03 -0.01c-0.04,-0.01 -0.09,-0.02 -0.14,-0.02 -0.08,0 -0.12,0.04 -0.12,0.11l0 0.01 0.13 0 0 0.14 -0.13 0 0 0.52 -0.21 0zm0.63 0l-0.21 0 0 -0.66 0.21 0 0 0.66z"/>
  <path id="_4_3" class="fil1" d="M3.63 7.05c0,-0.02 -0.01,-0.03 -0.03,-0.04 -0.02,-0.01 -0.05,-0.02 -0.11,-0.03 -0.05,-0.01 -0.09,-0.03 -0.13,-0.05 -0.03,-0.02 -0.06,-0.04 -0.08,-0.07 -0.02,-0.03 -0.03,-0.06 -0.03,-0.09 0,-0.06 0.03,-0.11 0.08,-0.15 0.05,-0.04 0.12,-0.06 0.2,-0.06 0.09,0 0.16,0.02 0.21,0.06 0.05,0.04 0.08,0.09 0.08,0.16l-0.21 0c0,-0.05 -0.03,-0.08 -0.08,-0.08 -0.02,0 -0.04,0.01 -0.05,0.02 -0.01,0.01 -0.02,0.03 -0.02,0.05 0,0.02 0.01,0.03 0.03,0.04 0.02,0.01 0.05,0.02 0.09,0.03 0.04,0.01 0.07,0.02 0.1,0.03 0.1,0.03 0.15,0.1 0.15,0.19 0,0.06 -0.03,0.11 -0.08,0.15 -0.05,0.04 -0.12,0.06 -0.21,0.06 -0.06,0 -0.11,-0.01 -0.15,-0.03 -0.04,-0.02 -0.08,-0.05 -0.1,-0.08 -0.03,-0.04 -0.04,-0.07 -0.04,-0.11l0.19 0c0,0.03 0.01,0.05 0.03,0.07 0.02,0.01 0.04,0.02 0.08,0.02 0.03,0 0.05,-0.01 0.06,-0.02 0.01,-0.01 0.02,-0.03 0.02,-0.04z"/>
  <path id="_5_4" class="fil1" d="M4.28 7.05c0,-0.02 -0.01,-0.03 -0.03,-0.04 -0.02,-0.01 -0.05,-0.02 -0.11,-0.03 -0.05,-0.01 -0.09,-0.03 -0.13,-0.05 -0.03,-0.02 -0.06,-0.04 -0.08,-0.07 -0.02,-0.03 -0.03,-0.06 -0.03,-0.09 0,-0.06 0.03,-0.11 0.08,-0.15 0.05,-0.04 0.12,-0.06 0.2,-0.06 0.09,0 0.16,0.02 0.21,0.06 0.05,0.04 0.08,0.09 0.08,0.16l-0.21 0c0,-0.05 -0.03,-0.08 -0.08,-0.08 -0.02,0 -0.04,0.01 -0.05,0.02 -0.01,0.01 -0.02,0.03 -0.02,0.05 0,0.02 0.01,0.03 0.03,0.04 0.02,0.01 0.05,0.02 0.09,0.03 0.04,0.01 0.07,0.02 0.1,0.03 0.1,0.03 0.15,0.1 0.15,0.19 0,0.06 -0.03,0.11 -0.08,0.15 -0.05,0.04 -0.12,0.06 -0.21,0.06 -0.06,0 -0.11,-0.01 -0.15,-0.03 -0.04,-0.02 -0.08,-0.05 -0.1,-0.08 -0.03,-0.04 -0.04,-0.07 -0.04,-0.11l0.19 0c0,0.03 0.01,0.05 0.03,0.07 0.02,0.01 0.04,0.02 0.08,0.02 0.03,0 0.05,-0.01 0.06,-0.02 0.01,-0.01 0.02,-0.03 0.02,-0.04z"/>
  <path id="_6_5" class="fil1" d="M4.79 7.24l-0.21 0 0 -0.66 0.21 0 0 0.66zm-0.22 -0.84c0,-0.03 0.01,-0.05 0.03,-0.07 0.02,-0.02 0.05,-0.03 0.08,-0.03 0.03,0 0.06,0.01 0.08,0.03 0.02,0.02 0.03,0.04 0.03,0.07 0,0.03 -0.01,0.05 -0.03,0.07 -0.02,0.02 -0.05,0.03 -0.08,0.03 -0.03,0 -0.06,-0.01 -0.08,-0.03 -0.02,-0.02 -0.03,-0.04 -0.03,-0.07z"/>
  <path id="_7_6" class="fil1" d="M4.89 6.9c0,-0.07 0.01,-0.13 0.04,-0.18 0.03,-0.05 0.06,-0.09 0.11,-0.12 0.05,-0.03 0.11,-0.04 0.17,-0.04 0.1,0 0.18,0.03 0.24,0.09 0.06,0.06 0.09,0.15 0.09,0.25l0 0.01c0,0.1 -0.03,0.19 -0.09,0.25 -0.06,0.06 -0.14,0.09 -0.23,0.09 -0.09,0 -0.17,-0.03 -0.23,-0.09 -0.06,-0.06 -0.09,-0.13 -0.09,-0.23l-0 -0.04zm0.21 0.01c0,0.06 0.01,0.11 0.03,0.14 0.02,0.03 0.05,0.04 0.09,0.04 0.07,0 0.11,-0.06 0.11,-0.17l0 -0.02c0,-0.12 -0.04,-0.18 -0.11,-0.18 -0.07,0 -0.11,0.05 -0.11,0.15l-0 0.04z"/>
  <path id="_8_7" class="fil1" d="M5.82 6.58l0.01 0.08c0.05,-0.06 0.11,-0.09 0.19,-0.09 0.07,0 0.12,0.02 0.16,0.06 0.03,0.04 0.05,0.1 0.05,0.19l0 0.43 -0.21 0 0 -0.42c0,-0.03 -0.01,-0.06 -0.02,-0.07 -0.01,-0.02 -0.04,-0.02 -0.07,-0.02 -0.04,0 -0.07,0.02 -0.09,0.05l0 0.47 -0.21 0 0 -0.66 0.19 0z"/>
  <path id="_9_8" class="fil1" d="M6.71 7.24c-0.01,-0.01 -0.01,-0.03 -0.02,-0.06 -0.04,0.05 -0.09,0.07 -0.16,0.07 -0.06,0 -0.12,-0.02 -0.16,-0.06 -0.04,-0.04 -0.07,-0.09 -0.07,-0.14 0,-0.07 0.03,-0.13 0.08,-0.16 0.05,-0.04 0.13,-0.06 0.23,-0.06l0.06 0 0 -0.04c0,-0.06 -0.03,-0.09 -0.08,-0.09 -0.05,0 -0.07,0.02 -0.07,0.07l-0.21 0c0,-0.06 0.03,-0.12 0.08,-0.16 0.05,-0.04 0.12,-0.06 0.21,-0.06 0.08,0 0.15,0.02 0.2,0.06 0.05,0.04 0.07,0.1 0.08,0.17l0 0.29c0,0.06 0.01,0.11 0.03,0.14l0 0.01 -0.21 0zm-0.13 -0.13c0.03,0 0.05,-0.01 0.06,-0.02 0.02,-0.01 0.03,-0.02 0.04,-0.04l0 -0.11 -0.06 0c-0.07,0 -0.11,0.03 -0.11,0.1 0,0.02 0.01,0.03 0.02,0.05 0.01,0.01 0.03,0.02 0.05,0.02z"/>
  <path id="_10_9" class="fil1" d="M7.22 7.24l-0.21 0 0 -0.66 0.21 0 0 0.66zm-0.22 -0.84c0,-0.03 0.01,-0.05 0.03,-0.07 0.02,-0.02 0.05,-0.03 0.08,-0.03 0.03,0 0.06,0.01 0.08,0.03 0.02,0.02 0.03,0.04 0.03,0.07 0,0.03 -0.01,0.05 -0.03,0.07 -0.02,0.02 -0.05,0.03 -0.08,0.03 -0.03,0 -0.06,-0.01 -0.08,-0.03 -0.02,-0.02 -0.03,-0.04 -0.03,-0.07z"/>
  <path id="_11_10" class="fil1" d="M7.7 7.05c0,-0.02 -0.01,-0.03 -0.03,-0.04 -0.02,-0.01 -0.05,-0.02 -0.11,-0.03 -0.05,-0.01 -0.09,-0.03 -0.13,-0.05 -0.03,-0.02 -0.06,-0.04 -0.08,-0.07 -0.02,-0.03 -0.03,-0.06 -0.03,-0.09 0,-0.06 0.03,-0.11 0.08,-0.15 0.05,-0.04 0.12,-0.06 0.2,-0.06 0.09,0 0.16,0.02 0.21,0.06 0.05,0.04 0.08,0.09 0.08,0.16l-0.21 0c0,-0.05 -0.03,-0.08 -0.08,-0.08 -0.02,0 -0.04,0.01 -0.05,0.02 -0.01,0.01 -0.02,0.03 -0.02,0.05 0,0.02 0.01,0.03 0.03,0.04 0.02,0.01 0.05,0.02 0.09,0.03 0.04,0.01 0.07,0.02 0.1,0.03 0.1,0.03 0.15,0.1 0.15,0.19 0,0.06 -0.03,0.11 -0.08,0.15 -0.05,0.04 -0.12,0.06 -0.21,0.06 -0.06,0 -0.11,-0.01 -0.15,-0.03 -0.04,-0.02 -0.08,-0.05 -0.1,-0.08 -0.03,-0.04 -0.04,-0.07 -0.04,-0.11l0.19 0c0,0.03 0.01,0.05 0.03,0.07 0.02,0.01 0.04,0.02 0.08,0.02 0.03,0 0.05,-0.01 0.06,-0.02 0.01,-0.01 0.02,-0.03 0.02,-0.04z"/>
  <path id="_12_11" class="fil1" d="M0.34 8.76c-0.1,0 -0.18,-0.03 -0.25,-0.09 -0.06,-0.06 -0.09,-0.14 -0.09,-0.24l0 -0.02c0,-0.07 0.01,-0.13 0.04,-0.18 0.03,-0.05 0.06,-0.09 0.11,-0.12 0.05,-0.03 0.11,-0.04 0.17,-0.04 0.09,0 0.17,0.03 0.22,0.09 0.05,0.06 0.08,0.14 0.08,0.24l0 0.08 -0.41 0c0.01,0.04 0.02,0.07 0.05,0.09 0.02,0.02 0.06,0.03 0.1,0.03 0.07,0 0.12,-0.02 0.15,-0.07l0.09 0.11c-0.03,0.04 -0.06,0.06 -0.11,0.08 -0.05,0.02 -0.1,0.03 -0.15,0.03zm-0.02 -0.53c-0.06,0 -0.1,0.04 -0.11,0.12l0.21 0 0 -0.02c0,-0.03 -0.01,-0.06 -0.03,-0.08 -0.02,-0.02 -0.04,-0.03 -0.08,-0.03z"/>
  <path id="_13_12" class="fil1" d="M1.05 8.57c0,-0.02 -0.01,-0.03 -0.03,-0.04 -0.02,-0.01 -0.05,-0.02 -0.11,-0.03 -0.05,-0.01 -0.09,-0.03 -0.13,-0.05 -0.03,-0.02 -0.06,-0.04 -0.08,-0.07 -0.02,-0.03 -0.03,-0.06 -0.03,-0.09 0,-0.06 0.03,-0.11 0.08,-0.15 0.05,-0.04 0.12,-0.06 0.2,-0.06 0.09,0 0.16,0.02 0.21,0.06 0.05,0.04 0.08,0.09 0.08,0.16l-0.21 0c0,-0.05 -0.03,-0.08 -0.08,-0.08 -0.02,0 -0.04,0.01 -0.05,0.02 -0.01,0.01 -0.02,0.03 -0.02,0.05 0,0.02 0.01,0.03 0.03,0.04 0.02,0.01 0.05,0.02 0.09,0.03 0.04,0.01 0.07,0.02 0.1,0.03 0.1,0.03 0.15,0.1 0.15,0.19 0,0.06 -0.03,0.11 -0.08,0.15 -0.05,0.04 -0.12,0.06 -0.21,0.06 -0.06,0 -0.11,-0.01 -0.15,-0.03 -0.04,-0.02 -0.08,-0.05 -0.1,-0.08 -0.03,-0.04 -0.04,-0.07 -0.04,-0.11l0.19 0c0,0.03 0.01,0.05 0.03,0.07 0.02,0.01 0.04,0.02 0.08,0.02 0.03,0 0.05,-0.01 0.06,-0.02 0.01,-0.01 0.02,-0.03 0.02,-0.04z"/>
  <path id="_14_13" class="fil1" d="M1.97 8.42c0,0.1 -0.02,0.19 -0.07,0.25 -0.05,0.06 -0.11,0.09 -0.19,0.09 -0.06,0 -0.11,-0.02 -0.15,-0.07l0 0.31 -0.21 0 0 -0.92 0.19 0 0.01 0.06c0.04,-0.05 0.09,-0.07 0.16,-0.07 0.08,0 0.15,0.03 0.19,0.09 0.05,0.06 0.07,0.14 0.07,0.25l0 0.01zm-0.21 -0.01c0,-0.12 -0.03,-0.18 -0.1,-0.18 -0.05,0 -0.08,0.02 -0.1,0.05l0 0.26c0.02,0.04 0.05,0.06 0.1,0.06 0.07,0 0.1,-0.06 0.1,-0.17l0 -0.02z"/>
  <path id="_15_14" class="fil1" d="M2.38 8.76c-0.1,0 -0.18,-0.03 -0.25,-0.09 -0.06,-0.06 -0.09,-0.14 -0.09,-0.24l0 -0.02c0,-0.07 0.01,-0.13 0.04,-0.18 0.03,-0.05 0.06,-0.09 0.11,-0.12 0.05,-0.03 0.11,-0.04 0.17,-0.04 0.09,0 0.17,0.03 0.22,0.09 0.05,0.06 0.08,0.14 0.08,0.24l0 0.08 -0.41 0c0.01,0.04 0.02,0.07 0.05,0.09 0.02,0.02 0.06,0.03 0.1,0.03 0.07,0 0.12,-0.02 0.15,-0.07l0.09 0.11c-0.03,0.04 -0.06,0.06 -0.11,0.08 -0.05,0.02 -0.1,0.03 -0.15,0.03zm-0.02 -0.53c-0.06,0 -0.1,0.04 -0.11,0.12l0.21 0 0 -0.02c0,-0.03 -0.01,-0.06 -0.03,-0.08 -0.02,-0.02 -0.04,-0.03 -0.08,-0.03z"/>
  <path id="_16_15" class="fil1" d="M3.03 8.6c0.03,0 0.05,-0.01 0.07,-0.02 0.02,-0.02 0.02,-0.04 0.02,-0.07l0.19 0c0,0.07 -0.03,0.13 -0.08,0.18 -0.05,0.05 -0.12,0.07 -0.2,0.07 -0.1,0 -0.17,-0.03 -0.23,-0.09 -0.06,-0.06 -0.08,-0.14 -0.08,-0.25l0 -0.01c0,-0.07 0.01,-0.13 0.04,-0.18 0.02,-0.05 0.06,-0.09 0.11,-0.12 0.05,-0.03 0.1,-0.04 0.17,-0.04 0.09,0 0.16,0.02 0.21,0.07 0.05,0.05 0.08,0.11 0.08,0.19l-0.19 0c0,-0.03 -0.01,-0.06 -0.03,-0.08 -0.02,-0.02 -0.04,-0.03 -0.07,-0.03 -0.05,0 -0.08,0.03 -0.09,0.1 -0,0.02 -0,0.05 -0,0.09 0,0.07 0.01,0.11 0.02,0.14 0.02,0.03 0.04,0.04 0.08,0.04z"/>
  <path id="_17_16" class="fil1" d="M3.62 8.75l-0.21 0 0 -0.66 0.21 0 0 0.66zm-0.22 -0.84c0,-0.03 0.01,-0.05 0.03,-0.07 0.02,-0.02 0.05,-0.03 0.08,-0.03 0.03,0 0.06,0.01 0.08,0.03 0.02,0.02 0.03,0.04 0.03,0.07 0,0.03 -0.01,0.05 -0.03,0.07 -0.02,0.02 -0.05,0.03 -0.08,0.03 -0.03,0 -0.06,-0.01 -0.08,-0.03 -0.02,-0.02 -0.03,-0.04 -0.03,-0.07z"/>
  <path id="_18_17" class="fil1" d="M4.12 8.75c-0.01,-0.01 -0.01,-0.03 -0.02,-0.06 -0.04,0.05 -0.09,0.07 -0.16,0.07 -0.06,0 -0.12,-0.02 -0.16,-0.06 -0.04,-0.04 -0.07,-0.09 -0.07,-0.14 0,-0.07 0.03,-0.13 0.08,-0.16 0.05,-0.04 0.13,-0.06 0.23,-0.06l0.06 0 0 -0.04c0,-0.06 -0.03,-0.09 -0.08,-0.09 -0.05,0 -0.07,0.02 -0.07,0.07l-0.21 0c0,-0.06 0.03,-0.12 0.08,-0.16 0.05,-0.04 0.12,-0.06 0.21,-0.06 0.08,0 0.15,0.02 0.2,0.06 0.05,0.04 0.07,0.1 0.08,0.17l0 0.29c0,0.06 0.01,0.11 0.03,0.14l0 0.01 -0.21 0zm-0.13 -0.13c0.03,0 0.05,-0.01 0.06,-0.02 0.02,-0.01 0.03,-0.02 0.04,-0.04l0 -0.11 -0.06 0c-0.07,0 -0.11,0.03 -0.11,0.1 0,0.02 0.01,0.03 0.02,0.05 0.01,0.01 0.03,0.02 0.05,0.02z"/>
  <polygon id="_19_18" class="fil1" points="4.63,8.75 4.42,8.75 4.42,7.81 4.63,7.81 "/>
  <path id="_20_19" class="fil1" d="M4.98 8.75l-0.21 0 0 -0.66 0.21 0 0 0.66zm-0.22 -0.84c0,-0.03 0.01,-0.05 0.03,-0.07 0.02,-0.02 0.05,-0.03 0.08,-0.03 0.03,0 0.06,0.01 0.08,0.03 0.02,0.02 0.03,0.04 0.03,0.07 0,0.03 -0.01,0.05 -0.03,0.07 -0.02,0.02 -0.05,0.03 -0.08,0.03 -0.03,0 -0.06,-0.01 -0.08,-0.03 -0.02,-0.02 -0.03,-0.04 -0.03,-0.07z"/>
  <polygon id="_21_20" class="fil1" points="5.35,8.59 5.65,8.59 5.65,8.75 5.09,8.75 5.09,8.64 5.38,8.25 5.1,8.25 5.1,8.09 5.64,8.09 5.64,8.2 "/>
  <path id="_22_21" class="fil1" d="M6.13 8.75c-0.01,-0.01 -0.01,-0.03 -0.02,-0.06 -0.04,0.05 -0.09,0.07 -0.16,0.07 -0.06,0 -0.12,-0.02 -0.16,-0.06 -0.04,-0.04 -0.07,-0.09 -0.07,-0.14 0,-0.07 0.03,-0.13 0.08,-0.16 0.05,-0.04 0.13,-0.06 0.23,-0.06l0.06 0 0 -0.04c0,-0.06 -0.03,-0.09 -0.08,-0.09 -0.05,0 -0.07,0.02 -0.07,0.07l-0.21 0c0,-0.06 0.03,-0.12 0.08,-0.16 0.05,-0.04 0.12,-0.06 0.21,-0.06 0.08,0 0.15,0.02 0.2,0.06 0.05,0.04 0.07,0.1 0.08,0.17l0 0.29c0,0.06 0.01,0.11 0.03,0.14l0 0.01 -0.21 0zm-0.13 -0.13c0.03,0 0.05,-0.01 0.06,-0.02 0.02,-0.01 0.03,-0.02 0.04,-0.04l0 -0.11 -0.06 0c-0.07,0 -0.11,0.03 -0.11,0.1 0,0.02 0.01,0.03 0.02,0.05 0.01,0.01 0.03,0.02 0.05,0.02z"/>
  <path id="_23_22" class="fil1" d="M6.39 8.41c0,-0.11 0.02,-0.19 0.07,-0.25 0.05,-0.06 0.11,-0.09 0.19,-0.09 0.06,0 0.11,0.02 0.15,0.07l0 -0.34 0.21 0 0 0.94 -0.19 0 -0.01 -0.07c-0.04,0.06 -0.1,0.08 -0.16,0.08 -0.08,0 -0.14,-0.03 -0.19,-0.09 -0.05,-0.06 -0.07,-0.15 -0.07,-0.26zm0.21 0.01c0,0.12 0.03,0.18 0.1,0.18 0.05,0 0.08,-0.02 0.1,-0.06l0 -0.25c-0.02,-0.04 -0.05,-0.06 -0.1,-0.06 -0.06,0 -0.1,0.05 -0.1,0.15l-0 0.04z"/>
  <path id="_24_23" class="fil1" d="M7.1 8.41c0,-0.07 0.01,-0.13 0.04,-0.18 0.03,-0.05 0.06,-0.09 0.11,-0.12 0.05,-0.03 0.11,-0.04 0.17,-0.04 0.1,0 0.18,0.03 0.24,0.09 0.06,0.06 0.09,0.15 0.09,0.25l0 0.01c0,0.1 -0.03,0.19 -0.09,0.25 -0.06,0.06 -0.14,0.09 -0.23,0.09 -0.09,0 -0.17,-0.03 -0.23,-0.09 -0.06,-0.06 -0.09,-0.13 -0.09,-0.23l-0 -0.04zm0.21 0.01c0,0.06 0.01,0.11 0.03,0.14 0.02,0.03 0.05,0.04 0.09,0.04 0.07,0 0.11,-0.06 0.11,-0.17l0 -0.02c0,-0.12 -0.04,-0.18 -0.11,-0.18 -0.07,0 -0.11,0.05 -0.11,0.15l-0 0.04z"/>
  <path id="_25_24" class="fil1" d="M8.18 8.57c0,-0.02 -0.01,-0.03 -0.03,-0.04 -0.02,-0.01 -0.05,-0.02 -0.11,-0.03 -0.05,-0.01 -0.09,-0.03 -0.13,-0.05 -0.03,-0.02 -0.06,-0.04 -0.08,-0.07 -0.02,-0.03 -0.03,-0.06 -0.03,-0.09 0,-0.06 0.03,-0.11 0.08,-0.15 0.05,-0.04 0.12,-0.06 0.2,-0.06 0.09,0 0.16,0.02 0.21,0.06 0.05,0.04 0.08,0.09 0.08,0.16l-0.21 0c0,-0.05 -0.03,-0.08 -0.08,-0.08 -0.02,0 -0.04,0.01 -0.05,0.02 -0.01,0.01 -0.02,0.03 -0.02,0.05 0,0.02 0.01,0.03 0.03,0.04 0.02,0.01 0.05,0.02 0.09,0.03 0.04,0.01 0.07,0.02 0.1,0.03 0.1,0.03 0.15,0.1 0.15,0.19 0,0.06 -0.03,0.11 -0.08,0.15 -0.05,0.04 -0.12,0.06 -0.21,0.06 -0.06,0 -0.11,-0.01 -0.15,-0.03 -0.04,-0.02 -0.08,-0.05 -0.1,-0.08 -0.03,-0.04 -0.04,-0.07 -0.04,-0.11l0.19 0c0,0.03 0.01,0.05 0.03,0.07 0.02,0.01 0.04,0.02 0.08,0.02 0.03,0 0.05,-0.01 0.06,-0.02 0.01,-0.01 0.02,-0.03 0.02,-0.04z"/>
  <polygon class="fil1" points="36.43,6.97 36.09,6.97 36.09,7.19 36.49,7.19 36.49,7.35 35.87,7.35 35.87,6.46 36.49,6.46 36.49,6.62 36.09,6.62 36.09,6.81 36.43,6.81 "/>
  <path id="_1_25" class="fil1" d="M36.91 7.17c0,-0.02 -0.01,-0.03 -0.03,-0.04 -0.02,-0.01 -0.05,-0.02 -0.11,-0.03 -0.05,-0.01 -0.09,-0.03 -0.13,-0.05 -0.03,-0.02 -0.06,-0.04 -0.08,-0.07 -0.02,-0.03 -0.03,-0.06 -0.03,-0.09 0,-0.06 0.03,-0.11 0.08,-0.15 0.05,-0.04 0.12,-0.06 0.2,-0.06 0.09,0 0.16,0.02 0.21,0.06 0.05,0.04 0.08,0.09 0.08,0.16l-0.21 0c0,-0.05 -0.03,-0.08 -0.08,-0.08 -0.02,0 -0.04,0.01 -0.05,0.02 -0.01,0.01 -0.02,0.03 -0.02,0.05 0,0.02 0.01,0.03 0.03,0.04 0.02,0.01 0.05,0.02 0.09,0.03 0.04,0.01 0.07,0.02 0.1,0.03 0.1,0.03 0.15,0.1 0.15,0.19 0,0.06 -0.03,0.11 -0.08,0.15 -0.05,0.04 -0.12,0.06 -0.21,0.06 -0.06,0 -0.11,-0.01 -0.15,-0.03 -0.04,-0.02 -0.08,-0.05 -0.1,-0.08 -0.03,-0.04 -0.04,-0.07 -0.04,-0.11l0.19 0c0,0.03 0.01,0.05 0.03,0.07 0.02,0.01 0.04,0.02 0.08,0.02 0.03,0 0.05,-0.01 0.06,-0.02 0.01,-0.01 0.02,-0.03 0.02,-0.04z"/>
  <path id="_2_26" class="fil1" d="M37.45 6.52l0 0.16 0.11 0 0 0.14 -0.11 0 0 0.3c0,0.02 0,0.04 0.01,0.05 0.01,0.01 0.03,0.01 0.05,0.01 0.02,0 0.04,-0 0.05,-0l0 0.15c-0.04,0.01 -0.08,0.02 -0.12,0.02 -0.07,0 -0.12,-0.02 -0.16,-0.05 -0.03,-0.03 -0.05,-0.08 -0.05,-0.15l0 -0.33 -0.08 0 0 -0.14 0.08 0 0 -0.16 0.21 0z"/>
  <path id="_3_27" class="fil1" d="M38.02 7.35c-0.01,-0.01 -0.01,-0.03 -0.02,-0.06 -0.04,0.05 -0.09,0.07 -0.16,0.07 -0.06,0 -0.12,-0.02 -0.16,-0.06 -0.04,-0.04 -0.07,-0.09 -0.07,-0.14 0,-0.07 0.03,-0.13 0.08,-0.16 0.05,-0.04 0.13,-0.06 0.23,-0.06l0.06 0 0 -0.04c0,-0.06 -0.03,-0.09 -0.08,-0.09 -0.05,0 -0.07,0.02 -0.07,0.07l-0.21 0c0,-0.06 0.03,-0.12 0.08,-0.16 0.05,-0.04 0.12,-0.06 0.21,-0.06 0.08,0 0.15,0.02 0.2,0.06 0.05,0.04 0.07,0.1 0.08,0.17l0 0.29c0,0.06 0.01,0.11 0.03,0.14l0 0.01 -0.21 0zm-0.13 -0.13c0.03,0 0.05,-0.01 0.06,-0.02 0.02,-0.01 0.03,-0.02 0.04,-0.04l0 -0.11 -0.06 0c-0.07,0 -0.11,0.03 -0.11,0.1 0,0.02 0.01,0.03 0.02,0.05 0.01,0.01 0.03,0.02 0.05,0.02z"/>
  <path id="_4_28" class="fil1" d="M38.59 7.21c0.03,0 0.05,-0.01 0.07,-0.02 0.02,-0.02 0.02,-0.04 0.02,-0.07l0.19 0c0,0.07 -0.03,0.13 -0.08,0.18 -0.05,0.05 -0.12,0.07 -0.2,0.07 -0.1,0 -0.17,-0.03 -0.23,-0.09 -0.06,-0.06 -0.08,-0.14 -0.08,-0.25l0 -0.01c0,-0.07 0.01,-0.13 0.04,-0.18 0.02,-0.05 0.06,-0.09 0.11,-0.12 0.05,-0.03 0.1,-0.04 0.17,-0.04 0.09,0 0.16,0.02 0.21,0.07 0.05,0.05 0.08,0.11 0.08,0.19l-0.19 0c0,-0.03 -0.01,-0.06 -0.03,-0.08 -0.02,-0.02 -0.04,-0.03 -0.07,-0.03 -0.05,0 -0.08,0.03 -0.09,0.1 -0,0.02 -0,0.05 -0,0.09 0,0.07 0.01,0.11 0.02,0.14 0.02,0.03 0.04,0.04 0.08,0.04z"/>
  <path id="_5_29" class="fil1" d="M39.18 7.35l-0.21 0 0 -0.66 0.21 0 0 0.66zm-0.22 -0.84c0,-0.03 0.01,-0.05 0.03,-0.07 0.02,-0.02 0.05,-0.03 0.08,-0.03 0.03,0 0.06,0.01 0.08,0.03 0.02,0.02 0.03,0.04 0.03,0.07 0,0.03 -0.01,0.05 -0.03,0.07 -0.02,0.02 -0.05,0.03 -0.08,0.03 -0.03,0 -0.06,-0.01 -0.08,-0.03 -0.02,-0.02 -0.03,-0.04 -0.03,-0.07z"/>
  <path id="_6_30" class="fil1" d="M39.28 7.02c0,-0.07 0.01,-0.13 0.04,-0.18 0.03,-0.05 0.06,-0.09 0.11,-0.12 0.05,-0.03 0.11,-0.04 0.17,-0.04 0.1,0 0.18,0.03 0.24,0.09 0.06,0.06 0.09,0.15 0.09,0.25l0 0.01c0,0.1 -0.03,0.19 -0.09,0.25 -0.06,0.06 -0.14,0.09 -0.23,0.09 -0.09,0 -0.17,-0.03 -0.23,-0.09 -0.06,-0.06 -0.09,-0.13 -0.09,-0.23l-0 -0.04zm0.21 0.01c0,0.06 0.01,0.11 0.03,0.14 0.02,0.03 0.05,0.04 0.09,0.04 0.07,0 0.11,-0.06 0.11,-0.17l0 -0.02c0,-0.12 -0.04,-0.18 -0.11,-0.18 -0.07,0 -0.11,0.05 -0.11,0.15l-0 0.04z"/>
  <path id="_7_31" class="fil1" d="M40.21 6.69l0.01 0.08c0.05,-0.06 0.11,-0.09 0.19,-0.09 0.07,0 0.12,0.02 0.16,0.06 0.03,0.04 0.05,0.1 0.05,0.19l0 0.43 -0.21 0 0 -0.42c0,-0.03 -0.01,-0.06 -0.02,-0.07 -0.01,-0.02 -0.04,-0.02 -0.07,-0.02 -0.04,0 -0.07,0.02 -0.09,0.05l0 0.47 -0.21 0 0 -0.66 0.19 0z"/>
  <path id="_8_32" class="fil1" d="M41.1 7.35c-0.01,-0.01 -0.01,-0.03 -0.02,-0.06 -0.04,0.05 -0.09,0.07 -0.16,0.07 -0.06,0 -0.12,-0.02 -0.16,-0.06 -0.04,-0.04 -0.07,-0.09 -0.07,-0.14 0,-0.07 0.03,-0.13 0.08,-0.16 0.05,-0.04 0.13,-0.06 0.23,-0.06l0.06 0 0 -0.04c0,-0.06 -0.03,-0.09 -0.08,-0.09 -0.05,0 -0.07,0.02 -0.07,0.07l-0.21 0c0,-0.06 0.03,-0.12 0.08,-0.16 0.05,-0.04 0.12,-0.06 0.21,-0.06 0.08,0 0.15,0.02 0.2,0.06 0.05,0.04 0.07,0.1 0.08,0.17l0 0.29c0,0.06 0.01,0.11 0.03,0.14l0 0.01 -0.21 0zm-0.13 -0.13c0.03,0 0.05,-0.01 0.06,-0.02 0.02,-0.01 0.03,-0.02 0.04,-0.04l0 -0.11 -0.06 0c-0.07,0 -0.11,0.03 -0.11,0.1 0,0.02 0.01,0.03 0.02,0.05 0.01,0.01 0.03,0.02 0.05,0.02z"/>
  <path id="_9_33" class="fil1" d="M41.59 6.69l0.01 0.08c0.05,-0.06 0.11,-0.09 0.19,-0.09 0.08,0 0.14,0.03 0.17,0.1 0.05,-0.07 0.11,-0.1 0.2,-0.1 0.13,0 0.2,0.08 0.21,0.24l0 0.43 -0.21 0 0 -0.42c0,-0.03 -0.01,-0.06 -0.02,-0.07 -0.01,-0.02 -0.03,-0.02 -0.06,-0.02 -0.04,0 -0.07,0.02 -0.09,0.05l0 0.01 0 0.45 -0.21 0 0 -0.42c0,-0.03 -0.01,-0.06 -0.02,-0.08 -0.01,-0.02 -0.03,-0.02 -0.06,-0.02 -0.04,0 -0.07,0.02 -0.09,0.05l0 0.46 -0.21 0 0 -0.66 0.19 0z"/>
  <path id="_10_34" class="fil1" d="M42.8 7.37c-0.1,0 -0.18,-0.03 -0.25,-0.09 -0.06,-0.06 -0.09,-0.14 -0.09,-0.24l0 -0.02c0,-0.07 0.01,-0.13 0.04,-0.18 0.03,-0.05 0.06,-0.09 0.11,-0.12 0.05,-0.03 0.11,-0.04 0.17,-0.04 0.09,0 0.17,0.03 0.22,0.09 0.05,0.06 0.08,0.14 0.08,0.24l0 0.08 -0.41 0c0.01,0.04 0.02,0.07 0.05,0.09 0.02,0.02 0.06,0.03 0.1,0.03 0.07,0 0.12,-0.02 0.15,-0.07l0.09 0.11c-0.03,0.04 -0.06,0.06 -0.11,0.08 -0.05,0.02 -0.1,0.03 -0.15,0.03zm-0.02 -0.53c-0.06,0 -0.1,0.04 -0.11,0.12l0.21 0 0 -0.02c0,-0.03 -0.01,-0.06 -0.03,-0.08 -0.02,-0.02 -0.04,-0.03 -0.08,-0.03z"/>
  <path id="_11_35" class="fil1" d="M43.36 6.69l0.01 0.08c0.05,-0.06 0.11,-0.09 0.19,-0.09 0.07,0 0.12,0.02 0.16,0.06 0.03,0.04 0.05,0.1 0.05,0.19l0 0.43 -0.21 0 0 -0.42c0,-0.03 -0.01,-0.06 -0.02,-0.07 -0.01,-0.02 -0.04,-0.02 -0.07,-0.02 -0.04,0 -0.07,0.02 -0.09,0.05l0 0.47 -0.21 0 0 -0.66 0.19 0z"/>
  <path id="_12_36" class="fil1" d="M44.12 6.52l0 0.16 0.11 0 0 0.14 -0.11 0 0 0.3c0,0.02 0,0.04 0.01,0.05 0.01,0.01 0.03,0.01 0.05,0.01 0.02,0 0.04,-0 0.05,-0l0 0.15c-0.04,0.01 -0.08,0.02 -0.12,0.02 -0.07,0 -0.12,-0.02 -0.16,-0.05 -0.03,-0.03 -0.05,-0.08 -0.05,-0.15l0 -0.33 -0.08 0 0 -0.14 0.08 0 0 -0.16 0.21 0z"/>
  <path id="_13_37" class="fil1" d="M44.26 7.02c0,-0.07 0.01,-0.13 0.04,-0.18 0.03,-0.05 0.06,-0.09 0.11,-0.12 0.05,-0.03 0.11,-0.04 0.17,-0.04 0.1,0 0.18,0.03 0.24,0.09 0.06,0.06 0.09,0.15 0.09,0.25l0 0.01c0,0.1 -0.03,0.19 -0.09,0.25 -0.06,0.06 -0.14,0.09 -0.23,0.09 -0.09,0 -0.17,-0.03 -0.23,-0.09 -0.06,-0.06 -0.09,-0.13 -0.09,-0.23l-0 -0.04zm0.21 0.01c0,0.06 0.01,0.11 0.03,0.14 0.02,0.03 0.05,0.04 0.09,0.04 0.07,0 0.11,-0.06 0.11,-0.17l0 -0.02c0,-0.12 -0.04,-0.18 -0.11,-0.18 -0.07,0 -0.11,0.05 -0.11,0.15l-0 0.04z"/>
  <path id="_14_38" class="fil1" d="M38.39 8.2l0.01 0.08c0.05,-0.06 0.11,-0.09 0.19,-0.09 0.07,0 0.12,0.02 0.16,0.06 0.03,0.04 0.05,0.1 0.05,0.19l0 0.43 -0.21 0 0 -0.42c0,-0.03 -0.01,-0.06 -0.02,-0.07 -0.01,-0.02 -0.04,-0.02 -0.07,-0.02 -0.04,0 -0.07,0.02 -0.09,0.05l0 0.47 -0.21 0 0 -0.66 0.19 0z"/>
  <path id="_15_39" class="fil1" d="M38.89 8.53c0,-0.07 0.01,-0.13 0.04,-0.18 0.03,-0.05 0.06,-0.09 0.11,-0.12 0.05,-0.03 0.11,-0.04 0.17,-0.04 0.1,0 0.18,0.03 0.24,0.09 0.06,0.06 0.09,0.15 0.09,0.25l0 0.01c0,0.1 -0.03,0.19 -0.09,0.25 -0.06,0.06 -0.14,0.09 -0.23,0.09 -0.09,0 -0.17,-0.03 -0.23,-0.09 -0.06,-0.06 -0.09,-0.13 -0.09,-0.23l-0 -0.04zm0.21 0.01c0,0.06 0.01,0.11 0.03,0.14 0.02,0.03 0.05,0.04 0.09,0.04 0.07,0 0.11,-0.06 0.11,-0.17l0 -0.02c0,-0.12 -0.04,-0.18 -0.11,-0.18 -0.07,0 -0.11,0.05 -0.11,0.15l-0 0.04z"/>
  <polygon id="_16_40" class="fil1" points="40.15,8.86 39.94,8.86 39.94,7.92 40.15,7.92 "/>
  <path id="_17_41" class="fil1" d="M40.25 8.53c0,-0.07 0.01,-0.13 0.04,-0.18 0.03,-0.05 0.06,-0.09 0.11,-0.12 0.05,-0.03 0.11,-0.04 0.17,-0.04 0.1,0 0.18,0.03 0.24,0.09 0.06,0.06 0.09,0.15 0.09,0.25l0 0.01c0,0.1 -0.03,0.19 -0.09,0.25 -0.06,0.06 -0.14,0.09 -0.23,0.09 -0.09,0 -0.17,-0.03 -0.23,-0.09 -0.06,-0.06 -0.09,-0.13 -0.09,-0.23l-0 -0.04zm0.21 0.01c0,0.06 0.01,0.11 0.03,0.14 0.02,0.03 0.05,0.04 0.09,0.04 0.07,0 0.11,-0.06 0.11,-0.17l0 -0.02c0,-0.12 -0.04,-0.18 -0.11,-0.18 -0.07,0 -0.11,0.05 -0.11,0.15l-0 0.04z"/>
  <path id="_18_42" class="fil1" d="M41.27 8.72c0.03,0 0.05,-0.01 0.07,-0.02 0.02,-0.02 0.02,-0.04 0.02,-0.07l0.19 0c0,0.07 -0.03,0.13 -0.08,0.18 -0.05,0.05 -0.12,0.07 -0.2,0.07 -0.1,0 -0.17,-0.03 -0.23,-0.09 -0.06,-0.06 -0.08,-0.14 -0.08,-0.25l0 -0.01c0,-0.07 0.01,-0.13 0.04,-0.18 0.02,-0.05 0.06,-0.09 0.11,-0.12 0.05,-0.03 0.1,-0.04 0.17,-0.04 0.09,0 0.16,0.02 0.21,0.07 0.05,0.05 0.08,0.11 0.08,0.19l-0.19 0c0,-0.03 -0.01,-0.06 -0.03,-0.08 -0.02,-0.02 -0.04,-0.03 -0.07,-0.03 -0.05,0 -0.08,0.03 -0.09,0.1 -0,0.02 -0,0.05 -0,0.09 0,0.07 0.01,0.11 0.02,0.14 0.02,0.03 0.04,0.04 0.08,0.04z"/>
  <path id="_19_43" class="fil1" d="M42.01 8.86c-0.01,-0.01 -0.01,-0.03 -0.02,-0.06 -0.04,0.05 -0.09,0.07 -0.16,0.07 -0.06,0 -0.12,-0.02 -0.16,-0.06 -0.04,-0.04 -0.07,-0.09 -0.07,-0.14 0,-0.07 0.03,-0.13 0.08,-0.16 0.05,-0.04 0.13,-0.06 0.23,-0.06l0.06 0 0 -0.04c0,-0.06 -0.03,-0.09 -0.08,-0.09 -0.05,0 -0.07,0.02 -0.07,0.07l-0.21 0c0,-0.06 0.03,-0.12 0.08,-0.16 0.05,-0.04 0.12,-0.06 0.21,-0.06 0.08,0 0.15,0.02 0.2,0.06 0.05,0.04 0.07,0.1 0.08,0.17l0 0.29c0,0.06 0.01,0.11 0.03,0.14l0 0.01 -0.21 0zm-0.13 -0.13c0.03,0 0.05,-0.01 0.06,-0.02 0.02,-0.01 0.03,-0.02 0.04,-0.04l0 -0.11 -0.06 0c-0.07,0 -0.11,0.03 -0.11,0.1 0,0.02 0.01,0.03 0.02,0.05 0.01,0.01 0.03,0.02 0.05,0.02z"/>
  <polygon id="_20_44" class="fil1" points="42.53,8.86 42.32,8.86 42.32,7.92 42.53,7.92 "/>
 </g>
</svg>
