<?xml version="1.0" encoding="UTF-8"?>
<!DOCTYPE svg PUBLIC "-//W3C//DTD SVG 1.1//EN" "http://www.w3.org/Graphics/SVG/1.1/DTD/svg11.dtd">
<!-- Creator: CorelDRAW 2021 (64 Bit) -->
<svg xmlns="http://www.w3.org/2000/svg" xml:space="preserve" width="29.1396mm" height="65.7366mm" version="1.1" style="shape-rendering:geometricPrecision; text-rendering:geometricPrecision; image-rendering:optimizeQuality; fill-rule:evenodd; clip-rule:evenodd"
viewBox="0 0 1994.32 4499.02"
 xmlns:xlink="http://www.w3.org/1999/xlink"
 xmlns:xodm="http://www.corel.com/coreldraw/odm/2003">
 <defs>
  <style type="text/css">
   <![CDATA[
    .fil2 {fill:#FEFEFE;fill-rule:nonzero}
    .fil1 {fill:#F6E2D7;fill-rule:nonzero}
    .fil0 {fill:#F4C277;fill-rule:nonzero}
   ]]>
  </style>
 </defs>
 <g id="Layer_x0020_1">
  <metadata id="CorelCorpID_0Corel-Layer"/>
  <path class="fil0" d="M111.26 1418.97c66.72,60.18 150.91,100.16 235.29,135.86 136.25,57.68 280.5,107.34 430,107.73 46.83,0.12 94.39,-4.8 137.66,-21.61 67.06,-26.07 119.32,-79.5 151.64,-140.46 32.31,-60.96 46.18,-129.18 51.88,-197.05 3.95,-47.01 4.03,-95.11 -10.22,-140.34 -14.86,-47.18 -44.74,-89.14 -79.45,-126.04 -101.13,-107.48 -247.79,-176.21 -400.16,-187.54 -297.14,-22.07 -869.32,251.35 -516.65,569.45z"/>
  <path class="fil1" d="M1238.49 1931.35c-56.53,93.37 -60.61,203.76 -63.44,309.79 -2.12,79.71 -4.26,159.41 -6.4,239.12 -2.24,84.23 -6.16,173.37 -58.67,243.55 -55.23,73.8 -154.87,113.52 -216.21,183.49 -80.17,91.43 -81.93,218.49 -60.67,332.97 21.26,114.47 62.03,228.06 54.36,343.61 -5.63,85 -36.79,173.65 0.18,252.74 29.42,62.94 87.38,121.95 155,155.5 66.77,33.13 147.64,48.72 224.03,51.69 173.42,6.73 319.62,-79.35 423.06,-192.97 96.33,-105.81 168.86,-250.22 206.06,-392.69 104.47,-400.05 141.13,-833.42 34.05,-1234.69 -47.21,-176.9 -124.21,-324.23 -300.45,-395.79 -155.93,-63.31 -308.67,-32.11 -390.9,103.67z"/>
  <path class="fil2" d="M1470.44 3429.3l-3.05 -0.44c-0.55,3.9 -0.8,7.78 -0.8,11.64 0.02,18.29 5.31,36.12 8.27,53.51 2.18,12.68 2.91,25.49 2.91,38.41 0,18.28 -1.47,36.75 -2.35,55.31l3.09 0.15 -1.79 -2.51c-38.87,27.5 -82.99,46.98 -126.41,67.67 -176.95,84.35 -346.83,193.27 -469.41,346.78 -29.4,36.83 -57.56,78.75 -64.2,126.22l3.05 0.42 -2.31 -2.02c-2.11,2.43 -4.09,4.53 -6.22,5.47 -1,0.47 -2.13,0.69 -3.29,0.69 -2.45,0.01 -4.94,-1.06 -6.43,-2.8 -0.89,-1.04 -1.13,-1.96 -1.16,-3.46 -0.02,-1.81 0.6,-4.25 1.15,-7.02 6.93,-35.77 11.73,-64.75 11.73,-95.71 0,-19.2 -1.85,-39.14 -6.15,-61.86 -49.6,-261.55 -181.49,-483.76 -308.56,-697.9l-2.66 1.57 2.91 1.01c15.6,-44.72 59.13,-73.85 91.07,-111.5l-2.35 -1.99 -1.66 2.59c181.91,116.93 378.1,185.17 586.63,241.17 79.73,21.41 176.37,39.32 257.73,39.33 14.02,0 27.58,-0.53 40.54,-1.68l-0.27 -3.06 -3.05 -0.44 3.05 0.44 -0.28 -3.07c-12.74,1.12 -26.13,1.64 -39.99,1.64 -80.48,0.01 -176.79,-17.79 -256.14,-39.1 -208.26,-55.94 -403.77,-124 -584.9,-240.41l-2.27 -1.46 -1.75 2.06c-30.99,36.83 -75.44,66.17 -92.18,113.44l-0.47 1.36 0.73 1.23c127.09,214.16 258.49,435.72 307.8,695.91 4.26,22.39 6.06,41.91 6.06,60.71 0,30.3 -4.71,58.84 -11.63,94.54 -0.47,2.48 -1.24,5.18 -1.26,8.19 -0.03,2.44 0.66,5.24 2.67,7.5 2.83,3.24 6.94,4.91 11.08,4.92 1.96,0 3.97,-0.39 5.84,-1.24 3.73,-1.72 6.16,-4.61 8.29,-7.02l0.61 -0.7 0.13 -0.91c6.32,-45.53 33.7,-86.69 62.92,-123.23 121.71,-152.43 290.76,-260.93 467.24,-345.05 43.31,-20.65 87.76,-40.24 127.32,-68.21l1.23 -0.86 0.07 -1.5c0.87,-18.44 2.35,-37.01 2.35,-55.61 0,-13.15 -0.74,-26.32 -2.99,-39.45 -3.08,-17.86 -8.21,-35.38 -8.19,-52.47 0,-3.6 0.23,-7.2 0.74,-10.77l0.55 -3.84 -3.87 0.34 0.28 3.07z"/>
  <path class="fil2" d="M544.57 3208.98c7.54,13.01 19.43,22.29 31.02,30.7 72.31,52.34 155.02,87.6 236.73,122.37l2.41 -5.67c-81.71,-34.75 -163.98,-69.89 -235.53,-121.71 -11.47,-8.28 -22.59,-17.14 -29.31,-28.78l-5.32 3.08z"/>
  <path class="fil2" d="M1232.13 3486.05c59.17,12.12 119.7,24.34 180.15,24.34 19.98,0 39.96,-1.33 59.87,-4.47l-0.96 -6.08c-19.55,3.07 -39.21,4.38 -58.91,4.38 -59.62,0.01 -119.76,-12.08 -178.92,-24.21l-1.23 6.04z"/>
  <path class="fil2" d="M1550.22 3067.74l-2.54 -1.75c-11.44,16.64 -36.17,34.94 -63.57,50 -27.4,15.1 -57.54,27.14 -79.71,31.94 -70.9,15.43 -146.62,22.94 -223.3,22.94 -93.45,0 -188.32,-11.14 -277.68,-32.64 -36.32,-8.74 -71.75,-20.86 -105.86,-36.14 -25.01,-11.19 -51.82,-23.13 -74.34,-38.55 -22.54,-15.41 -40.66,-34.17 -48.85,-59.02 -1.32,-4.02 -1.85,-8.09 -1.85,-12.28 -0.08,-15.12 7.34,-31.61 9.19,-48.76 0.7,-6.9 1,-13.9 1,-20.96 0,-18.3 -1.97,-36.9 -3.78,-54.45 -1.3,-12.63 -0.44,-25.67 -1.03,-38.94 -3.24,-67.9 -42.96,-128.1 -54.81,-193.02l-3.03 0.56 2.3 2.03c28.53,-32.24 36.44,-71.39 44.48,-112.6 8.08,-41.58 9.38,-83.92 12.6,-125.72 9.79,-127.2 39.7,-256.97 116.3,-358.22l-2.45 -1.85 1.1 2.87 0.84 -0.18 1.06 0.53c0.57,0.49 1.36,1.45 2.26,2.66 1.99,2.53 3.43,6.36 6.67,9.74 3.72,3.72 8.38,5.18 12.55,6.52 4.22,1.32 8,2.54 10.55,4.79 2.9,2.42 4.78,6.76 7.86,11.04 2.75,3.64 6.93,7.15 12.31,7.25l0.73 -0.03 -0.21 -3.07 -2.39 1.94 1.03 1.28 2.4 -1.93 -2.83 -1.2c-17.51,41.26 -24.01,86.29 -24.01,131.09 0,10.86 0.38,21.7 1.09,32.49 2.62,40.22 6.32,80.94 18.33,119.81 12.04,38.89 33.02,76.16 65.29,101.6 38.97,30.7 88.95,46.87 138.13,50.78 24.22,1.92 47.24,3.14 69.71,3.14 49.58,0.01 96.49,-6 147.37,-23.73 61.46,-21.44 133.18,-65.44 160.29,-139.86 11.08,-30.49 16.08,-62.78 18.88,-94.74 1.27,-14.39 1.85,-31.59 1.85,-49.81 0,-39.29 -2.7,-83.34 -7.22,-114.09 -3.93,-26.72 -9.74,-54.08 -23.67,-77.88 -13.24,-22.55 -29.35,-44.81 -56.63,-54.33l-1.02 2.92 3.04 -0.47 -0.13 -1.68c0,-1.32 0.28,-2.5 0.78,-3.38 0.32,-0.7 1.72,-1.66 3.38,-3.5 2.96,-3.68 3.14,-7.84 3.97,-10.73l0.42 -1.37 0.11 -0.25 -0.81 -0.55 0.37 0.89 0.44 -0.34 -0.81 -0.55 0.37 0.89 -0.14 -0.33 0.05 0.36 0.08 -0.03 -0.14 -0.33 0.05 0.36 0.31 -0.02 1.19 0.08c55.53,6.08 95.93,40.87 128.46,83.62 32.54,42.75 55.19,87.75 74.75,137.98 16.73,42.99 30.84,92.2 38.96,137.59 4.69,26.23 6.43,53.09 10.09,79.87 8.84,64.61 28.93,127.63 59.07,185.44l2.74 -1.42 -3.07 -0.21c-3.16,45.44 -9.92,89.74 -21.37,133.78 -4.78,18.37 -10.26,36.57 -15.76,54.81 -12.46,41.35 -24.92,82.71 -37.38,124.05 -5.58,18.51 -11.19,37.13 -15.18,56.23 -3.04,14.56 -5.09,29.19 -8.07,43.49 -6.23,29.94 -16.42,56.78 -33.7,81.81l2.54 1.75 2.54 1.76c17.81,-25.81 28.31,-53.54 34.65,-84.06 3.03,-14.57 5.08,-29.2 8.07,-43.49 3.91,-18.75 9.47,-37.2 15.04,-55.7 12.46,-41.35 24.93,-82.7 37.4,-124.05 5.49,-18.25 11.01,-36.53 15.82,-55.05 11.55,-44.44 18.36,-89.14 21.56,-134.9l0.05 -0.87 -0.4 -0.77c-29.82,-57.17 -49.69,-119.54 -58.43,-183.42 -3.63,-26.49 -5.37,-53.44 -10.14,-80.13 -8.19,-45.85 -22.39,-95.36 -39.28,-138.73 -19.68,-50.57 -42.6,-96.16 -75.58,-139.49 -32.96,-43.33 -74.79,-79.66 -132.68,-86l-1.88 -0.12 -2.29 0.35c-1.25,0.39 -2.37,1.48 -2.89,2.46 -0.54,1.01 -0.81,1.95 -1.11,3.04 -0.89,3.69 -1.35,6.8 -2.75,8.36 -0.66,0.92 -2.49,1.97 -3.98,4.39 -1.18,2.07 -1.59,4.33 -1.59,6.45l0.2 2.61 0.29 1.83 1.75 0.62c25.01,8.7 40.28,29.35 53.34,51.64 13.28,22.63 19.03,49.19 22.89,75.65 4.46,30.29 7.16,74.2 7.16,113.2 0,18.1 -0.58,35.14 -1.82,49.27 -2.78,31.69 -7.73,63.45 -18.54,93.17 -26.01,71.75 -96,115.1 -156.52,136.15 -50.18,17.49 -96.24,23.39 -145.34,23.39 -22.24,0 -45.1,-1.21 -69.21,-3.12 -48.19,-3.82 -97.06,-19.71 -134.81,-49.48 -30.97,-24.39 -51.46,-60.54 -63.2,-98.57 -11.77,-38.05 -15.47,-78.27 -18.08,-118.4 -0.69,-10.66 -1.07,-21.37 -1.07,-32.08 0,-44.21 6.43,-88.42 23.51,-128.69l0.72 -1.7 -2.2 -2.72 -1.01 -1.26 -1.6 0.12 -0.31 0.01c-2.2,0.11 -5.39,-2.02 -7.36,-4.75 -2.57,-3.38 -4.48,-8.23 -8.77,-12.03 -3.94,-3.37 -8.61,-4.67 -12.72,-6 -4.16,-1.3 -7.72,-2.61 -10.02,-4.99 -2.11,-2.06 -3.54,-5.59 -6.15,-9.12 -0.94,-1.23 -1.86,-2.46 -3.11,-3.58 -1.23,-1.1 -3.03,-2.07 -5.12,-2.05 -1.03,0 -2.05,0.22 -3.05,0.6l-0.82 0.32 -0.54 0.7c-77.67,102.71 -107.66,233.66 -117.52,361.47 -3.24,41.99 -4.54,84.08 -12.5,125.01 -8.03,41.29 -15.85,79.03 -43.05,109.72l-0.99 1.12 0.27 1.48c12.37,66.56 51.79,126.55 54.71,192.19 0.6,12.79 -0.29,25.96 1.07,39.27 1.81,17.57 3.74,35.97 3.74,53.83 0,6.88 -0.29,13.67 -0.97,20.32 -1.57,15.8 -9.15,32.4 -9.22,49.4 0,4.72 0.61,9.49 2.16,14.19 8.77,26.62 28.07,46.36 51.22,62.19 23.17,15.84 50.31,27.88 75.3,39.08 34.45,15.43 70.23,27.66 106.94,36.51 89.85,21.6 185.19,32.8 279.11,32.8 77.09,0 153.22,-7.54 224.61,-23.07 23.05,-5.03 53.49,-17.22 81.36,-32.57 27.88,-15.39 53.11,-33.77 65.69,-51.9l-2.54 -1.76z"/>
  <path class="fil2" d="M694.43 2956.11c52.58,57.21 132.29,78.37 207.63,92.24 109.99,20.22 221.83,30.38 333.65,30.38 29,0 58,-0.68 86.98,-2.05 53.64,-2.55 128.29,-15.49 178.43,-35.32l-2.27 -5.71c-49.07,19.44 -123.53,32.4 -176.46,34.88 -28.87,1.37 -57.78,2.05 -86.68,2.05 -111.45,0 -222.92,-10.14 -332.54,-30.28 -75.07,-13.77 -153.37,-34.91 -204.2,-90.35l-4.54 4.17 0 0z"/>
  <path class="fil2" d="M799.69 2877.89c-34.58,-9.65 -67.93,-23.69 -99.02,-41.65 -3.61,-2.09 -7.41,-4.76 -10.14,-7.68 -2.75,-2.95 -4.33,-6.01 -4.32,-9.01l0.24 -2.09 -3 -0.7 -0.15 3.09c12,0.58 23.57,6.34 35.25,11.97 94.15,45.18 198.52,68.65 302.93,68.65 23.49,0 46.99,-1.19 70.38,-3.59l-0.62 -6.13c-23.18,2.39 -46.48,3.55 -69.76,3.55 -103.48,0 -206.98,-23.27 -300.27,-68.04 -11.59,-5.55 -23.82,-11.84 -37.59,-12.57l-2.57 -0.13 -0.59 2.5c-0.27,1.18 -0.4,2.35 -0.4,3.5 0.01,5.2 2.64,9.64 5.99,13.21 3.37,3.61 7.6,6.52 11.55,8.8 31.53,18.24 65.36,32.47 100.45,42.26l1.65 -5.93 0 0z"/>
  <path class="fil2" d="M492.11 3258.71c-143.05,192.37 -257.09,411.45 -272.47,651.23 -0.55,8.78 -0.83,17.8 -0.83,27.03 0.06,168.1 89.14,407.5 129.69,561.09l5.95 -1.57c-40.72,-153.98 -129.54,-393.35 -129.48,-559.52 0,-9.11 0.27,-18 0.82,-26.63 15.24,-238.04 128.58,-456.1 271.26,-647.96l-4.94 -3.68z"/>
  <path class="fil2" d="M370.62 4161.34c63.92,50.97 148.47,66.53 229.95,66.54 5.28,0 10.55,-0.06 15.8,-0.18 19.27,-0.46 38.72,-1.65 57.83,-5.5 52.36,-10.55 100.11,-41.71 131.08,-85.16l2.26 -1.16c1.03,0.05 1.67,0.41 2.02,1.31 3.59,9.54 2.66,21.59 3.65,33.36 4.88,54.83 34.12,96.23 70.99,128.41 32.86,28.7 76.3,44.71 119.86,44.71 5.71,0 11.44,-0.27 17.13,-0.83l-0.6 -6.13c-5.49,0.53 -11.01,0.8 -16.54,0.8 -42.05,0.01 -84.13,-15.5 -115.81,-43.19 -36.14,-31.61 -64.17,-71.48 -68.89,-124.32 -1.03,-11.04 0.14,-23.56 -4.02,-34.96 -1.28,-3.51 -4.66,-5.37 -7.8,-5.32 -2.7,-0.01 -5.49,1.24 -7.27,3.74 -30.04,42.16 -76.54,72.48 -127.3,82.7 -18.55,3.74 -37.63,4.92 -56.76,5.38 -5.19,0.12 -10.42,0.18 -15.65,0.18 -80.74,0.01 -163.88,-15.52 -226.11,-65.2l-3.84 4.83 0 -0.01z"/>
  <path class="fil2" d="M863.78 4497.9c0.7,-51.39 1.42,-102.77 6.63,-153.73 1.37,-13.52 3.13,-26.95 8.26,-38.96 0.6,-1.4 1.6,-2.98 2.66,-4.04 1.05,-1.1 2.05,-1.5 2.49,-1.47l0.62 0.18c0.49,0.18 1.29,1.23 2.04,2.87 8.73,18.12 13.69,38.01 18.62,57.96 11.33,45.79 22.66,91.58 33.99,137.38l5.97 -1.48c-11.33,-45.79 -22.65,-91.59 -33.99,-137.38 -4.94,-19.94 -9.96,-40.26 -19.05,-59.15 -0.87,-1.7 -1.96,-4.19 -4.78,-5.69 -1.09,-0.56 -2.28,-0.86 -3.43,-0.84 -2.93,0.03 -5.17,1.57 -6.88,3.29 -1.72,1.77 -3.04,3.87 -3.94,5.95 -5.56,13.07 -7.32,27.14 -8.73,40.76 -5.24,51.32 -5.95,102.88 -6.67,154.27l6.17 0.08 0 0z"/>
  <path class="fil2" d="M1475 3586.79c14.69,71.38 16.4,144.88 17.34,218.08 0.44,33.86 0.78,67.91 0.78,102.04 0.01,201.24 -11.92,405.3 -86.5,589.8l5.71 2.31c75.08,-185.79 86.94,-390.64 86.95,-592.11 0,-34.17 -0.34,-68.26 -0.78,-102.11 -0.94,-73.25 -2.63,-147.15 -17.46,-219.25l-6.03 1.25z"/>
  <path class="fil2" d="M1536.13 3080.3c-15.78,46.2 -29.97,92.96 -42.53,140.15 -4.15,15.6 -8.15,31.36 -10.82,47.45 -2.65,16.03 -3.93,32.17 -5.21,48.2 -3.11,39.06 -7.08,73.76 -10.2,112.95l6.14 0.49c3.11,-39.07 7.08,-73.76 10.21,-112.97 1.27,-16.03 2.55,-31.98 5.14,-47.67 2.61,-15.74 6.55,-31.31 10.7,-46.87 12.53,-47.05 26.68,-93.67 42.41,-139.75l-5.84 -1.98z"/>
  <path class="fil2" d="M669.49 3004.03c-19.66,53.73 -45.7,99.53 -80.47,145.05l4.9 3.74c35.08,-45.92 61.49,-92.35 81.36,-146.68l-5.79 -2.11z"/>
  <path class="fil2" d="M630.46 1182.05l-1.75 -2.53c-27.35,19.02 -44.96,49.57 -52.6,81.65 -3.61,15.18 -5.13,30.69 -5.13,46.22 0,17.25 1.88,34.51 4.87,51.41 11.75,66.37 47.65,128.56 108.66,158.51 25.32,12.4 53.1,17.29 79.1,25.71 36.99,11.94 69.09,37.01 103.86,56.62 22,12.37 44.22,25.17 58.8,44.71 11.31,15.05 17.69,33.87 28.35,50.77 19.97,31.5 53.38,52.38 88.64,63.19 31.13,9.54 63.77,11.88 96.08,11.88 4.27,0 8.53,-0.04 12.78,-0.1 25.27,-0.44 51.58,-2.01 75.16,-12.89 23.61,-10.96 43.9,-33.12 45.3,-59.84 0.17,-3.78 0.04,-7.51 0.34,-10.85 0.29,-3.36 1,-6.22 2.61,-8.56 1.75,-2.53 4.41,-4.26 7.76,-5.65 3.34,-1.4 7.28,-2.38 11.13,-3.59 30.76,-9.77 52.71,-40.74 52.77,-72.79 0,-2.39 -0.13,-4.78 -0.38,-7.18 -0.26,-2.42 -0.55,-4.89 -0.55,-7.1 0.01,-3.4 0.66,-5.84 2.36,-7.38 1.38,-1.26 3.31,-1.81 6.02,-2.04 2.67,-0.24 5.83,-0.09 9.13,-0.59 7.44,-1.15 13.3,-5.82 17.23,-11.74 3.94,-5.94 6.13,-13.22 6.34,-20.27l0.03 -1.59c-0.04,-13.2 -4.73,-25.37 -7.19,-37.26 -4.83,-22.81 -2.31,-48.07 -11.74,-71.18 -11.35,-27.45 -38.81,-46.09 -67.91,-50.16 -4.48,-0.62 -8.97,-0.92 -13.44,-0.92 -24.65,0.01 -49,9.01 -68.95,23.37 -32.6,23.47 -54.2,61.39 -57.76,101.41 -0.35,3.94 -0.53,7.9 -0.53,11.86 0.01,36.15 14.35,72.13 39.57,98.12 18.19,18.75 42.78,32.66 69.34,33.43l1.24 0.02c13.13,-0.04 28.66,-5.6 41.25,-12.87 6.28,-3.65 11.82,-7.73 15.91,-11.94 4.04,-4.22 6.88,-8.56 6.95,-13.37l-0.27 -2.37 -0.15 -0.62 -0.38 -0.49c-1.96,-2.76 -5.08,-4.31 -8.17,-4.25 -4.61,0.08 -8.95,2.54 -13.61,5.93 -6.95,5.15 -14.54,12.87 -22.13,20.49 -7.57,7.61 -15.13,15.12 -21.49,19.61 -10.09,7.15 -22.24,10.44 -34.73,10.44 -15.25,0.01 -30.97,-4.94 -43.63,-13.62 -23.19,-15.83 -37.93,-42.14 -46.35,-69.54 -5.48,-17.78 -8.46,-36.61 -8.46,-55.28 0,-28.26 6.82,-56.1 21.98,-79.56 20,-30.98 56.57,-52.09 92.6,-52.05 9.14,0 18.24,1.35 27.07,4.2 3.61,1.15 7.72,2.74 12.27,2.76 1.69,0 3.46,-0.23 5.21,-0.86 3.8,-1.33 6.54,-4.11 8.07,-7.32 1.55,-3.23 2.09,-6.86 2.1,-10.53 -0.01,-5 -1.03,-10.14 -2.42,-14.55 -34.91,-109.98 -102.08,-213.29 -201.37,-272.9 -52.38,-31.42 -114.13,-48.65 -175.1,-48.66 -54.72,0 -108.83,13.89 -154.86,43.97 -14.49,9.49 -27.88,20.21 -42.79,27.7 -12.38,6.25 -26.39,10.45 -38.76,18.68 -5.37,3.58 -10.4,8.1 -14.25,13.51 -2.33,3.34 -3.26,7.43 -4.23,11.11 -0.88,3.67 -1.92,6.96 -2.84,7.9 -2.24,2.84 -9.32,5.76 -17.01,8.27 -7.73,2.63 -16.01,5.08 -21.7,8.99l1.75 2.53 1.76 2.54c4.29,-3.03 12.36,-5.62 20.16,-8.21 7.81,-2.71 15.39,-5.21 19.73,-10.12 2.4,-2.95 3.12,-6.69 4.12,-10.38 0.9,-3.66 1.93,-7.25 3.28,-9.06 3.31,-4.65 7.79,-8.71 12.65,-11.96 11.31,-7.59 25.05,-11.76 38.1,-18.29 15.68,-7.9 29.23,-18.79 43.4,-28.03 44.89,-29.33 97.79,-42.97 151.48,-42.97 59.81,0 120.53,16.95 171.94,47.79 97.62,58.55 164.11,160.57 198.67,269.48 1.25,3.91 2.14,8.53 2.14,12.68 0.01,3.04 -0.49,5.8 -1.49,7.83 -1.02,2.03 -2.35,3.38 -4.61,4.22 -0.99,0.35 -2.01,0.5 -3.13,0.5 -2.98,0.03 -6.63,-1.23 -10.37,-2.46 -9.48,-3.06 -19.23,-4.5 -28.97,-4.5 -38.43,0.04 -76.58,22.15 -97.77,54.87 -15.93,24.62 -22.98,53.67 -22.98,82.9 0,19.33 3.08,38.74 8.73,57.1 8.69,28.2 23.94,55.79 48.76,72.8 13.72,9.38 30.53,14.69 47.11,14.69 13.56,0.01 27.01,-3.59 38.3,-11.57 9.38,-6.67 19.9,-18.08 29.81,-27.81 4.93,-4.85 9.7,-9.27 13.91,-12.37 4.19,-3.16 7.88,-4.8 9.94,-4.73 1.38,0.06 2.1,0.35 3.22,1.76l2.48 -1.84 -2.99 0.73 0.1 0.92c0.08,1.98 -1.64,5.45 -5.22,9.08 -10.57,11.08 -35.63,23.07 -52.73,22.94l-1.06 -0.02c-24.46,-0.67 -47.76,-13.68 -65.11,-31.56 -24.05,-24.77 -37.83,-59.31 -37.82,-93.82 0,-3.78 0.16,-7.56 0.51,-11.32 3.35,-38.16 24.11,-74.59 55.21,-96.95 19.03,-13.71 42.23,-22.22 65.36,-22.22 4.2,0 8.41,0.28 12.59,0.86 27.13,3.74 52.8,21.33 63.07,46.4 8.79,21.16 6.47,46.02 11.42,70.1 2.65,12.52 7.08,24.34 7.05,36.01l-0.02 1.41c-0.18,5.9 -2.07,12.19 -5.3,17.03 -3.26,4.87 -7.69,8.24 -13.05,9.08 -2.46,0.39 -5.5,0.27 -8.71,0.53 -3.16,0.27 -6.71,0.97 -9.64,3.62 -3.61,3.33 -4.37,7.9 -4.37,11.94 0.01,2.73 0.34,5.4 0.58,7.75 0.24,2.18 0.35,4.36 0.35,6.54 0.05,29.23 -20.48,58.15 -48.46,66.91 -3.61,1.14 -7.7,2.14 -11.63,3.76 -3.91,1.62 -7.77,3.94 -10.47,7.85 -2.48,3.6 -3.34,7.64 -3.69,11.5 -0.34,3.88 -0.18,7.69 -0.36,11.1 -1.09,23.58 -19.64,44.34 -41.73,54.54 -22.14,10.27 -47.58,11.92 -72.68,12.33 -4.22,0.06 -8.45,0.1 -12.68,0.1 -32.01,0.01 -64.04,-2.34 -94.28,-11.61 -34.21,-10.47 -66.33,-30.7 -85.24,-60.59 -10.2,-16.03 -16.58,-35.02 -28.61,-51.17 -15.66,-20.89 -38.74,-33.99 -60.73,-46.39 -34.24,-19.25 -66.62,-44.66 -104.99,-57.11 -26.55,-8.57 -54.01,-13.46 -78.27,-25.37 -58.76,-28.81 -93.8,-89.07 -105.31,-154.06 -2.95,-16.64 -4.78,-33.55 -4.78,-50.34 0,-15.13 1.48,-30.15 4.98,-44.8 7.34,-30.87 24.31,-60.09 50.1,-78l-1.76 -2.54z"/>
  <path class="fil2" d="M592.79 1420.41l0.06 1.78c0.02,8.25 -3.7,16.47 -7.72,25.09 -3.98,8.62 -8.27,17.63 -8.29,27.81l0 0.64c0.29,14.1 8.56,24.99 16.89,35.27 8.42,10.29 17.04,20.18 19.79,31.61 0.73,3.04 1.05,6.1 1.05,9.22 0.02,11.6 -4.62,23.84 -8.83,35.88 -6.36,18.35 -11.35,37.91 -11.37,57.52 0,7.57 0.75,15.13 2.46,22.62 7.31,31.77 30.13,56.42 49.38,81.13 28.82,36.85 52.53,77.71 70.24,121.03 2.09,5.09 4.25,10.75 8.51,15.39 5.5,5.93 13.02,8.64 19.9,10.75 19.6,6 40.09,9 60.57,9 17.78,0 35.57,-2.27 52.77,-6.81l1.66 -0.43 0.5 -1.63c0.64,-2.1 0.92,-4.33 0.92,-6.6 -0.01,-5.76 -1.72,-11.85 -4.5,-16.78 -1.41,-2.46 -3.08,-4.64 -5.1,-6.3 -2,-1.64 -4.46,-2.81 -7.19,-2.82l-2.53 0.35 -0.28 0.07 -0.25 0.12c-0.94,0.44 -1.64,1.33 -1.91,2.07l-0.36 1.98c0.05,2.21 0.82,4.35 1.92,7.09 3.35,8.02 10.32,19.81 15.75,26.77 22.06,28.12 35.59,62.89 38.36,98.51 0.24,3.04 0.39,6.08 0.39,9.08 0,6.18 -0.66,12.2 -2.55,17.81 -2.53,7.51 -7.31,14.33 -12.65,20.81 -9.62,11.66 -20.74,22.11 -32.98,31l3.63 4.99c12.65,-9.2 24.15,-20.01 34.1,-32.08 5.52,-6.7 10.81,-14.08 13.74,-22.76 2.18,-6.45 2.86,-13.16 2.86,-19.77 0,-3.21 -0.16,-6.41 -0.41,-9.56 -2.87,-36.85 -16.84,-72.73 -39.65,-101.83 -3.29,-4.2 -7.5,-10.84 -10.81,-16.95 -1.66,-3.06 -3.09,-5.98 -4.09,-8.39 -1.01,-2.35 -1.5,-4.37 -1.45,-4.72l-0.17 0 0.17 0.03 0 -0.03 -0.17 0 0.17 0.03 -2.07 -0.33 0.87 1.79c0.94,-0.44 1.22,-1.38 1.2,-1.46l-2.07 -0.33 0.87 1.79 -1.35 -2.77 0.81 2.98 0.9 -0.13c0.94,0 2.03,0.4 3.29,1.42 3.85,3 7.45,11.55 7.34,18.32 0,1.78 -0.22,3.41 -0.65,4.78l2.95 0.9 -0.79 -2.98c-16.67,4.4 -33.93,6.6 -51.19,6.6 -19.88,0 -39.76,-2.92 -58.76,-8.72 -6.67,-2.03 -13.07,-4.54 -17.18,-9.04 -3.24,-3.48 -5.24,-8.38 -7.34,-13.54 -17.92,-43.84 -41.91,-85.19 -71.08,-122.51 -19.55,-24.93 -41.52,-49.06 -48.23,-78.7 -1.59,-6.98 -2.3,-14.08 -2.3,-21.24 0,-18.55 4.78,-37.5 11.03,-55.5 4.12,-11.92 9.14,-24.69 9.16,-37.9 0,-3.54 -0.37,-7.12 -1.23,-10.68 -3.31,-13.46 -12.75,-23.87 -20.98,-34.05 -8.33,-10.2 -15.34,-19.96 -15.52,-31.49l0 -0.53c-0.03,-8.34 3.69,-16.59 7.71,-25.21 3.97,-8.6 8.26,-17.59 8.29,-27.69l-0.07 -2.16 -6.15 0.38z"/>
  <path class="fil2" d="M1229.17 1752.76c9.62,50.37 26.11,99.42 48.87,145.37 5.28,10.64 11.01,21.36 18.77,30.79 15.19,18.47 36.68,32.57 57.31,43.71l2.92 -5.42c-20.29,-10.95 -41.14,-24.75 -55.48,-42.2 -7.25,-8.82 -12.78,-19.09 -18,-29.63 -22.52,-45.44 -38.83,-93.96 -48.35,-143.77l-6.05 1.15z"/>
  <path class="fil2" d="M793.6 1687.99c-0.65,4.89 -3.2,9.6 -6.95,12.81 -4.37,3.89 -11.46,6.02 -16.68,11.95 -4.56,5.45 -5.74,11.97 -8.22,16.85 -1,2.05 -2.52,4.09 -4.21,5.5 -1.7,1.42 -3.46,2.17 -5.07,2.16l-1.23 -0.14c-2.62,-0.5 -5.04,-3.68 -5.66,-7.17 -0.18,-1.02 -0.27,-2.07 -0.27,-3.18 -0.01,-2.75 0.53,-5.75 1.07,-8.89 2.03,-12.11 3.09,-24.43 3.09,-36.75 0,-33.02 -7.56,-66.04 -24.03,-94.71 -6.19,-10.68 -13.23,-20.59 -15.64,-31.59 -0.49,-2.18 -0.73,-4.48 -0.73,-6.8 0,-9.08 3.84,-17.79 11.07,-21.13l1.83 -0.43c1.31,-0.03 3.05,0.7 4.98,2.14 1.92,1.42 3.93,3.4 5.93,5.28 4.3,4 7.37,9.5 10.17,15.3 12.2,25.21 19.15,52.96 20.28,80.94 0.12,2.72 0.24,5.78 0.94,8.82 0.7,3.01 2.05,6.12 4.74,8.47l2.13 1.85 2.03 -1.95c3.47,-3.37 4.36,-7.93 4.36,-12.03 -0.01,-2.05 -0.23,-4.04 -0.52,-5.91 -4.54,-27.4 -20.85,-51.28 -21.2,-76.86l-3.08 0.05 1.66 2.59c1.07,-0.68 2.32,-1.01 3.75,-1.01 2.08,-0.01 4.47,0.78 6.32,2.07 3.29,2.22 5.83,5.95 8.43,9.96l5.16 -3.37c-2.63,-4 -5.52,-8.49 -10.1,-11.67 -2.85,-1.94 -6.28,-3.14 -9.81,-3.15 -2.4,-0.01 -4.89,0.58 -7.08,1.99l-1.44 0.92 0.03 1.72c0.65,28.06 17.28,52.15 21.28,77.73 0.25,1.63 0.44,3.33 0.43,4.92 0,3.31 -0.74,5.95 -2.48,7.6l2.15 2.22 2.02 -2.33c-1.4,-1.21 -2.24,-2.94 -2.78,-5.22 -0.53,-2.27 -0.68,-4.98 -0.79,-7.67 -1.16,-28.83 -8.32,-57.39 -20.88,-83.38 -2.9,-5.97 -6.26,-12.2 -11.53,-17.12 -1.91,-1.79 -4.06,-3.92 -6.47,-5.72 -2.42,-1.77 -5.24,-3.33 -8.64,-3.35 -1.46,-0.01 -3.01,0.33 -4.47,1.01 -10.18,4.88 -14.6,16.08 -14.6,26.71 0,2.75 0.29,5.5 0.88,8.14 2.83,12.65 10.4,23 16.3,33.32 15.86,27.59 23.23,59.55 23.23,91.64 0,11.97 -1.03,23.95 -3.01,35.72 -0.51,3.08 -1.15,6.4 -1.15,9.92 0,1.41 0.1,2.85 0.37,4.3 0.99,5.18 4.35,10.56 10.33,12.05l2.62 0.29c3.5,-0.01 6.58,-1.55 9.03,-3.61 2.47,-2.08 4.41,-4.74 5.78,-7.5 2.84,-5.93 4.11,-11.85 7.38,-15.56 3.5,-4.27 10.17,-6.43 15.99,-11.27 4.93,-4.23 8.19,-10.22 9.05,-16.67l-6.1 -0.82z"/>
  <path class="fil2" d="M612.27 1531.56c-1.31,0.36 -2.69,0.54 -4.07,0.54 -3.33,0 -6.69,-1.05 -9.31,-3.01l-0.51 -0.36 -2.47 -0.6 -2.44 -0.6 -1.55 3.24 -0.2 0.42 -0.07 0.46 -0.1 1.2c0.04,3.33 1.85,6.38 4.91,7.91 1.23,0.58 2.32,0.92 2.84,1.21l0.24 0.14 0 -0.01 0 0.01 0 -0.01 0.77 -0.75 -1.05 0.02 0.28 0.73 0.77 -0.75 -1.05 0.02 0.82 -0.01 -0.82 0 0 0.01 0.82 -0.01 -0.82 0 1.2 0 -0.92 -0.77 -0.27 0.77 1.2 0 -0.92 -0.77 0.55 0.46 -0.45 -0.57 -0.1 0.12 0.55 0.46 -0.45 -0.57 -0.1 0.05 -1.71 0.27 0 2.92 0.03 -2.92 -0.03 0 0 2.92 0.03 -2.92 -0.66 0.06 -4.63 0.96 2.74 3.85c4,5.58 10.61,8.86 17.38,8.88 1,0 2.01,-0.09 3,-0.23l-0.91 -6.09 -2.09 0.15c-4.75,0.01 -9.65,-2.43 -12.36,-6.28l-2.52 1.79 0.63 3.02 -0.62 -3 0.05 3.06 0.57 -0.06 -0.62 -3 0.05 3.06 -0.05 -3.02 -0.04 3.02 0.09 0 -0.05 -3.02 -0.04 3.02 0.04 0c1.29,-0.01 2.73,-0.16 4.22,-0.81l2.22 -1.62c0.69,-0.8 1.16,-2.01 1.15,-3.18l0 -0.07c0,-1.2 -0.51,-2.42 -1.18,-3.18 -1.03,-1.18 -2.12,-1.64 -3,-2.03l-2.07 -0.86 -1.44 -2.37 0.03 -0.3 -3.05 -0.44 2.79 1.33 0.46 -0.99 -2.78 -1.32 -0.73 3 1.89 0.47 0.73 -3 -1.83 2.49c3.76,2.76 8.36,4.19 12.97,4.2 1.92,0 3.85,-0.26 5.71,-0.77l-1.64 -5.93z"/>
  <path class="fil2" d="M790.59 2036.95c-20.95,-29.69 -45.27,-56.97 -72.35,-81.18 -37.18,-33.19 -79.35,-60.69 -109.91,-98.81 -20.44,-25.47 -35.28,-55.16 -49.82,-84.88 -43.56,-89.01 -85.31,-178.91 -125.26,-269.61 -7.85,-17.78 -16.14,-36.68 -31.37,-50.18 -9.81,-8.65 -23.01,-14.21 -36.03,-14.23 -7.47,-0.01 -14.91,1.87 -21.37,6.18 -0.82,0.55 -1.33,1.43 -1.38,2.4 -0.05,0.99 0.37,1.92 1.12,2.54 5.37,4.41 12.03,6.3 18.69,6.28 7.17,-0.01 14.41,-2.14 20.54,-5.76 11.63,-6.91 19.57,-17.85 27.05,-28.11 51.59,-71.02 120.25,-159.17 171.93,-230.33 77.04,-106.1 167.29,-202.98 263.88,-291.78 6.86,-6.31 15.97,-14.96 23.39,-22.74 3.72,-3.89 7.02,-7.56 9.45,-10.68 1.23,-1.57 2.24,-3 3,-4.33 0.73,-1.36 1.35,-2.5 1.4,-4.23l-0.11 -0.99 -0.76 -1.45c-1.72,-1.88 -4.17,-2.9 -6.52,-2.86 -3.51,0.04 -6.65,1.75 -9.62,4.13 -4.46,3.62 -8.62,9.08 -11.8,15.13 -3.16,6.06 -5.35,12.67 -5.37,18.83l0 0.12c0.02,0.94 0.49,1.83 1.25,2.4l2.65 0.5c13.24,-3.62 23.6,-11.92 33.13,-21.05 9.53,-9.14 18.32,-19.18 28.22,-26.8 21.71,-16.75 50.37,-22.88 78.36,-22.87l1.72 0c28.55,0.25 56.98,6.22 85.79,10.35 7.95,1.14 16.13,2.15 24.36,2.15 5.26,0 10.53,-0.41 15.78,-1.48 12.39,-2.54 23.46,-8.45 34.1,-14.1 23.8,-12.67 47.59,-25.34 71.39,-38 20,-10.64 39.2,-22.78 56.67,-37.39 12.85,-10.77 21.01,-26.54 28.04,-47.61 7.03,-21.08 12.96,-47.6 21.05,-80.36 1.53,-6.18 2.96,-13.07 2.97,-19.86 0.01,-6.97 -1.57,-14.05 -6.48,-19.68 -1.5,-1.7 -3.44,-3.42 -6.06,-4.3 -1.1,-0.36 -2.23,-0.53 -3.33,-0.52 -5.87,0.11 -10.59,4.29 -12.68,9.34 -1.14,2.89 -1.48,5.83 -1.48,8.68 0,2.84 0.34,5.59 0.66,8.17 0.42,3.22 1.31,6.86 3.07,10 0.88,1.57 2,3.03 3.51,4.18 1.49,1.14 3.45,1.89 5.56,1.88l0.89 -0.04c3.63,-0.34 6.26,-2.7 7.81,-5.19 1.61,-2.53 2.49,-5.41 3.07,-7.97 0.7,-3.16 1.19,-6.63 1.2,-10.11 -0.01,-3.24 -0.43,-6.52 -1.65,-9.54 -1.22,-3 -3.31,-5.76 -6.42,-7.58 -2.37,-1.39 -4.93,-2.01 -7.43,-2.01 -8.54,0.14 -15.95,6.38 -21.2,12.25 -20.92,23.93 -34.73,52.8 -47.77,81.2 -2.52,5.5 -5,10.76 -8.66,14.69 -4.09,4.42 -9.93,7.45 -15.96,10.66 -21.83,11.72 -42.36,25.88 -61.09,42.1l2.01 2.33 2.46 1.85c18.37,-24.49 46.07,-40.95 69.5,-62.54 8.6,-7.99 17.53,-17.82 18.99,-30.65 0.12,-1.16 0.18,-2.32 0.18,-3.46 -0.02,-7.55 -2.48,-14.63 -4.91,-21.18 -2.83,-7.59 -3.76,-12.57 -5.61,-17.59 -1.84,-5.02 -4.7,-9.77 -10.78,-15.84 -5.47,-5.46 -13.75,-12.03 -22.85,-17.34 -9.1,-5.28 -18.93,-9.38 -27.92,-9.42 -2.2,0 -4.34,0.26 -6.41,0.84l-0.52 0.21 -2.27 1.12 -0.81 0.58c-1.17,1.13 -1.75,2.79 -1.73,4.18 0.16,3.45 2.13,5.72 3.85,7.51 4.69,4.55 9.3,8.88 12.32,13.94 2.07,3.45 3.39,7.47 3.38,11.2 0,1.67 -0.25,3.29 -0.8,4.81 -0.97,2.77 -3.02,5.42 -5.32,8.19 -14.83,17.9 -31.39,34.38 -49.38,49.11l1.95 2.39 2.76 1.36c6.39,-13.04 18.88,-22.65 29.99,-33.88 9.97,-10.18 19.32,-23.41 19.4,-38.35 0,-1.72 -0.14,-3.46 -0.4,-5.21 -1.57,-9.92 -7.77,-18.82 -16.49,-23.76 -5.05,-2.84 -10.8,-4.26 -16.55,-4.26 -4.18,0 -8.37,0.75 -12.29,2.29 -5.37,2.13 -9.9,5.46 -14.11,8.7 -19.33,14.92 -36.83,32.21 -52,51.35 -0.99,1.24 -0.86,3.04 0.29,4.13 1.15,1.1 2.96,1.14 4.15,0.1 11.89,-10.36 22.3,-22.09 32.6,-33.68 5.5,-6.23 11.7,-13.18 13.62,-22.39 0.4,-1.94 0.57,-3.87 0.57,-5.78 -0.03,-8.8 -3.62,-17.01 -6.91,-24.43 -2.22,-4.95 -4.58,-10.33 -8.69,-14.83 -3.72,-4.06 -9,-7.19 -14.96,-7.23l-2.11 0.14c-5.87,0.84 -10.14,4.5 -13.79,7.53 -21.84,18.29 -43.69,36.58 -65.53,54.88 -8.58,7.19 -19.57,9.43 -31.8,10.15 -12.2,0.73 -25.4,-0.11 -37.95,1.62 -60.49,8.49 -105.49,55.97 -150.29,94.95 -23.89,20.83 -48.09,41.31 -74.02,59.2 -98.23,67.8 -210.11,157.49 -304.87,241.16 -95.41,84.26 -186.73,175.63 -264.14,276.87 -16.46,21.61 -33.86,45.98 -33.92,74.4l0 0.36c0.08,11 3.26,23.04 12.44,30.52 0.81,0.66 1.92,0.88 2.92,0.53 1.01,-0.34 1.75,-1.18 2,-2.2 3.99,-16.75 5.99,-33.96 5.99,-51.17 0,-4 -0.1,-8.01 -0.33,-12 -0.12,-1.72 -0.16,-4.16 -1.82,-6.51 -1.58,-2.19 -4.11,-3.11 -6.34,-3.08 -3.29,0.05 -6.43,1.57 -8.42,4.38 -2.26,3.33 -2.57,7.06 -2.58,10.29 0,0.94 0.03,1.83 0.06,2.69 3.89,102.14 15.9,203.97 35.86,304.2 26.3,131.96 73.4,261.46 134.42,381.31 81.03,159.12 175.09,297.47 258.64,472.57 24.73,51.65 33.13,116.69 66.35,165.44 0.97,1.41 2.87,1.77 4.28,0.8 1.41,-0.95 1.77,-2.87 0.8,-4.28 -32.19,-46.95 -40.69,-111.65 -65.87,-164.63 -83.8,-175.59 -177.92,-314.04 -258.7,-472.71 -60.79,-119.39 -107.7,-248.38 -133.86,-379.71 -19.91,-99.92 -31.88,-201.41 -35.75,-303.23l-0.06 -2.46c-0.01,-2.83 0.37,-5.2 1.49,-6.8 0.58,-0.93 2.22,-1.77 3.35,-1.71l1.37 0.54c0.33,0.4 0.59,1.56 0.65,3.22 0.21,3.89 0.31,7.77 0.31,11.67 0,16.73 -1.95,33.46 -5.81,49.74l2.98 0.71 1.94 -2.4c-7.08,-5.67 -10.1,-15.86 -10.14,-25.77l-0.01 -0.33c-0.05,-25.73 16.2,-49.18 32.66,-70.65 77.07,-100.81 168.1,-191.91 263.32,-276 94.58,-83.52 206.34,-173.11 304.28,-240.7 26.27,-18.12 50.64,-38.77 74.57,-59.63 45.07,-39.4 89.49,-85.6 147.09,-93.5 11.69,-1.63 24.76,-0.84 37.46,-1.58 12.67,-0.75 25.21,-3.06 35.39,-11.57 21.85,-18.3 43.69,-36.59 65.52,-54.88 3.61,-3.07 7.14,-5.71 10.67,-6.16l1.28 -0.08c3.62,-0.04 7.62,2.13 10.42,5.23 3.22,3.5 5.41,8.21 7.6,13.17 3.29,7.34 6.39,14.89 6.37,21.92 0,1.53 -0.14,3.05 -0.45,4.54 -1.4,7.06 -6.65,13.34 -12.18,19.52 -10.29,11.59 -20.55,23.13 -32.04,33.14l2.02 2.32 2.42 1.91c14.86,-18.75 32.02,-35.67 50.95,-50.3 4.11,-3.17 8.21,-6.1 12.6,-7.83 3.18,-1.25 6.6,-1.88 10.03,-1.88 4.72,0 9.45,1.18 13.52,3.48 7.04,3.96 12.21,11.37 13.43,19.33 0.21,1.43 0.33,2.85 0.33,4.26 0.06,12.18 -8.11,24.41 -17.62,34.03 -10.62,10.84 -23.8,20.73 -31.13,35.47 -0.64,1.31 -0.29,2.87 0.84,3.78 1.14,0.9 2.75,0.9 3.87,-0.03 18.29,-14.97 35.14,-31.72 50.22,-49.94 2.33,-2.83 4.91,-5.97 6.38,-10.04 0.8,-2.26 1.16,-4.59 1.16,-6.89 -0.01,-5.14 -1.72,-10.12 -4.25,-14.36 -3.65,-6.07 -8.71,-10.7 -13.32,-15.19 -1.17,-1.03 -2.11,-2.94 -1.97,-3.1l-0.21 0 0.18 0.07 0.03 -0.07 -0.21 0 0.18 0.07 -0.28 -0.11 0.21 0.21 0.07 -0.1 -0.28 -0.11 0.21 0.21 -2.17 -2.18 1.36 2.76 2.27 -1.12 -1.36 -2.76 0.84 2.96c1.43,-0.4 3.01,-0.61 4.72,-0.61 7.04,-0.03 16.25,3.55 24.82,8.58 8.58,5 16.58,11.36 21.59,16.39 5.67,5.71 7.75,9.32 9.36,13.63 1.62,4.29 2.64,9.59 5.62,17.6 2.4,6.42 4.52,12.85 4.52,19.02 0,0.93 -0.05,1.87 -0.15,2.79 -1.05,10.14 -8.67,19.09 -17.04,26.79 -22.73,21.06 -50.82,37.62 -70.25,63.36 -0.95,1.25 -0.79,3.03 0.36,4.11 1.15,1.07 2.94,1.1 4.12,0.07 18.39,-15.92 38.55,-29.81 59.98,-41.32 5.91,-3.2 12.44,-6.41 17.56,-11.9 4.54,-4.92 7.21,-10.83 9.73,-16.3 13.01,-28.35 26.64,-56.65 46.82,-79.72 4.56,-5.33 11.44,-10.29 16.56,-10.15 1.51,0.01 2.9,0.34 4.31,1.16 1.82,1.08 2.99,2.57 3.82,4.59 0.82,2 1.2,4.52 1.2,7.21 0,2.89 -0.43,5.96 -1.06,8.77 -0.47,2.15 -1.25,4.43 -2.26,6 -1.05,1.59 -1.99,2.24 -3.18,2.37l-0.32 0.02 -1.85 -0.64c-1.94,-1.27 -3.76,-6.05 -4.18,-10.03 -0.33,-2.56 -0.62,-5.06 -0.62,-7.39 0,-2.34 0.29,-4.48 1.05,-6.4 1.13,-3.03 4.49,-5.58 6.95,-5.47l1.38 0.22c1.11,0.35 2.28,1.27 3.36,2.51 3.61,4.13 4.95,9.49 4.96,15.62 0,5.91 -1.29,12.38 -2.78,18.38 -8.11,32.82 -14.05,59.29 -20.92,79.88 -6.88,20.63 -14.65,35.23 -26.15,44.83 -17.06,14.26 -35.89,26.18 -55.61,36.68 -23.8,12.67 -47.59,25.33 -71.39,38 -10.63,5.67 -21.22,11.22 -32.43,13.5 -4.76,0.97 -9.62,1.36 -14.55,1.36 -7.73,0.01 -15.62,-0.96 -23.5,-2.09 -28.53,-4.07 -57.23,-10.14 -86.6,-10.41l-1.78 0c-28.85,0 -58.87,6.24 -82.12,24.15 -10.54,8.14 -19.44,18.36 -28.72,27.23 -9.28,8.9 -18.83,16.38 -30.5,19.55l0.82 2.96 3.07 -0.06 -0.88 0.02 0.88 0 0 -0.02 -0.88 0.02 0.88 0c-0.04,-6.2 3.27,-14.63 7.78,-21.16 2.22,-3.28 4.74,-6.1 7.1,-7.99 2.35,-1.94 4.52,-2.81 5.75,-2.76l2.02 0.92 2.25 -2.11 -3.01 0.66 1.54 -0.34 -1.58 0 0.04 0.34 1.54 -0.34 -1.58 0 0.55 0 -0.54 -0.12 -0.01 0.12 0.55 0 -0.54 -0.12c0.02,0.35 -1.42,2.9 -3.75,5.71 -7,8.72 -21.65,22.8 -31.51,31.86 -96.83,89.03 -187.35,186.2 -264.71,292.7 -51.58,71.03 -120.24,159.18 -171.92,230.34 -7.43,10.27 -15,20.41 -25.19,26.42 -5.19,3.08 -11.47,4.91 -17.4,4.9 -5.54,0 -10.71,-1.53 -14.77,-4.88l-1.96 2.39 1.7 2.55c5.34,-3.55 11.51,-5.15 17.97,-5.15 11.22,-0.03 23.26,4.97 31.95,12.68 13.9,12.27 22,30.24 29.82,48.05 39.97,90.77 81.77,180.74 125.35,269.83 14.56,29.74 29.57,59.86 50.55,86.02 31.42,39.13 73.94,66.75 110.61,99.56 26.73,23.9 50.74,50.84 71.42,80.13 0.99,1.39 2.91,1.72 4.3,0.74 1.39,-0.98 1.72,-2.9 0.74,-4.28z"/>
  <path class="fil2" d="M1368.82 1944.12c12.62,-55.78 35.96,-93.41 58.76,-142.7 11.93,-25.83 23.94,-57.39 25.81,-86.32 1.75,-27.36 2.41,-50.68 2.4,-71.31 0,-57.78 -5.11,-94.38 -5.7,-139.77 -0.62,-47.37 -4.15,-86.95 -4.15,-128.76 0,-21 0.9,-42.57 3.48,-66.01 4.11,-37.53 10.74,-75.73 10.75,-113.73 0,-17.3 -1.38,-34.58 -5.02,-51.69l-3 0.64 -1.61 2.63c4.85,2.97 7.45,7.89 8.97,14.16 1.5,6.23 1.77,13.54 2.12,20.38 0.4,7.2 2.23,15.18 5.93,21.7 3.63,6.46 9.65,11.72 17.85,11.7l0 -2.57 -0.08 2.57 0.08 0 0 -2.57 -0.08 2.57 2.85 0.08 0.3 -2.83c0.21,-1.99 0.31,-3.96 0.31,-5.91 -0.01,-14.97 -6.02,-28.6 -14.43,-41 -8.44,-12.4 -19.33,-23.67 -29.51,-33.99 -97.77,-99.17 -176.25,-215.61 -254.23,-331.46l-5.11 3.44c77.97,115.85 156.65,232.61 254.95,332.35 10.14,10.29 20.78,21.33 28.79,33.13 8.03,11.81 13.38,24.27 13.38,37.53 0,1.74 -0.09,3.48 -0.27,5.25l3.06 0.33 0.09 -3.08 -0.11 0c-5.39,-0.02 -9.36,-3.22 -12.5,-8.6 -3.07,-5.34 -4.8,-12.59 -5.13,-18.97 -0.37,-6.75 -0.59,-14.39 -2.29,-21.48 -1.68,-7.06 -4.99,-13.85 -11.74,-17.98l-6.11 -3.74 1.49 7c3.53,16.62 4.89,33.45 4.89,50.42 0.01,37.28 -6.55,75.27 -10.72,113.04 -2.61,23.7 -3.5,45.52 -3.5,66.69 0.01,42.17 3.53,81.75 4.15,128.84 0.6,45.88 5.71,82.31 5.7,139.69 0,20.5 -0.65,43.68 -2.38,70.92 -1.74,27.53 -13.45,58.63 -25.25,84.13 -22.57,48.85 -46.31,87.05 -59.19,143.9l6.01 1.37z"/>
  <path class="fil2" d="M1023.1 576.1c-34.82,-44.16 -70.48,-89.27 -117.07,-121.81 -27.38,-19.09 -58.01,-33.4 -90.1,-42.49 -21.74,-6.12 -44.21,-10.22 -61.44,-22.91 -15.76,-11.55 -26.12,-29.46 -36.12,-47.26 -11.86,-21.08 -23.71,-42.16 -35.58,-63.22 -13.67,-24.28 -27.3,-48.68 -33.91,-75.17 -2.15,-8.56 -3.11,-17.49 -3.11,-26.48 0,-8.73 0.92,-17.51 2.55,-26.05 6.36,-33.21 8.03,-48.72 12.43,-73.4 0.75,-4.24 0.68,-8.21 0.93,-11.78 0.23,-3.59 0.73,-6.74 2.22,-9.66 2.09,-4.19 7.19,-7.51 11.29,-7.42 1.44,0 2.75,0.34 3.97,1.09 2.01,1.21 3.59,3.57 4.57,6.28 0.7,1.98 1.06,4.06 1.06,6.16 0.05,9.78 -7.58,19.95 -17.11,21.49l-1.34 0.14 -0.89 -0.16 -0.55 -0.79 -0.52 -2.19c-0.23,-1.81 -0.36,-3.63 -0.36,-5.44 0,-5.37 1.03,-10.75 3.06,-15.72 1.95,-4.86 5.27,-9.12 9.2,-10l2.16 -0.25c1.82,0 3.82,0.5 5.71,1.34 7.4,3.25 12.65,11.03 15,19.42 1.88,6.67 2.22,13.82 2.22,21.16 0,1.92 -0.02,3.87 -0.04,5.82 -0.04,3.56 -0.08,7.13 -0.08,10.72 0,21.98 1.09,44.33 8.01,65.58 3.02,9.27 7.06,18.05 11.05,26.71 11.12,24.16 22.25,48.33 33.37,72.5l2.8 -1.29 -1.6 -2.63 -0.72 0.23c-0.43,0.05 -1.58,-0.44 -2.78,-1.75 -1.18,-1.27 -2.31,-3.1 -2.99,-4.72 -8.66,-20.34 -17.31,-40.68 -25.97,-61.02 -2.79,-6.54 -5.46,-12.94 -6.45,-19.45 -0.34,-2.2 -0.49,-4.45 -0.49,-6.71 0,-6.93 1.44,-14.09 3.25,-21.19 1.92,-7.56 4.17,-14.98 7.28,-21.94 9.26,-20.77 26.76,-37.85 47.76,-46.58 3.89,-1.63 7.96,-2.88 11.61,-2.87 1.42,0 2.79,0.18 4.11,0.57 3.57,0.99 6.78,4.97 6.64,7.99l-0.38 1.92 0 0c-0.61,1.61 -2.38,3.28 -4.41,5.47 -7.67,8.54 -10.19,19.77 -12.28,30 -1.2,5.91 -2.37,12.08 -2.37,18.42 0,2.02 0.12,4.07 0.4,6.11 1.02,7.27 3.91,13.82 6.63,20.02 7.37,16.83 14.74,33.66 22.11,50.47 0.61,1.37 1.48,2.65 2.61,3.76 1.14,1.06 2.54,2.14 4.74,2.2 1.31,0.04 2.76,-0.6 3.68,-1.59l0.83 -2.46c-1.02,-9.15 -6.8,-16.13 -11.4,-22.52 -6.77,-9.29 -12.72,-19.17 -17.75,-29.51 -5.32,-10.9 -9.53,-22.74 -9.51,-34.17 0,-3.12 0.31,-6.21 0.97,-9.27 2.96,-13.6 13.03,-25.07 23.26,-36.03 3.16,-3.52 7.2,-6.63 9.99,-6.48l1.47 0.23c1.4,0.43 2.55,1.45 3.63,3.14 1.07,1.68 1.94,3.91 2.68,6.14 14.1,42.32 27.9,87.6 60.5,119.67 0.72,0.7 1.75,1.01 2.73,0.83 0.99,-0.2 1.83,-0.85 2.25,-1.77 0.53,-1.2 0.78,-2.48 0.78,-3.69 -0.17,-5.35 -3.89,-9.05 -6.56,-11.97 -22.34,-23.21 -31.76,-56.23 -40.36,-88.36 -7.51,-27.88 -15,-55.75 -22.5,-83.64 -1.04,-3.82 -1.97,-7.53 -1.97,-10.92l0.21 -2.66c0.31,-1.94 1.19,-3.94 2.41,-5.41 1.23,-1.49 2.7,-2.4 4.28,-2.64l0.92 -0.07c1.93,0 3.9,0.94 5.87,2.75 1.95,1.78 3.75,4.33 5.13,6.83 2.44,4.41 4.37,9.31 4.34,13.59 0,1.56 -0.23,3.05 -0.77,4.48l0 0c-0.99,2.98 -5.04,5.56 -8.13,5.47 -1.65,-0.03 -2.79,-0.51 -3.67,-1.65 -0.72,-0.92 -1.24,-2.42 -1.75,-4.28 -0.92,-3.27 -1.67,-6.8 -1.67,-9.86 0.02,-3.18 0.74,-5.64 2.51,-7.47 1.58,-1.64 4.02,-2.52 6.75,-2.52 1.48,0 3,0.27 4.4,0.76 4.07,1.42 7.7,4.61 11.14,8.23 16.44,17.21 26.89,38.87 36.84,61.36 9.96,22.46 19.42,45.7 34.24,65.77 8.64,11.59 18.57,22.26 20.56,34.95 0.16,1.03 0.85,1.92 1.81,2.34 35.12,15.17 62.88,47.14 84.85,79.38 21.97,32.2 39.59,67.57 62.36,99.94 58.1,82.43 144.86,138.75 212.47,211.81 1.16,1.25 3.11,1.32 4.35,0.16 1.25,-1.15 1.32,-3.09 0.16,-4.34 -68.36,-73.76 -154.84,-129.98 -211.94,-211.17 -22.43,-31.85 -40.04,-67.19 -62.31,-99.87 -22.28,-32.62 -50.56,-65.54 -87.49,-81.57l-1.22 2.83 3.04 -0.49c-2.55,-15.23 -13.49,-26.43 -21.67,-37.61 -14.23,-19.23 -23.58,-42.04 -33.56,-64.61 -10.01,-22.56 -20.7,-44.96 -38.03,-63.12 -3.65,-3.82 -7.9,-7.78 -13.54,-9.79 -2.05,-0.72 -4.25,-1.11 -6.45,-1.11 -3.98,0 -8.12,1.27 -11.16,4.39 -3.24,3.33 -4.27,7.68 -4.26,11.76 0.01,4.02 0.92,8 1.9,11.52l0 0c0.55,1.88 1.15,4.19 2.79,6.36 2.14,2.85 5.47,4.1 8.56,4.07 5.8,-0.09 11.62,-3.64 13.91,-9.49l0 0c0.81,-2.18 1.15,-4.42 1.15,-6.62 -0.02,-6.04 -2.46,-11.71 -5.1,-16.56 -1.62,-2.92 -3.7,-5.95 -6.36,-8.41 -2.65,-2.42 -6.04,-4.35 -10.04,-4.36l-1.83 0.14c-3.39,0.5 -6.17,2.41 -8.13,4.8 -1.98,2.41 -3.26,5.34 -3.74,8.37 -0.2,1.22 -0.28,2.43 -0.28,3.62 0,4.48 1.14,8.66 2.17,12.52 7.5,27.88 15,55.76 22.5,83.65 8.66,32.11 18.13,66.24 41.87,91.01 2.65,2.63 5,5.96 4.83,7.7l-0.25 1.18 2.81 1.26 2.16 -2.2c-31.14,-30.54 -44.89,-74.76 -58.97,-117.22 -0.8,-2.4 -1.78,-5.06 -3.32,-7.51 -1.53,-2.42 -3.78,-4.74 -7.03,-5.73 -1.09,-0.33 -2.2,-0.49 -3.28,-0.49 -6.41,0.15 -10.99,4.78 -14.51,8.44 -10.21,11.04 -21.24,23.17 -24.75,38.92 -0.77,3.53 -1.12,7.08 -1.12,10.59 0.01,12.94 4.63,25.55 10.12,36.88 5.18,10.66 11.33,20.85 18.31,30.44 4.8,6.51 9.6,12.81 10.25,19.53l3.07 -0.31 -2.24 -2.13 0.79 0.75 0 -1.06 -0.79 0.31 0.79 0.75 0 -1.06 0 0.73 0.21 -0.7 -0.21 -0.03 0 0.73 0.21 -0.7 -0.23 -0.14 -1.68 -2.16c-7.36,-16.82 -14.74,-33.65 -22.11,-50.48 -2.72,-6.19 -5.32,-12.25 -6.16,-18.38 -0.25,-1.74 -0.35,-3.5 -0.35,-5.27 0,-5.56 1.07,-11.36 2.25,-17.2 2.02,-10.14 4.54,-20.2 10.81,-27.1 1.62,-1.83 4.11,-3.84 5.55,-7.25 0.57,-1.4 0.83,-2.85 0.83,-4.26 -0.13,-6.52 -4.99,-11.98 -11.03,-13.88 -1.96,-0.6 -3.93,-0.84 -5.88,-0.84 -5,0.01 -9.76,1.59 -13.99,3.33 -22.48,9.39 -41.07,27.52 -51.01,49.76 -3.33,7.44 -5.66,15.21 -7.62,22.93 -1.85,7.28 -3.45,14.92 -3.45,22.71 0,2.54 0.17,5.09 0.56,7.64 1.16,7.52 4.1,14.37 6.87,20.92 8.66,20.35 17.31,40.69 25.95,61.03 0.96,2.23 2.35,4.56 4.17,6.52 1.81,1.9 4.14,3.66 7.28,3.7 1.33,0.01 2.71,-0.38 3.92,-1.12 1.33,-0.81 1.85,-2.51 1.19,-3.93 -11.11,-24.17 -22.25,-48.33 -33.37,-72.5 -3.98,-8.65 -7.91,-17.22 -10.79,-26.04 -6.59,-20.2 -7.71,-41.89 -7.7,-63.67 0,-3.56 0.03,-7.11 0.06,-10.66 0.03,-1.94 0.05,-3.91 0.05,-5.89 -0.01,-7.51 -0.31,-15.25 -2.46,-22.83 -2.71,-9.61 -8.73,-19.03 -18.4,-23.37 -2.5,-1.11 -5.29,-1.87 -8.22,-1.88 -1.2,0 -2.41,0.13 -3.62,0.43 -7.08,1.81 -11.11,8.01 -13.43,13.65 -2.33,5.72 -3.52,11.88 -3.52,18.04 0,2.09 0.13,4.18 0.41,6.26 0.15,1.13 0.39,2.41 0.93,3.74 0.55,1.32 1.5,2.76 3.09,3.72 1.38,0.81 2.82,1.02 4.04,1.02l2.39 -0.23c13.03,-2.38 22.15,-14.84 22.21,-27.56 0.01,-2.76 -0.44,-5.55 -1.42,-8.25 -1.29,-3.54 -3.47,-7.16 -7.14,-9.42 -2.24,-1.39 -4.75,-2.01 -7.19,-2.01 -7,0.08 -13.5,4.59 -16.77,10.75 -2.09,4.08 -2.65,8.21 -2.9,12.09 -0.25,3.89 -0.22,7.58 -0.86,11.09 -4.43,24.9 -6.08,40.3 -12.42,73.32 -1.69,8.9 -2.66,18.05 -2.66,27.21 0,9.42 1.01,18.86 3.3,27.98 6.89,27.55 20.87,52.42 34.51,76.69 11.86,21.08 23.72,42.15 35.58,63.22 10.03,17.79 20.67,36.58 37.83,49.2 18.83,13.77 42.12,17.82 63.4,23.89 31.45,8.9 61.47,22.92 88.25,41.62 45.62,31.82 80.97,76.4 115.76,120.57 1.05,1.33 3,1.56 4.33,0.51 1.33,-1.06 1.56,-3 0.51,-4.33z"/>
  <path class="fil2" d="M1330.56 606.54c83.07,82.2 162.42,168.14 237.77,257.47 54.22,64.27 107.93,134.57 118.29,216.94 0.12,1.01 0.22,1.99 0.22,2.87 0,1.52 -0.29,2.55 -0.79,3.16l-1.56 0.91c-0.89,0.09 -3.04,-0.98 -4.89,-3.07 -1.87,-2.03 -3.48,-4.87 -4.11,-7.22 -4.61,-16.83 -6.93,-34.3 -6.93,-51.75 0,-5.26 0.21,-10.53 0.64,-15.76l-3.07 -0.26 1.29 2.81 1.57 -0.36c1.36,-0.05 3.24,0.99 5.06,3.17 1.8,2.11 3.38,5.09 4.33,7.75 35.62,99.22 59.67,244.72 72.47,349.71 15.21,124.68 19.36,249.81 21.37,375.54 0.75,46.37 2.06,89.03 2.06,131.59 0,66.34 -3.2,132.39 -16.79,211.88 -19.44,113.77 -23.53,192.54 -32.04,313.81 -4.37,62.4 -24.08,115.55 -46.03,165.05 -0.68,1.55 0.01,3.37 1.57,4.07 1.55,0.68 3.37,-0.01 4.07,-1.57 22.04,-49.73 42.09,-103.65 46.55,-167.1 8.51,-121.36 12.59,-199.79 31.98,-313.21 13.65,-79.89 16.86,-146.39 16.86,-212.92 0,-42.68 -1.32,-85.39 -2.06,-131.69 -2.01,-125.8 -6.15,-251.15 -21.41,-376.18 -12.85,-105.27 -36.88,-250.92 -72.79,-351.06 -1.19,-3.26 -3,-6.76 -5.45,-9.65 -2.41,-2.83 -5.61,-5.3 -9.75,-5.35 -1.38,-0.01 -2.79,0.31 -4.13,0.92 -1.03,0.47 -1.7,1.44 -1.8,2.56 -0.44,5.41 -0.65,10.84 -0.65,16.26 0,18.01 2.4,36.01 7.15,53.37 0.98,3.52 2.98,6.97 5.5,9.75 2.55,2.72 5.58,5 9.44,5.09 2.34,0.05 4.8,-1.16 6.38,-3.22 1.75,-2.23 2.14,-4.8 2.14,-7 0,-1.31 -0.14,-2.53 -0.27,-3.64 -10.73,-84.61 -65.41,-155.73 -119.69,-220.14 -75.46,-89.47 -154.93,-175.56 -238.14,-257.88 -1.21,-1.2 -3.16,-1.19 -4.35,0.01 -1.2,1.21 -1.19,3.16 0.02,4.36z"/>
  <path class="fil2" d="M1059.95 3834.34c-2.68,-0.16 -3.52,-2.67 -3.47,-5.11 1.05,-0.81 2.11,-1.62 3.16,-2.43 0.34,1.51 0.55,3.85 0.56,7.34 -0.08,0.08 -0.16,0.14 -0.25,0.2z"/>
  <path class="fil2" d="M1251.98 3484.56c-0.34,-0.32 -0.64,-0.64 -0.93,-0.94 0.31,0.06 0.63,0.12 0.94,0.19l-0.01 0.75z"/>
  <path class="fil2" d="M1773.96 1588.19c-1.22,-1.27 -2.7,-2.95 -4.48,-5.12 0.34,-1.51 0.97,-2.11 1.75,-2.11 0.73,0 1.59,0.53 2.48,1.38 0.08,1.95 0.17,3.9 0.26,5.86z"/>
  <path class="fil2" d="M1765.41 2051.64c-1.66,0 0.27,-6.43 5.2,-6.43 -2.67,4.82 -4.38,6.43 -5.2,6.43z"/>
  <path class="fil2" d="M1768.41 1565.49c-0.01,0 -1.24,-8.1 -1.22,-8.1 0.92,6.08 1.22,8.1 1.22,8.1z"/>
  <path class="fil2" d="M1650.23 2754.5c-0.04,-0.03 -0.08,-0.06 -0.12,-0.09 -1.97,-1.49 -2.55,-2.99 1.12,-3.2 -0.33,1.1 -0.67,2.2 -1,3.29z"/>
  <path class="fil2" d="M1640.06 2463.71c-1.12,0 -2.23,-1.53 -2.23,-6.11 1.46,0 2.48,0.29 3.19,0.75 0.33,1.21 0.66,2.42 1,3.63 -0.4,0.98 -1.18,1.74 -1.96,1.74z"/>
  <path class="fil2" d="M1622.28 2350.88c-3.77,-1.25 -3.04,-3.81 -0.68,-6.15 0.23,2.05 0.46,4.11 0.68,6.15z"/>
  <path class="fil2" d="M1598.19 2231.18c-1.55,0 -4.39,-1.58 -6.58,-3.16 -0.26,-0.18 -0.49,-0.37 -0.73,-0.54 -0.23,-0.77 -0.46,-1.55 -0.7,-2.31 1.4,0.51 3.79,1.64 7.54,3.7 0.23,0.77 0.45,1.53 0.68,2.3 -0.05,0.01 -0.13,0.01 -0.2,0.01z"/>
  <path class="fil2" d="M1492.65 3754.79c-0.08,0 -0.55,-0.12 -1.23,-0.31 0,-0.04 0,-0.08 0,-0.12 0.97,0.31 1.31,0.44 1.23,0.44z"/>
  <path class="fil2" d="M1411.69 4496.99c-0.56,0 -1.24,-0.49 -1.95,-1.52 -0.55,-3.39 0.08,-5.11 1.92,-5.11 0.43,0 0.91,0.09 1.46,0.27 0.62,3.87 -0.13,6.36 -1.44,6.36z"/>
  <path class="fil2" d="M1252.58 1827.68c-1.01,0 -2.5,-0.08 -3.76,-0.18 -0.06,-0.17 -0.11,-0.35 -0.18,-0.51 0.6,-0.01 1.33,-0.02 2.21,-0.02 3.59,0.53 3.25,0.71 1.73,0.71z"/>
  <path class="fil2" d="M1089.3 2520.94c-1.14,-0.04 -2.28,-0.08 -3.42,-0.14 0.03,-0.53 0.05,-1.07 0.06,-1.63 3.31,0.74 4.02,1.33 3.35,1.77zm-6.18 -0.26c-2.01,-0.09 -4.03,-0.18 -6.06,-0.29 0.67,-0.47 2.4,-1.06 5.72,-1.78 -0.01,0.03 -0.01,0.08 -0.02,0.1 0.12,0.73 0.23,1.39 0.36,1.97z"/>
  <path class="fil2" d="M817.05 4194.49c-0.27,-1.12 -0.51,-2.24 -0.75,-3.38 0.11,-0.84 0.29,-1.76 0.49,-2.66 0.7,-3.17 1.83,-6.32 2.7,-6.32 0.6,0 1.08,1.43 1.25,5.26 -1.8,4.3 -2.97,6.42 -3.69,7.1z"/>
  <path class="fil2" d="M770.02 1558.17c-0.94,0 -3.31,-2.16 -5.05,-4.31 -1.75,-2.16 -2.87,-4.31 -1.32,-4.31 0.68,0 1.88,0.41 3.77,1.44 3.14,5.36 3.47,7.19 2.6,7.19z"/>
  <path class="fil2" d="M674.57 1066.02c0.64,-0.72 1.27,-1.45 1.91,-2.18 -0.07,0.87 -0.62,1.72 -1.91,2.18z"/>
  <path class="fil2" d="M1196.23 1402.08c0.04,-0.58 0.08,-1.22 0.14,-1.91 0.06,-0.02 0.12,-0.03 0.18,-0.03 0.42,0 0.64,0.54 0.74,1.34 -0.36,0.2 -0.7,0.39 -1.06,0.6z"/>
  <path class="fil2" d="M1082.95 3072.41c-1.33,-0.12 -2.67,-0.23 -4,-0.34 0.76,-0.54 2.01,-1.08 3.94,-1.53 0.11,0.72 0.13,1.34 0.06,1.87z"/>
  <path class="fil2" d="M1088.31 3371.17c-0.34,-0.1 -0.66,-0.19 -1,-0.29 -0.07,-0.8 -0.1,-1.85 -0.08,-2.9 0.03,-1.32 0.13,-2.63 0.29,-3.46 0.34,0.09 0.68,0.19 1.01,0.29 0.17,0.6 0.34,1.44 0.54,2.59 -0.29,1.77 -0.55,2.99 -0.77,3.76z"/>
  <path class="fil2" d="M680.11 1787.94c-0.04,-0.01 -10.49,-10.57 -10.51,-10.7 7.91,8.01 10.53,10.7 10.51,10.7z"/>
  <path class="fil2" d="M674.24 2397.42c-0.25,0 -0.49,0 -0.74,-0.02 0.08,-0.84 0.14,-1.66 0.21,-2.5 0.12,-0.01 0.23,-0.01 0.34,-0.01 5,0 6.21,0.64 5.59,1.27 -0.62,0.64 -3.07,1.26 -5.4,1.26z"/>
  <path class="fil2" d="M654.83 1494.95c-2.63,0 -3.32,-1.25 -3.07,-2.52 0.2,-1.03 1.03,-2.07 1.94,-2.4 0.8,0.66 1.62,1.33 2.43,1.99 0.18,0.7 0.29,1.63 0.29,2.8 -0.6,0.08 -1.13,0.12 -1.59,0.12z"/>
  <path class="fil2" d="M356.76 1049.16c-0.86,-2.28 -1.07,-3.17 -0.93,-3.17 0.16,0 0.79,1.14 1.46,2.66 -0.18,0.18 -0.35,0.33 -0.53,0.51z"/>
  <path class="fil2" d="M499.17 4218.39c-0.1,-0.02 -0.18,-0.03 -0.27,-0.05 0.04,-1.57 0.2,-3.69 0.51,-3.69 -0.09,1.7 -0.17,2.9 -0.23,3.74z"/>
  <path class="fil2" d="M1041.31 3068.37c-0.76,0 -2,-1.57 -2.55,-5.82 3.73,2.94 3.59,5.82 2.55,5.82z"/>
  <path class="fil2" d="M617.47 1534.91c-1.94,-0.02 -3.33,-0.08 -4.31,-0.17l-0.29 -1.03c1.08,-0.21 2.56,-0.37 3.91,-0.42 0.23,0.53 0.47,1.08 0.68,1.62z"/>
  <path class="fil2" d="M613.15 1534.74c-2.76,-0.25 -2.07,-0.7 -0.29,-1.03l0.29 1.03z"/>
  <path class="fil2" d="M579.3 1189.76c-0.25,0 -0.4,-1.66 -0.49,-4.04 0.49,-0.66 0.97,-1.31 1.44,-1.97 -0.4,4.32 -0.72,6.01 -0.96,6.01z"/>
  <path class="fil2" d="M1150.99 435.33c-1.17,0 -2.11,0 -2.87,-0.01 -0.11,-0.1 -0.21,-0.21 -0.32,-0.31 0.22,0 0.42,-0.01 0.63,-0.01 1.43,0 2.78,0.1 2.57,0.33z"/>
  <path class="fil2" d="M1196.76 797.14c-0.49,-1.25 -1.52,-4.48 -1.52,-5.54 0.96,3 1.44,4.68 1.66,5.47 -0.05,0.02 -0.1,0.04 -0.14,0.08z"/>
  <path class="fil2" d="M1043.44 563.91c-1.41,-1.25 -1.98,-1.78 -1.97,-1.78 0.01,0 0.81,0.7 2.01,1.76 -0.01,0 -0.03,0.02 -0.04,0.02z"/>
  <path class="fil2" d="M1282.42 558.74c-1.7,-1.69 -3.42,-3.39 -5.13,-5.07 0.44,-0.26 0.94,-0.42 1.44,-0.42 1.53,0 3.14,1.44 3.7,5.49z"/>
  <path class="fil2" d="M1183.9 802.8c-4.01,-0.49 -6.82,-0.88 -8.66,-1.19 0.38,-0.21 0.76,-0.41 1.15,-0.6 3.37,0.31 7.51,1 7.51,1.79z"/>
  <path class="fil2" d="M1264.68 640.42c0.03,-0.06 0.06,-0.12 0.1,-0.18 -0.03,0.06 -0.06,0.12 -0.1,0.18z"/>
  <path class="fil2" d="M1207.08 787.92c-0.73,0 -1.31,-0.65 -1.58,-2.42 1.21,-0.65 2.42,-1.29 3.63,-1.94 1.14,0 2.27,0 3.41,0 -1.46,1.14 -3.84,4.35 -5.46,4.35z"/>
  <path class="fil2" d="M833 132.04c-0.03,-0.09 -0.06,-0.17 -0.09,-0.27 0.27,-0.01 0.56,-0.01 0.85,-0.01 2.05,0 4,0.22 -0.76,0.28z"/>
  <path class="fil2" d="M1137.75 653.47c0.01,-0.01 0.01,-0.01 0.02,-0.02 0.02,0.01 0.01,0.02 -0.02,0.02z"/>
  <path class="fil2" d="M666.57 4223.47c-1.23,0 -2.18,-0.16 -2.33,-0.62 4.47,-0.54 7.02,-0.73 8.29,-0.73 0.86,0 1.11,0.09 0.94,0.23 -2.03,0.4 -4.04,0.77 -6.07,1.11 -0.29,0.01 -0.56,0.02 -0.83,0.02z"/>
  <path class="fil2" d="M1492.66 3831.98c-0.01,-0.36 -0.01,-0.73 -0.01,-1.1 0.37,-0.22 0.77,-0.45 1.19,-0.69 -0.23,0.62 -0.65,1.22 -1.18,1.79z"/>
  <path class="fil2" d="M1487.3 3674.79c-0.05,-0.65 -0.1,-1.29 -0.16,-1.94 0.04,0 0.08,0 0.1,0 1.11,0 1.44,0.53 0.06,1.94z"/>
  <path class="fil2" d="M890.51 3305.29c-1.53,-0.59 -3.05,-1.17 -4.58,-1.77 1.14,-0.51 2.83,-0.88 4.09,-0.88 1.74,0 2.7,0.69 0.49,2.65z"/>
  <path class="fil2" d="M1422.77 3624.8c-1.1,-0.88 -1.53,-1.25 -1.52,-1.25 0.03,0 0.67,0.49 1.59,1.2 -0.03,0.01 -0.05,0.03 -0.08,0.04z"/>
  <path class="fil2" d="M622.31 3176.26c-0.74,-0.45 -1.47,-0.9 -2.21,-1.34 0.05,-0.06 0.1,-0.12 0.14,-0.17 1.3,-1.68 3.04,-3.37 4.74,-4.09 0.54,0.33 1.07,0.64 1.61,0.97 -1.72,1.97 -3.12,3.49 -4.27,4.63z"/>
  <path class="fil2" d="M1422.03 3063.76c-0.03,-1.68 1.24,-4.02 4.81,-4.02 -0.44,1.38 -0.9,2.46 -1.33,3.31 -1.16,0.23 -2.31,0.48 -3.48,0.72z"/>
  <path class="fil2" d="M1032.54 3061.53c-0.91,0 -1.52,-0.12 -1.32,-0.35 0.85,0.1 1.72,0.18 2.57,0.29 -0.44,0.04 -0.88,0.06 -1.25,0.06z"/>
  <path class="fil2" d="M665.86 3023.22c-1.46,-0.18 -2.65,-0.34 -3.59,-0.49 0.12,-0.29 0.25,-0.6 0.37,-0.9 1.9,0.04 4.31,0.13 6.53,0.28 -0.14,0.37 -0.29,0.73 -0.44,1.1 -0.86,0 -1.82,0.01 -2.87,0.01z"/>
  <path class="fil2" d="M563.73 2497.44c-0.14,0 -0.52,-0.17 -1.21,-0.57 -0.14,-0.39 -0.29,-0.77 -0.43,-1.16 1.19,0.99 1.94,1.73 1.64,1.73z"/>
  <path class="fil2" d="M677.03 2862.27c-4.13,-8.3 -4.15,-11.21 -3.02,-11.21 1.72,0 6.13,6.63 3.02,11.21z"/>
  <path class="fil2" d="M654.64 2747.21c-0.6,0 -0.68,-0.36 -0.29,-0.72 0.39,-0.36 1.25,-0.71 2.52,-0.71 0.31,0 0.66,0.02 1.01,0.06 -1.6,1.02 -2.67,1.37 -3.24,1.37z"/>
  <path class="fil2" d="M631.67 2682.56c-1.23,0 -2.36,-0.78 -3.12,-1.9 -0.31,-0.94 -0.62,-1.89 -0.93,-2.85 0,-0.05 0,-0.11 0,-0.16 0.03,-2 1.35,-3.99 4.89,-4.67 0.78,2.46 1.58,4.91 2.4,7.37 -0.99,1.58 -2.14,2.2 -3.24,2.2z"/>
  <path class="fil2" d="M578.45 2539.35c-0.17,0 -0.34,-1.75 -0.34,-6.95 0.01,-0.01 0.03,-0.01 0.04,-0.01 0.49,0 0.66,1.75 0.65,3.48 -0.01,1.73 -0.18,3.48 -0.36,3.48z"/>
  <path class="fil2" d="M1117.54 2519.17c-3.51,0 -9.76,-1.94 -12.69,-3.96 3.65,0.06 7.29,0.09 10.9,0.09 0.88,0 1.76,0 2.63,0 2.81,2.83 1.72,3.87 -0.84,3.87z"/>
  <path class="fil2" d="M831.66 2262.93c-1.03,-0.17 -1.42,-0.23 -1.37,-0.23 0.06,0 0.59,0.07 1.36,0.17 0.01,0.02 0.01,0.04 0.01,0.05z"/>
  <path class="fil2" d="M850.03 4260.24c-1.29,0 0.17,-2.03 2.5,-4.25 0.6,0.82 1.22,1.64 1.83,2.46 -2.31,1.27 -3.68,1.79 -4.33,1.79z"/>
  <path class="fil2" d="M576.53 3233.24c-5.23,-3.5 -6.82,-4.67 -6.67,-4.67 0.29,0 7.07,4.37 6.67,4.67z"/>
  <path class="fil2" d="M710.54 2848.57c1.57,-3.29 2.67,-4.71 3.26,-5.05 0.18,0.1 0.36,0.2 0.54,0.29 0.12,1.01 -1.14,3.79 -3.81,4.76z"/>
  <path class="fil2" d="M667.89 2473.58c0,-0.02 0,-0.04 0,-0.06 0.64,-0.14 1.36,-0.28 2.09,-0.43 1.66,-0.33 3.32,-0.67 4.22,-0.84 -0.01,0.01 -0.01,0.02 -0.01,0.03 -0.64,0.14 -1.78,0.38 -3.57,0.76 -1.11,0.23 -2.01,0.4 -2.74,0.55z"/>
  <path class="fil2" d="M1479.37 3550.31c-0.57,0 -1.24,-0.06 -1.99,-0.21 0.05,-1.49 0.12,-2.97 0.15,-4.46 0.73,-0.5 1.43,-0.72 2.08,-0.72 1.64,0 2.92,1.35 3.13,2.7 0.21,1.34 -0.68,2.69 -3.37,2.69z"/>
  <path class="fil2" d="M1423.25 2062.13c-0.34,-1.24 -0.69,-2.48 -1.05,-3.72 1.44,-0.49 3.44,-0.89 6.1,-1.07 0.22,0.73 0.42,1.44 0.62,2.18 -2.11,1.53 -4.08,2.32 -5.67,2.61z"/>
  <path class="fil2" d="M1446.36 1461.92c-2.46,0 -3.14,-2.55 -2.95,-5.09 0.18,-2.54 1.25,-5.09 2.24,-5.09 1,0 1.95,2.5 1.95,9.99 -0.46,0.12 -0.87,0.18 -1.24,0.18z"/>
  <path class="fil2" d="M1304.93 1931.97c-1.64,0 -2.17,-2.69 -2.11,-5.48 0.9,1.05 1.81,2.09 2.75,3.11 0.01,0.7 0.02,1.44 0.02,2.24 -0.25,0.08 -0.46,0.12 -0.66,0.12z"/>
  <path class="fil2" d="M465.31 1589.12c-0.25,-0.54 -0.49,-1.09 -0.74,-1.64 1.01,-0.83 2.59,-1.6 4.49,-1.6 0.18,0 0.38,0.01 0.56,0.03 -1.89,1.65 -3.31,2.66 -4.31,3.2z"/>
  <path class="fil2" d="M1240.09 1799.24c-0.27,-0.94 -0.52,-1.9 -0.79,-2.84 1.07,-1.3 2.08,-2.04 2.59,-2.04 0.73,0 0.51,1.46 -1.81,4.88z"/>
  <path class="fil2" d="M598.86 1665.06c-1,0 -1.99,-0.29 -2.81,-1 -0.36,-1.93 -0.66,-3.87 -0.9,-5.82 2.96,0.08 5.01,0.47 6.36,1.02 0.21,1.55 0.48,3.11 0.78,4.65 -0.92,0.68 -2.17,1.15 -3.43,1.15z"/>
  <path class="fil2" d="M843.21 1585.1c-1.7,-1.05 -3.4,-2.12 -5.09,-3.18 1.16,-0.52 2.74,-0.84 4.83,-0.84 0.16,1.52 0.25,2.85 0.25,4.02z"/>
  <path class="fil2" d="M1383.85 1554.72c-1.31,-0.25 -2.92,-1.05 -4.85,-2.58 1.87,-10.08 4.09,-13.53 5.96,-13.53 0.88,0 1.68,0.76 2.33,1.97 -0.27,4.8 -1.44,9.68 -3.44,14.14z"/>
  <path class="fil2" d="M1165.56 1536.98c-1.47,0 -3.52,-1.94 -4.59,-4.3 -0.2,-1.53 -0.36,-3.06 -0.51,-4.6 0.51,-1.62 1.93,-3 4.77,-3.65 0.81,2.41 1.35,4.41 1.68,6.04 0.12,1.01 0.25,2.01 0.39,3.01 0.08,2.52 -0.68,3.5 -1.73,3.5z"/>
  <path class="fil2" d="M1135.72 1470.03c0.24,-0.78 0.49,-1.55 0.74,-2.33 0.21,-0.02 0.42,-0.04 0.6,-0.04 1.31,0 1.5,0.77 -1.33,2.37z"/>
  <path class="fil2" d="M1234.98 1388.33c-2.38,-0.14 -3.85,-0.97 -2.76,-3.74 0.96,-0.07 1.9,-0.14 2.76,-0.14 2.76,0 4.69,0.62 3.76,3.39 -1.25,0.13 -2.5,0.29 -3.76,0.49z"/>
  <path class="fil2" d="M1743.53 1276.26c-2.04,-0.31 -2.82,-1.4 -2.81,-2.48 0,-1.13 0.86,-2.26 2.01,-2.53 0.27,1.68 0.53,3.35 0.8,5.02z"/>
  <path class="fil2" d="M1248.41 1249.7c-0.35,0 -0.19,-0.32 1.36,-1.32 1.84,0.11 -0.67,1.32 -1.36,1.32z"/>
  <path class="fil2" d="M1690.08 1072.38c0,-0.41 0.53,-0.7 1.38,-0.93 0.05,0.3 0.1,0.6 0.14,0.9 -0.49,0.01 -0.99,0.02 -1.52,0.03zm3.99 -0.1c-0.11,-0.39 -0.23,-0.79 -0.34,-1.18 1.03,-0.1 2.16,-0.14 3.27,-0.14 1.13,0 2.23,0.04 3.13,0.12 0.08,0.27 0.16,0.56 0.24,0.85 -1.29,0.14 -3.33,0.26 -6.3,0.35z"/>
  <path class="fil2" d="M866.71 887.65c1.04,-2.07 2.18,-2.85 3.11,-2.85 0.36,0 0.69,0.12 0.97,0.32 -1.32,0.88 -2.69,1.72 -4.07,2.53z"/>
  <path class="fil2" d="M1437.99 717.15c-0.04,-0.04 -0.09,-0.1 -0.13,-0.14 0.54,-0.82 1.13,-1.69 1.75,-2.63 0.12,0 -0.57,1.15 -1.62,2.77z"/>
  <path class="fil2" d="M1267.18 635.55c-2.29,-0.14 -5.04,-0.34 -6.68,-0.49 0.03,-0.07 0.05,-0.13 0.09,-0.18 2.88,0.21 5.07,0.37 6.68,0.5 -0.03,0.05 -0.06,0.12 -0.09,0.16z"/>
  <path class="fil2" d="M856.21 32.16c-1.2,-1.57 -2.44,-3.09 -3.73,-4.61 1.31,0.08 2.9,0.36 4.83,0.91 -0.27,1.51 -0.66,2.73 -1.1,3.7z"/>
  <path class="fil2" d="M724.38 135.71c-0.52,-0.25 -0.47,-0.45 0.21,-0.51 -0.07,0.16 -0.14,0.34 -0.21,0.51z"/>
  <path class="fil2" d="M836.65 7.46c-4.93,-0.79 -6.43,-1.07 -6.18,-1.07 0.3,0 3.47,0.47 6.02,0.9 0.05,0.06 0.1,0.12 0.16,0.18z"/>
  <path class="fil2" d="M555.6 1777.75c-0.41,0 -0.81,-0.01 -1.19,-0.03 -0.27,-0.57 -0.55,-1.13 -0.82,-1.69 1.4,-0.25 3.5,-0.5 6.5,-0.73 0.27,0.53 0.52,1.05 0.78,1.59 -1.29,0.61 -3.37,0.85 -5.27,0.85z"/>
  <path class="fil2" d="M768.38 1714.88c0.21,-0.29 0.4,-0.59 0.62,-0.88 0.49,-0.03 1.05,-0.05 1.64,-0.05 4.83,0 11.84,0.91 -2.26,0.93z"/>
  <path class="fil2" d="M902.2 1616.21c-2.14,0 -2.46,-1.66 -1.76,-3.85 1.55,1.05 3.07,2.12 4.58,3.23 -1.17,0.42 -2.1,0.62 -2.82,0.62z"/>
  <path class="fil2" d="M688.19 776.21c-2.09,-2.71 -3.05,-4.34 -3.29,-5.22 0.31,-0.23 0.63,-0.45 0.94,-0.68 1.26,0.47 3.48,2.17 5.15,3.89 -0.94,0.66 -1.86,1.33 -2.79,2z"/>
  <path class="fil2" d="M831.29 416.67c-2.56,0 -2.97,-0.34 -2.19,-0.82 0.81,0.27 1.63,0.55 2.44,0.82 -0.09,0 -0.17,0 -0.25,0z"/>
  <path class="fil2" d="M559.35 2476.96c-2.25,0 -3.71,-0.07 1.78,-0.21 0.03,0.08 0.05,0.12 0.09,0.18 -0.6,0.01 -1.27,0.02 -1.87,0.02z"/>
  <path class="fil2" d="M852.63 425.3c-0.59,0 -1.16,-0.37 -1.66,-1.25 0.81,0.35 1.62,0.69 2.42,1.04 -0.25,0.13 -0.51,0.21 -0.76,0.21z"/>
 </g>
</svg>
