<?xml version="1.0" encoding="UTF-8"?>
<!DOCTYPE svg PUBLIC "-//W3C//DTD SVG 1.1//EN" "http://www.w3.org/Graphics/SVG/1.1/DTD/svg11.dtd">
<!-- Creator: CorelDRAW 2021 (64 Bit) -->
<svg xmlns="http://www.w3.org/2000/svg" xml:space="preserve" width="99.0333mm" height="171.246mm" version="1.1" style="shape-rendering:geometricPrecision; text-rendering:geometricPrecision; image-rendering:optimizeQuality; fill-rule:evenodd; clip-rule:evenodd"
viewBox="0 0 101.72 175.88"
 xmlns:xlink="http://www.w3.org/1999/xlink"
 xmlns:xodm="http://www.corel.com/coreldraw/odm/2003">
 <defs>
  <style type="text/css">
   <![CDATA[
    .fil0 {fill:white}
   ]]>
  </style>
 </defs>
 <g id="Layer_x0020_1">
  <metadata id="CorelCorpID_0Corel-Layer"/>
  <g id="_1367948546640">
   <path class="fil0" d="M46.64 112.04c-2.24,-1.5 -3.58,-3.79 -5.52,-5.71 -1.96,-1.94 -3.63,-3.71 -5.61,-5.62 -1.08,-1.04 -1.8,-1.4 -2.91,-2.53l-6.16 -5.44c-1.39,-1.29 -2.24,-1.68 -2.99,-2.81 15.42,3.59 31.3,2.43 46.39,-1.09 -0.75,1.12 -4.93,4.46 -6.07,5.52l-17.12 17.67zm-40.59 -108.36c0,2.47 16.02,19.89 2.76,59.66 -3.65,10.94 -7.78,15.78 -8.54,25.89 -1.72,22.74 5.08,44.24 14.96,64.01 2.48,4.97 5.3,9.89 7.28,15.56 0.31,0.88 0.45,1.3 0.66,2.24 0.33,1.47 0.09,4.8 3.9,4.8 10.12,0 -4.28,-23.78 -7.01,-29.23 -3.82,-7.63 -7.95,-18.52 -9.69,-26.91 -2.61,-12.55 -2.87,-14.97 -2.87,-27.94 0,-2.01 0.36,-2.15 0.36,-3.99 5.52,2.92 14.11,11.05 19.26,15.17 3.68,2.94 9.9,9.97 13.44,13.74 2.05,2.17 2.12,1.42 2.1,5.53l-1.44 25.38c-0.11,1.3 0.07,2.62 -0.07,3.91 -0.52,4.71 -0.93,14.35 -1.6,17.97 -0.31,1.7 -1.92,6.36 3.46,6.36 4.28,0 3.94,-7.56 4.61,-12.78l1.2 -16.2c0.2,-7.45 1.13,-17.84 1.06,-25.04 -0.02,-2.49 -0.27,-1.99 0.99,-3.36l14.87 -15.93c4.44,-4.27 20.69,-18.53 24.74,-19.47 1.13,4.85 3.99,8.39 3.99,18.12 0,11.67 -4.86,26.89 -8.56,37.47 -0.98,2.8 -2.01,5.46 -3.09,8.14 -1.58,3.91 -9.37,22.94 -9.37,25.78 0,3.32 5.29,5.04 7.01,0.85l8.52 -22.28c4.49,-11.18 9.51,-25.88 11.49,-37.79 2.53,-15.19 1.45,-23.66 -5.89,-38.38 -3.33,-6.67 -7.01,-11.23 -9.19,-15.46 -0.76,-1.48 -1.88,-4.35 -3.98,-4.35 -2.21,0 -3.99,1.51 -3.99,3.99 0,2.06 7.94,14.46 9.42,16.67 -4.32,2.07 -15.03,5.06 -19.57,6.17 -34.14,8.34 -54.21,-3.43 -56.54,-3.63 5.01,-9.47 10.51,-30.1 10.51,-40.95 0,-12.3 -0.71,-20.92 -6.16,-31.9 -4.95,-9.97 -9.06,-3.66 -9.06,-1.81z"/>
   <path class="fil0" d="M75.63 34.84c6.28,0 3.56,-4.27 6.08,-15.3 0.67,-2.92 1.21,-5.32 2.11,-8.04 0.37,-1.13 2.68,-7.48 2.68,-7.83 0,-1.95 -1.91,-3.62 -3.99,-3.62 -3.07,0 -3.99,4.16 -4.85,6.75 -1.05,3.16 -1.9,6.09 -2.69,9.27 -0.65,2.62 -2.57,12.83 -2.23,15.47 0.09,0.66 0.46,1.59 0.85,2.07 0.35,0.43 1.43,1.23 2.03,1.23z"/>
   <path class="fil0" d="M40.84 55.14c0,3.31 -1.13,10.51 3.62,10.51 4.92,0 3.62,-6.48 3.62,-11.96 0,-3.1 -7.25,-4.3 -7.25,1.45z"/>
   <path class="fil0" d="M73.82 44.99c0,5.69 7.25,4.93 7.25,0 0,-3.9 -7.25,-4.72 -7.25,0z"/>
  </g>
 </g>
</svg>
