<?xml version="1.0" encoding="UTF-8"?>
<!DOCTYPE svg PUBLIC "-//W3C//DTD SVG 1.1//EN" "http://www.w3.org/Graphics/SVG/1.1/DTD/svg11.dtd">
<!-- Creator: CorelDRAW 2021 (64 Bit) -->
<svg xmlns="http://www.w3.org/2000/svg" xml:space="preserve" width="49.7949mm" height="53.2393mm" version="1.1" style="shape-rendering:geometricPrecision; text-rendering:geometricPrecision; image-rendering:optimizeQuality; fill-rule:evenodd; clip-rule:evenodd"
viewBox="0 0 25.08 26.81"
 xmlns:xlink="http://www.w3.org/1999/xlink"
 xmlns:xodm="http://www.corel.com/coreldraw/odm/2003">
 <defs>
  <style type="text/css">
   <![CDATA[
    .fil0 {fill:white}
   ]]>
  </style>
 </defs>
 <g id="Layer_x0020_1">
  <metadata id="CorelCorpID_0Corel-Layer"/>
  <path class="fil0" d="M15.85 18.09c0,-0.99 0.33,-2.48 0.57,-3.41 0.12,-0.46 0.3,-0.18 0.42,0.17 0.08,0.26 0.16,0.49 0.23,0.75 0.16,0.52 0.29,1 0.45,1.52 0.25,0.83 0.23,0.92 0.73,1.27 0.81,0.56 1.66,0.99 2.61,1.36 0.28,0.11 1.3,0.4 1.42,0.53 -0.02,0.18 -0.05,0.18 -0.2,0.25l-0.93 0.35c-0.7,0.22 -3.94,1.03 -4.24,0.73 -0.11,-0.15 -0.07,-0.76 -0.13,-1.03 -0.24,-1.14 -0.95,-1.57 -0.95,-2.44l0 -0.04zm-13.07 2.28c0.04,-0.25 0.17,-0.21 0.42,-0.28 1.41,-0.43 2.69,-1.03 3.88,-1.88 0.18,-0.13 0.15,-0.15 0.25,-0.39 0.22,-0.55 0.55,-1.81 0.75,-2.45 0.07,-0.22 0.19,-0.87 0.39,-0.9 0.25,-0.03 0.31,0.69 0.36,0.92 0.97,4.26 -0.08,3.2 -0.51,5.08 -0.06,0.26 -0.06,0.99 -0.14,1.13 -0.3,0.31 -4.95,-0.71 -5.38,-1.22zm7.12 -16.31c0.12,1 1,1.37 1.21,2.2 0.11,0.44 -0.22,1 -0.43,1.23 -1.46,1.64 -3.55,0.14 -4.24,2.58 -0.13,0.45 -0.18,0.95 -0.2,1.45 -0.02,0.48 0.06,1.3 -0,1.71 -0.09,0.54 -0.58,1.56 -0.77,2.66 -0.12,0.69 -0.2,0.71 -0.64,1.06 -0.61,0.49 -1.23,0.96 -2.02,1.39 -0.97,0.53 -2,0.77 -2.16,2.07 -0.07,0.54 -0.97,0.96 -0.55,1.8 0.2,0.4 0.43,0.72 0.69,1.02 0.58,0.66 0.7,0.66 1.33,1.22 0.85,0.75 3.02,1.52 4.14,1.79 3.15,0.75 9.33,0.77 12.48,0.01 0.91,-0.22 1.75,-0.48 2.55,-0.86 0.37,-0.17 1.32,-0.67 1.62,-0.94l0.94 -0.76c0.16,-0.15 0.25,-0.29 0.4,-0.45 0.23,-0.24 0.51,-0.66 0.68,-1.02 0.44,-0.9 -0.47,-1.28 -0.53,-1.78 -0.08,-0.66 -0.42,-1.2 -1,-1.51 -1.39,-0.74 -2.45,-1.22 -3.59,-2.38 -0.22,-0.22 -0.17,-0.27 -0.23,-0.62 -0.08,-0.49 -0.21,-0.91 -0.35,-1.36 -0.66,-2.04 -0.38,-0.77 -0.42,-2.88 -0.07,-3.64 -1.77,-2.96 -3.34,-3.46 -0.83,-0.27 -1.62,-1.09 -1.55,-1.86 0.07,-0.79 1.64,-1.82 1.16,-2.9 -0.16,-0.36 -0.2,-0.1 -0.2,-0.64 0.01,-0.55 0.04,-1.09 -0.14,-1.58 -0.63,-1.67 -3.75,-1.61 -4.41,-0.1 -0.31,0.7 -0.13,1.45 -0.19,1.94 -0.04,0.34 -0.35,0.26 -0.26,0.98z"/>
 </g>
</svg>
